<svg width="343" height="253" viewBox="0 0 343 253" fill="none" xmlns="http://www.w3.org/2000/svg">
<path d="M92.9774 48.5801H86.7663V27.7986C86.7663 27.1136 86.7663 26.4131 86.7663 25.6971C86.7974 24.981 86.813 24.2649 86.813 23.5489C86.8441 22.8017 86.8752 22.1167 86.9064 21.4941C86.595 21.8054 86.237 22.179 85.8323 22.6149C85.4587 23.0507 85.0384 23.471 84.5714 23.8758L81.1156 26.8646L77.94 23.222L87.6536 15.2363H92.9774V48.5801ZM102.038 45.5913C102.038 44.2837 102.38 43.3652 103.065 42.836C103.781 42.2756 104.638 41.9954 105.634 41.9954C106.63 41.9954 107.471 42.26 108.156 42.7893C108.872 43.3185 109.23 44.2525 109.23 45.5913C109.23 46.8677 108.872 47.7862 108.156 48.3466C107.471 48.907 106.63 49.1872 105.634 49.1872C104.638 49.1872 103.781 48.907 103.065 48.3466C102.38 47.7862 102.038 46.8677 102.038 45.5913ZM123.972 27.6118C125.933 27.6118 127.661 28.0009 129.155 28.7793C130.65 29.5576 131.817 30.694 132.658 32.1884C133.53 33.6516 133.965 35.4574 133.965 37.6056C133.965 39.9717 133.498 42.0109 132.564 43.7233C131.63 45.4356 130.245 46.7588 128.408 47.6928C126.602 48.5956 124.345 49.0471 121.637 49.0471C119.987 49.0471 118.43 48.8914 116.967 48.5801C115.503 48.2687 114.242 47.8173 113.184 47.2258V41.9954C114.274 42.618 115.581 43.1317 117.107 43.5365C118.632 43.9412 120.064 44.1436 121.403 44.1436C122.711 44.1436 123.831 43.9412 124.765 43.5365C125.699 43.1006 126.416 42.4468 126.914 41.5751C127.412 40.6722 127.661 39.5358 127.661 38.166C127.661 36.298 127.132 34.8814 126.073 33.9163C125.015 32.9511 123.38 32.4686 121.17 32.4686C120.36 32.4686 119.504 32.5464 118.601 32.7021C117.698 32.8577 116.951 33.0134 116.359 33.1691L113.791 31.7681L115.005 15.2363H131.817V20.3733H120.376L119.769 28.0788C120.267 27.9854 120.827 27.892 121.45 27.7986C122.104 27.674 122.944 27.6118 123.972 27.6118ZM153.02 48.5801H146.809V27.7986C146.809 27.1136 146.809 26.4131 146.809 25.6971C146.84 24.981 146.855 24.2649 146.855 23.5489C146.886 22.8017 146.918 22.1167 146.949 21.4941C146.637 21.8054 146.279 22.179 145.875 22.6149C145.501 23.0507 145.081 23.471 144.614 23.8758L141.158 26.8646L137.982 23.222L147.696 15.2363H153.02V48.5801ZM181.881 22.8484C181.881 24.3428 181.585 25.6504 180.994 26.7712C180.402 27.892 179.593 28.8104 178.565 29.5265C177.569 30.2114 176.417 30.7095 175.11 31.0209V31.161C177.631 31.4723 179.53 32.2973 180.807 33.6361C182.115 34.9748 182.768 36.7494 182.768 38.9599C182.768 40.8901 182.332 42.618 181.461 44.1436C180.589 45.6691 179.219 46.8677 177.351 47.7395C175.514 48.6112 173.133 49.0471 170.206 49.0471C168.431 49.0471 166.828 48.8914 165.396 48.5801C163.964 48.2999 162.578 47.8484 161.24 47.2258V42.0421C162.609 42.7581 164.026 43.303 165.489 43.6766C166.953 44.0502 168.322 44.237 169.599 44.237C172.027 44.237 173.74 43.7544 174.736 42.7893C175.732 41.793 176.23 40.4231 176.23 38.6797C176.23 37.5589 175.966 36.6404 175.436 35.9244C174.938 35.2083 174.129 34.679 173.008 34.3366C171.918 33.963 170.424 33.7762 168.525 33.7762H166.096V29.0595H168.572C170.315 29.0595 171.7 28.8415 172.728 28.4057C173.786 27.9698 174.549 27.3627 175.016 26.5844C175.483 25.806 175.717 24.9032 175.717 23.8758C175.717 22.537 175.312 21.4941 174.502 20.7469C173.724 19.9997 172.588 19.6261 171.093 19.6261C170.097 19.6261 169.163 19.7506 168.291 19.9997C167.42 20.2487 166.641 20.5756 165.956 20.9804C165.271 21.354 164.664 21.7587 164.135 22.1946L161.333 18.1317C162.142 17.509 163.045 16.9486 164.042 16.4505C165.069 15.9212 166.205 15.5165 167.451 15.2363C168.696 14.9249 170.097 14.7693 171.654 14.7693C174.923 14.7693 177.445 15.5009 179.219 16.9642C180.994 18.3963 181.881 20.3577 181.881 22.8484ZM186.412 45.5913C186.412 44.2837 186.754 43.3652 187.439 42.836C188.155 42.2756 189.011 41.9954 190.008 41.9954C191.004 41.9954 191.844 42.26 192.529 42.7893C193.245 43.3185 193.603 44.2525 193.603 45.5913C193.603 46.8677 193.245 47.7862 192.529 48.3466C191.844 48.907 191.004 49.1872 190.008 49.1872C189.011 49.1872 188.155 48.907 187.439 48.3466C186.754 47.7862 186.412 46.8677 186.412 45.5913ZM218.713 48.5801H196.997V44.237L204.89 35.6442C206.477 33.9318 207.754 32.4686 208.719 31.2544C209.684 30.009 210.385 28.8571 210.82 27.7986C211.287 26.74 211.521 25.5881 211.521 24.3428C211.521 22.8172 211.132 21.6809 210.353 20.9337C209.606 20.1553 208.61 19.7662 207.365 19.7662C206.119 19.7662 204.936 20.0619 203.815 20.6535C202.726 21.2139 201.574 22.0233 200.36 23.0819L196.951 19.2058C197.853 18.3963 198.803 17.6647 199.799 17.0109C200.796 16.3259 201.947 15.7811 203.255 15.3764C204.594 14.9716 206.135 14.7693 207.878 14.7693C209.902 14.7693 211.645 15.1584 213.109 15.9368C214.603 16.684 215.755 17.7269 216.565 19.0657C217.374 20.4044 217.779 21.9611 217.779 23.7357C217.779 25.1055 217.576 26.3664 217.172 27.5184C216.798 28.6703 216.238 29.8067 215.49 30.9275C214.743 32.0483 213.856 33.2002 212.829 34.3833C211.801 35.5663 210.649 36.8584 209.373 38.2594L204.843 43.2096V43.4898H218.713V48.5801ZM221.375 34.3833C221.375 32.453 221.5 30.5539 221.749 28.6859C222.029 26.8179 222.481 25.0588 223.103 23.4088C223.757 21.7276 224.66 20.2487 225.812 18.9723C226.995 17.6647 228.489 16.6528 230.295 15.9368C232.101 15.1896 234.28 14.816 236.833 14.816C237.456 14.816 238.172 14.8471 238.981 14.9094C239.791 14.9716 240.46 15.065 240.989 15.1896V20.0464C240.429 19.8596 239.806 19.735 239.121 19.6728C238.436 19.5794 237.705 19.5327 236.926 19.5327C235.09 19.5327 233.549 19.8284 232.303 20.42C231.089 20.9804 230.108 21.7898 229.361 22.8484C228.645 23.9069 228.116 25.1367 227.773 26.5377C227.431 27.9075 227.228 29.4331 227.166 31.1143H227.4C227.836 30.3671 228.349 29.6977 228.941 29.1062C229.563 28.5146 230.311 28.0476 231.182 27.7052C232.085 27.3627 233.113 27.1915 234.265 27.1915C236.101 27.1915 237.689 27.6118 239.028 28.4524C240.367 29.2618 241.394 30.4449 242.11 32.0016C242.826 33.5271 243.184 35.3951 243.184 37.6056C243.184 39.9717 242.748 42.0109 241.877 43.7233C241.036 45.4356 239.837 46.7588 238.281 47.6928C236.724 48.5956 234.856 49.0471 232.677 49.0471C231.089 49.0471 229.61 48.7513 228.24 48.1598C226.87 47.5682 225.672 46.6809 224.644 45.4979C223.617 44.2837 222.808 42.7581 222.216 40.9213C221.656 39.0533 221.375 36.8739 221.375 34.3833ZM232.537 44.237C233.907 44.237 235.012 43.7077 235.852 42.6492C236.693 41.5595 237.113 39.8939 237.113 37.6523C237.113 35.8465 236.74 34.43 235.992 33.4026C235.245 32.344 234.14 31.8148 232.677 31.8148C231.618 31.8148 230.715 32.0794 229.968 32.6087C229.221 33.1068 228.629 33.7606 228.194 34.5701C227.789 35.3484 227.586 36.1579 227.586 36.9985C227.586 37.8702 227.68 38.7264 227.867 39.567C228.085 40.4076 228.396 41.1859 228.801 41.902C229.237 42.618 229.766 43.194 230.388 43.6299C231.011 44.0346 231.727 44.237 232.537 44.237ZM257.008 27.6118C258.97 27.6118 260.697 28.0009 262.192 28.7793C263.686 29.5576 264.854 30.694 265.694 32.1884C266.566 33.6516 267.002 35.4574 267.002 37.6056C267.002 39.9717 266.535 42.0109 265.601 43.7233C264.667 45.4356 263.282 46.7588 261.445 47.6928C259.639 48.5956 257.382 49.0471 254.673 49.0471C253.023 49.0471 251.466 48.8914 250.003 48.5801C248.54 48.2687 247.279 47.8173 246.22 47.2258V41.9954C247.31 42.618 248.618 43.1317 250.143 43.5365C251.669 43.9412 253.101 44.1436 254.44 44.1436C255.747 44.1436 256.868 43.9412 257.802 43.5365C258.736 43.1006 259.452 42.4468 259.95 41.5751C260.448 40.6722 260.697 39.5358 260.697 38.166C260.697 36.298 260.168 34.8814 259.11 33.9163C258.051 32.9511 256.417 32.4686 254.206 32.4686C253.397 32.4686 252.541 32.5464 251.638 32.7021C250.735 32.8577 249.988 33.0134 249.396 33.1691L246.828 31.7681L248.042 15.2363H264.854V20.3733H253.412L252.805 28.0788C253.303 27.9854 253.864 27.892 254.486 27.7986C255.14 27.674 255.981 27.6118 257.008 27.6118Z" fill="#834781"/>
<path d="M94.8778 82.5801L93.3178 78.1601H88.0178L86.4778 82.5801H84.6578L89.8578 68.2401H91.5378L96.7178 82.5801H94.8778ZM91.3178 72.2401C91.2911 72.1334 91.2311 71.9401 91.1378 71.6601C91.0578 71.3801 90.9711 71.0934 90.8778 70.8001C90.7978 70.4934 90.7311 70.2601 90.6778 70.1001C90.6111 70.3667 90.5378 70.6401 90.4578 70.9201C90.3911 71.1867 90.3245 71.4334 90.2578 71.6601C90.1911 71.8867 90.1311 72.0801 90.0778 72.2401L88.5978 76.5601H92.7978L91.3178 72.2401ZM102.368 82.7801C101.461 82.7801 100.661 82.5867 99.9681 82.2001C99.2748 81.8134 98.7281 81.2134 98.3281 80.4001C97.9415 79.5867 97.7481 78.5467 97.7481 77.2801C97.7481 75.9601 97.9548 74.8867 98.3681 74.0601C98.7815 73.2334 99.3415 72.6267 100.048 72.2401C100.768 71.8534 101.581 71.6601 102.488 71.6601C103.008 71.6601 103.508 71.7201 103.988 71.8401C104.481 71.9467 104.881 72.0801 105.188 72.2401L104.648 73.7001C104.341 73.5801 103.981 73.4667 103.568 73.3601C103.168 73.2534 102.795 73.2001 102.448 73.2001C101.795 73.2001 101.255 73.3534 100.828 73.6601C100.401 73.9667 100.081 74.4201 99.8681 75.0201C99.6548 75.6201 99.5481 76.3667 99.5481 77.2601C99.5481 78.1134 99.6548 78.8401 99.8681 79.4401C100.081 80.0401 100.395 80.4934 100.808 80.8001C101.235 81.1067 101.755 81.2601 102.368 81.2601C102.915 81.2601 103.401 81.2001 103.828 81.0801C104.255 80.9601 104.648 80.8134 105.008 80.6401V82.2001C104.661 82.3867 104.281 82.5267 103.868 82.6201C103.455 82.7267 102.955 82.7801 102.368 82.7801ZM104.108 85.3601C104.108 85.7867 104.001 86.1467 103.788 86.4401C103.588 86.7467 103.281 86.9801 102.868 87.1401C102.468 87.3001 101.955 87.3801 101.328 87.3801C101.128 87.3801 100.941 87.3667 100.768 87.3401C100.595 87.3267 100.455 87.3067 100.348 87.2801V86.1801C100.468 86.2067 100.621 86.2267 100.808 86.2401C101.008 86.2667 101.195 86.2801 101.368 86.2801C101.795 86.2801 102.121 86.2134 102.348 86.0801C102.588 85.9601 102.708 85.7334 102.708 85.4001C102.708 85.0534 102.548 84.8001 102.228 84.6401C101.908 84.4801 101.501 84.3667 101.008 84.3001L101.808 82.5801H102.948L102.488 83.6401C102.781 83.7067 103.048 83.8067 103.288 83.9401C103.541 84.0867 103.741 84.2734 103.888 84.5001C104.035 84.7267 104.108 85.0134 104.108 85.3601ZM116.21 77.2001C116.21 78.0934 116.097 78.8867 115.87 79.5801C115.657 80.2601 115.343 80.8401 114.93 81.3201C114.517 81.8001 114.017 82.1667 113.43 82.4201C112.843 82.6601 112.19 82.7801 111.47 82.7801C110.803 82.7801 110.183 82.6601 109.61 82.4201C109.05 82.1667 108.557 81.8001 108.13 81.3201C107.717 80.8401 107.397 80.2601 107.17 79.5801C106.943 78.8867 106.83 78.0934 106.83 77.2001C106.83 76.0134 107.017 75.0134 107.39 74.2001C107.777 73.3734 108.323 72.7467 109.03 72.3201C109.737 71.8801 110.57 71.6601 111.53 71.6601C112.45 71.6601 113.257 71.8801 113.95 72.3201C114.657 72.7467 115.21 73.3734 115.61 74.2001C116.01 75.0134 116.21 76.0134 116.21 77.2001ZM108.63 77.2001C108.63 78.0401 108.73 78.7734 108.93 79.4001C109.13 80.0134 109.443 80.4867 109.87 80.8201C110.297 81.1534 110.843 81.3201 111.51 81.3201C112.177 81.3201 112.723 81.1534 113.15 80.8201C113.577 80.4867 113.89 80.0134 114.09 79.4001C114.303 78.7734 114.41 78.0401 114.41 77.2001C114.41 76.3467 114.303 75.6201 114.09 75.0201C113.89 74.4201 113.577 73.9601 113.15 73.6401C112.723 73.3067 112.17 73.1401 111.49 73.1401C110.49 73.1401 109.763 73.5001 109.31 74.2201C108.857 74.9401 108.63 75.9334 108.63 77.2001ZM108.03 70.4601C108.07 70.0601 108.143 69.7067 108.25 69.4001C108.37 69.0801 108.517 68.8134 108.69 68.6001C108.863 68.3734 109.07 68.2001 109.31 68.0801C109.563 67.9601 109.837 67.9001 110.13 67.9001C110.41 67.9001 110.677 67.9601 110.93 68.0801C111.183 68.1867 111.43 68.3201 111.67 68.4801C111.91 68.6267 112.137 68.7601 112.35 68.8801C112.577 68.9867 112.79 69.0401 112.99 69.0401C113.27 69.0401 113.483 68.9467 113.63 68.7601C113.79 68.5601 113.917 68.2667 114.01 67.8801H114.99C114.91 68.6534 114.69 69.2734 114.33 69.7401C113.97 70.2067 113.497 70.4401 112.91 70.4401C112.643 70.4401 112.383 70.3867 112.13 70.2801C111.877 70.1601 111.63 70.0267 111.39 69.8801C111.15 69.7201 110.917 69.5867 110.69 69.4801C110.463 69.3601 110.25 69.3001 110.05 69.3001C109.757 69.3001 109.53 69.4001 109.37 69.6001C109.223 69.7867 109.11 70.0734 109.03 70.4601H108.03ZM122.716 71.6601C123.583 71.6601 124.33 71.8601 124.956 72.2601C125.583 72.6601 126.063 73.2267 126.396 73.9601C126.743 74.6801 126.916 75.5267 126.916 76.5001V77.5601H120.036C120.063 78.7734 120.35 79.7001 120.896 80.3401C121.443 80.9667 122.21 81.2801 123.196 81.2801C123.836 81.2801 124.403 81.2201 124.896 81.1001C125.403 80.9667 125.923 80.7801 126.456 80.5401V82.0801C125.936 82.3201 125.423 82.4934 124.916 82.6001C124.423 82.7201 123.823 82.7801 123.116 82.7801C122.156 82.7801 121.31 82.5734 120.576 82.1601C119.843 81.7467 119.27 81.1334 118.856 80.3201C118.443 79.4934 118.236 78.4867 118.236 77.3001C118.236 76.1267 118.423 75.1201 118.796 74.2801C119.17 73.4401 119.69 72.7934 120.356 72.3401C121.036 71.8867 121.823 71.6601 122.716 71.6601ZM122.716 73.1001C121.943 73.1001 121.33 73.3734 120.876 73.9201C120.423 74.4534 120.156 75.2001 120.076 76.1601H125.116C125.116 75.5467 125.03 75.0134 124.856 74.5601C124.683 74.1067 124.416 73.7534 124.056 73.5001C123.71 73.2334 123.263 73.1001 122.716 73.1001ZM136.061 79.6201C136.061 80.3134 135.894 80.8934 135.561 81.3601C135.241 81.8267 134.781 82.1801 134.181 82.4201C133.581 82.6601 132.861 82.7801 132.021 82.7801C131.314 82.7801 130.701 82.7201 130.181 82.6001C129.674 82.4801 129.228 82.3134 128.841 82.1001V80.5001C129.254 80.7134 129.748 80.9134 130.321 81.1001C130.894 81.2734 131.474 81.3601 132.061 81.3601C132.874 81.3601 133.461 81.2201 133.821 80.9401C134.194 80.6467 134.381 80.2601 134.381 79.7801C134.381 79.5134 134.308 79.2734 134.161 79.0601C134.028 78.8467 133.781 78.6334 133.421 78.4201C133.074 78.2067 132.568 77.9667 131.901 77.7001C131.261 77.4334 130.708 77.1667 130.241 76.9001C129.788 76.6334 129.434 76.3134 129.181 75.9401C128.941 75.5667 128.821 75.0867 128.821 74.5001C128.821 73.5934 129.168 72.8934 129.861 72.4001C130.568 71.9067 131.488 71.6601 132.621 71.6601C133.234 71.6601 133.808 71.7267 134.341 71.8601C134.874 71.9801 135.381 72.1534 135.861 72.3801L135.281 73.7801C135.001 73.6467 134.708 73.5334 134.401 73.4401C134.094 73.3334 133.781 73.2534 133.461 73.2001C133.154 73.1334 132.841 73.1001 132.521 73.1001C131.868 73.1001 131.368 73.2201 131.021 73.4601C130.674 73.6867 130.501 74.0001 130.501 74.4001C130.501 74.6934 130.581 74.9467 130.741 75.1601C130.901 75.3734 131.161 75.5801 131.521 75.7801C131.894 75.9667 132.401 76.1867 133.041 76.4401C133.681 76.6934 134.228 76.9534 134.681 77.2201C135.134 77.4867 135.474 77.8134 135.701 78.2001C135.941 78.5734 136.061 79.0467 136.061 79.6201ZM145.127 71.8601V82.5801H143.387V71.8601H145.127ZM144.267 67.8401C144.533 67.8401 144.767 67.9334 144.967 68.1201C145.167 68.2934 145.267 68.5734 145.267 68.9601C145.267 69.3334 145.167 69.6134 144.967 69.8001C144.767 69.9867 144.533 70.0801 144.267 70.0801C143.987 70.0801 143.747 69.9867 143.547 69.8001C143.347 69.6134 143.247 69.3334 143.247 68.9601C143.247 68.5734 143.347 68.2934 143.547 68.1201C143.747 67.9334 143.987 67.8401 144.267 67.8401ZM153.209 71.6601C154.409 71.6601 155.315 71.9734 155.929 72.6001C156.555 73.2134 156.869 74.2134 156.869 75.6001V82.5801H155.129V75.7201C155.129 74.8534 154.949 74.2067 154.589 73.7801C154.229 73.3534 153.675 73.1401 152.929 73.1401C151.835 73.1401 151.075 73.4734 150.649 74.1401C150.235 74.8067 150.029 75.7667 150.029 77.0201V82.5801H148.289V71.8601H149.689L149.949 73.3201H150.049C150.262 72.9467 150.535 72.6401 150.869 72.4001C151.202 72.1467 151.569 71.9601 151.969 71.8401C152.369 71.7201 152.782 71.6601 153.209 71.6601ZM166.588 79.6201C166.588 80.3134 166.422 80.8934 166.088 81.3601C165.768 81.8267 165.308 82.1801 164.708 82.4201C164.108 82.6601 163.388 82.7801 162.548 82.7801C161.842 82.7801 161.228 82.7201 160.708 82.6001C160.202 82.4801 159.755 82.3134 159.368 82.1001V80.5001C159.782 80.7134 160.275 80.9134 160.848 81.1001C161.422 81.2734 162.002 81.3601 162.588 81.3601C163.402 81.3601 163.988 81.2201 164.348 80.9401C164.722 80.6467 164.908 80.2601 164.908 79.7801C164.908 79.5134 164.835 79.2734 164.688 79.0601C164.555 78.8467 164.308 78.6334 163.948 78.4201C163.602 78.2067 163.095 77.9667 162.428 77.7001C161.788 77.4334 161.235 77.1667 160.768 76.9001C160.315 76.6334 159.962 76.3134 159.708 75.9401C159.468 75.5667 159.348 75.0867 159.348 74.5001C159.348 73.5934 159.695 72.8934 160.388 72.4001C161.095 71.9067 162.015 71.6601 163.148 71.6601C163.762 71.6601 164.335 71.7267 164.868 71.8601C165.402 71.9801 165.908 72.1534 166.388 72.3801L165.808 73.7801C165.528 73.6467 165.235 73.5334 164.928 73.4401C164.622 73.3334 164.308 73.2534 163.988 73.2001C163.682 73.1334 163.368 73.1001 163.048 73.1001C162.395 73.1001 161.895 73.2201 161.548 73.4601C161.202 73.6867 161.028 74.0001 161.028 74.4001C161.028 74.6934 161.108 74.9467 161.268 75.1601C161.428 75.3734 161.688 75.5801 162.048 75.7801C162.422 75.9667 162.928 76.1867 163.568 76.4401C164.208 76.6934 164.755 76.9534 165.208 77.2201C165.662 77.4867 166.002 77.8134 166.228 78.2001C166.468 78.5734 166.588 79.0467 166.588 79.6201ZM172.471 81.3401C172.725 81.3401 172.985 81.3201 173.251 81.2801C173.518 81.2267 173.738 81.1734 173.911 81.1201V82.4601C173.725 82.5534 173.458 82.6267 173.111 82.6801C172.778 82.7467 172.458 82.7801 172.151 82.7801C171.618 82.7801 171.125 82.6867 170.671 82.5001C170.218 82.3001 169.851 81.9601 169.571 81.4801C169.305 81.0001 169.171 80.3267 169.171 79.4601V73.2201H167.751V72.3801L169.211 71.6801L169.871 69.4001H170.911V71.8601H173.831V73.2201H170.911V79.4201C170.911 80.0734 171.058 80.5601 171.351 80.8801C171.645 81.1867 172.018 81.3401 172.471 81.3401ZM177.666 71.8601V82.5801H175.926V71.8601H177.666ZM176.806 67.8401C177.072 67.8401 177.306 67.9334 177.506 68.1201C177.706 68.2934 177.806 68.5734 177.806 68.9601C177.806 69.3334 177.706 69.6134 177.506 69.8001C177.306 69.9867 177.072 70.0801 176.806 70.0801C176.526 70.0801 176.286 69.9867 176.086 69.8001C175.886 69.6134 175.786 69.3334 175.786 68.9601C175.786 68.5734 175.886 68.2934 176.086 68.1201C176.286 67.9334 176.526 67.8401 176.806 67.8401ZM184.288 81.3401C184.541 81.3401 184.801 81.3201 185.068 81.2801C185.334 81.2267 185.554 81.1734 185.728 81.1201V82.4601C185.541 82.5534 185.274 82.6267 184.928 82.6801C184.594 82.7467 184.274 82.7801 183.968 82.7801C183.434 82.7801 182.941 82.6867 182.488 82.5001C182.034 82.3001 181.668 81.9601 181.388 81.4801C181.121 81.0001 180.988 80.3267 180.988 79.4601V73.2201H179.568V72.3801L181.028 71.6801L181.688 69.4001H182.728V71.8601H185.648V73.2201H182.728V79.4201C182.728 80.0734 182.874 80.5601 183.168 80.8801C183.461 81.1867 183.834 81.3401 184.288 81.3401ZM196.222 71.8601V82.5801H194.822L194.562 81.1601H194.482C194.269 81.5334 193.989 81.8401 193.642 82.0801C193.309 82.3201 192.942 82.4934 192.542 82.6001C192.142 82.7201 191.722 82.7801 191.282 82.7801C190.482 82.7801 189.809 82.6467 189.262 82.3801C188.716 82.1001 188.302 81.6734 188.022 81.1001C187.756 80.5267 187.622 79.7867 187.622 78.8801V71.8601H189.382V78.7601C189.382 79.6134 189.562 80.2534 189.922 80.6801C190.282 81.1067 190.836 81.3201 191.582 81.3201C192.316 81.3201 192.889 81.1734 193.302 80.8801C193.729 80.5734 194.029 80.1334 194.202 79.5601C194.389 78.9734 194.482 78.2667 194.482 77.4401V71.8601H196.222ZM203.442 82.7801C202.536 82.7801 201.736 82.5867 201.042 82.2001C200.349 81.8134 199.802 81.2134 199.402 80.4001C199.016 79.5867 198.822 78.5467 198.822 77.2801C198.822 75.9601 199.029 74.8867 199.442 74.0601C199.856 73.2334 200.416 72.6267 201.122 72.2401C201.842 71.8534 202.656 71.6601 203.562 71.6601C204.082 71.6601 204.582 71.7201 205.062 71.8401C205.556 71.9467 205.956 72.0801 206.262 72.2401L205.722 73.7001C205.416 73.5801 205.056 73.4667 204.642 73.3601C204.242 73.2534 203.869 73.2001 203.522 73.2001C202.869 73.2001 202.329 73.3534 201.902 73.6601C201.476 73.9667 201.156 74.4201 200.942 75.0201C200.729 75.6201 200.622 76.3667 200.622 77.2601C200.622 78.1134 200.729 78.8401 200.942 79.4401C201.156 80.0401 201.469 80.4934 201.882 80.8001C202.309 81.1067 202.829 81.2601 203.442 81.2601C203.989 81.2601 204.476 81.2001 204.902 81.0801C205.329 80.9601 205.722 80.8134 206.082 80.6401V82.2001C205.736 82.3867 205.356 82.5267 204.942 82.6201C204.529 82.7267 204.029 82.7801 203.442 82.7801ZM210.224 71.8601V82.5801H208.484V71.8601H210.224ZM209.364 67.8401C209.631 67.8401 209.864 67.9334 210.064 68.1201C210.264 68.2934 210.364 68.5734 210.364 68.9601C210.364 69.3334 210.264 69.6134 210.064 69.8001C209.864 69.9867 209.631 70.0801 209.364 70.0801C209.084 70.0801 208.844 69.9867 208.644 69.8001C208.444 69.6134 208.344 69.3334 208.344 68.9601C208.344 68.5734 208.444 68.2934 208.644 68.1201C208.844 67.9334 209.084 67.8401 209.364 67.8401ZM222.206 77.2001C222.206 78.0934 222.093 78.8867 221.866 79.5801C221.653 80.2601 221.34 80.8401 220.926 81.3201C220.513 81.8001 220.013 82.1667 219.426 82.4201C218.84 82.6601 218.186 82.7801 217.466 82.7801C216.8 82.7801 216.18 82.6601 215.606 82.4201C215.046 82.1667 214.553 81.8001 214.126 81.3201C213.713 80.8401 213.393 80.2601 213.166 79.5801C212.94 78.8867 212.826 78.0934 212.826 77.2001C212.826 76.0134 213.013 75.0134 213.386 74.2001C213.773 73.3734 214.32 72.7467 215.026 72.3201C215.733 71.8801 216.566 71.6601 217.526 71.6601C218.446 71.6601 219.253 71.8801 219.946 72.3201C220.653 72.7467 221.206 73.3734 221.606 74.2001C222.006 75.0134 222.206 76.0134 222.206 77.2001ZM214.626 77.2001C214.626 78.0401 214.726 78.7734 214.926 79.4001C215.126 80.0134 215.44 80.4867 215.866 80.8201C216.293 81.1534 216.84 81.3201 217.506 81.3201C218.173 81.3201 218.72 81.1534 219.146 80.8201C219.573 80.4867 219.886 80.0134 220.086 79.4001C220.3 78.7734 220.406 78.0401 220.406 77.2001C220.406 76.3467 220.3 75.6201 220.086 75.0201C219.886 74.4201 219.573 73.9601 219.146 73.6401C218.72 73.3067 218.166 73.1401 217.486 73.1401C216.486 73.1401 215.76 73.5001 215.306 74.2201C214.853 74.9401 214.626 75.9334 214.626 77.2001ZM229.712 71.6601C230.912 71.6601 231.819 71.9734 232.432 72.6001C233.059 73.2134 233.372 74.2134 233.372 75.6001V82.5801H231.632V75.7201C231.632 74.8534 231.452 74.2067 231.092 73.7801C230.732 73.3534 230.179 73.1401 229.432 73.1401C228.339 73.1401 227.579 73.4734 227.152 74.1401C226.739 74.8067 226.532 75.7667 226.532 77.0201V82.5801H224.792V71.8601H226.192L226.452 73.3201H226.552C226.766 72.9467 227.039 72.6401 227.372 72.4001C227.706 72.1467 228.072 71.9601 228.472 71.8401C228.872 71.7201 229.286 71.6601 229.712 71.6601ZM240.332 71.6801C241.559 71.6801 242.472 71.9667 243.072 72.5401C243.686 73.1134 243.992 74.0267 243.992 75.2801V82.5801H242.732L242.392 81.0601H242.312C242.019 81.4467 241.719 81.7734 241.412 82.0401C241.119 82.2934 240.772 82.4801 240.372 82.6001C239.986 82.7201 239.506 82.7801 238.932 82.7801C238.332 82.7801 237.792 82.6667 237.312 82.4401C236.832 82.2134 236.452 81.8667 236.172 81.4001C235.892 80.9201 235.752 80.3201 235.752 79.6001C235.752 78.5334 236.146 77.7134 236.932 77.1401C237.719 76.5534 238.932 76.2334 240.572 76.1801L242.272 76.1201V75.4801C242.272 74.5867 242.092 73.9667 241.732 73.6201C241.386 73.2734 240.886 73.1001 240.232 73.1001C239.712 73.1001 239.212 73.1867 238.732 73.3601C238.266 73.5201 237.819 73.7067 237.392 73.9201L236.852 72.6001C237.306 72.3467 237.832 72.1334 238.432 71.9601C239.032 71.7734 239.666 71.6801 240.332 71.6801ZM240.812 77.4001C239.586 77.4534 238.732 77.6667 238.252 78.0401C237.786 78.4134 237.552 78.9401 237.552 79.6201C237.552 80.2201 237.719 80.6601 238.052 80.9401C238.386 81.2201 238.819 81.3601 239.352 81.3601C240.179 81.3601 240.872 81.1134 241.432 80.6201C241.992 80.1134 242.272 79.3401 242.272 78.3001V77.3401L240.812 77.4001ZM248.857 71.8601V82.5801H247.117V71.8601H248.857ZM247.997 67.8401C248.264 67.8401 248.497 67.9334 248.697 68.1201C248.897 68.2934 248.997 68.5734 248.997 68.9601C248.997 69.3334 248.897 69.6134 248.697 69.8001C248.497 69.9867 248.264 70.0801 247.997 70.0801C247.717 70.0801 247.477 69.9867 247.277 69.8001C247.077 69.6134 246.977 69.3334 246.977 68.9601C246.977 68.5734 247.077 68.2934 247.277 68.1201C247.477 67.9334 247.717 67.8401 247.997 67.8401ZM258.639 79.6201C258.639 80.3134 258.472 80.8934 258.139 81.3601C257.819 81.8267 257.359 82.1801 256.759 82.4201C256.159 82.6601 255.439 82.7801 254.599 82.7801C253.892 82.7801 253.279 82.7201 252.759 82.6001C252.252 82.4801 251.806 82.3134 251.419 82.1001V80.5001C251.832 80.7134 252.326 80.9134 252.899 81.1001C253.472 81.2734 254.052 81.3601 254.639 81.3601C255.452 81.3601 256.039 81.2201 256.399 80.9401C256.772 80.6467 256.959 80.2601 256.959 79.7801C256.959 79.5134 256.886 79.2734 256.739 79.0601C256.606 78.8467 256.359 78.6334 255.999 78.4201C255.652 78.2067 255.146 77.9667 254.479 77.7001C253.839 77.4334 253.286 77.1667 252.819 76.9001C252.366 76.6334 252.012 76.3134 251.759 75.9401C251.519 75.5667 251.399 75.0867 251.399 74.5001C251.399 73.5934 251.746 72.8934 252.439 72.4001C253.146 71.9067 254.066 71.6601 255.199 71.6601C255.812 71.6601 256.386 71.7267 256.919 71.8601C257.452 71.9801 257.959 72.1534 258.439 72.3801L257.859 73.7801C257.579 73.6467 257.286 73.5334 256.979 73.4401C256.672 73.3334 256.359 73.2534 256.039 73.2001C255.732 73.1334 255.419 73.1001 255.099 73.1001C254.446 73.1001 253.946 73.2201 253.599 73.4601C253.252 73.6867 253.079 74.0001 253.079 74.4001C253.079 74.6934 253.159 74.9467 253.319 75.1601C253.479 75.3734 253.739 75.5801 254.099 75.7801C254.472 75.9667 254.979 76.1867 255.619 76.4401C256.259 76.6934 256.806 76.9534 257.259 77.2201C257.712 77.4867 258.052 77.8134 258.279 78.2001C258.519 78.5734 258.639 79.0467 258.639 79.6201ZM32.7713 106.1C32.7713 105.007 32.8647 103.94 33.0513 102.9C33.2513 101.86 33.558 100.867 33.9713 99.9201C34.3847 98.9734 34.9047 98.1001 35.5313 97.3001H37.1513C36.578 98.1267 36.0913 99.0201 35.6913 99.9801C35.3047 100.94 35.0113 101.933 34.8113 102.96C34.6113 103.987 34.5113 105.027 34.5113 106.08C34.5113 107.107 34.6113 108.127 34.8113 109.14C35.0113 110.153 35.3047 111.127 35.6913 112.06C36.078 113.007 36.558 113.9 37.1313 114.74H35.5313C34.9047 113.953 34.3847 113.093 33.9713 112.16C33.558 111.24 33.2513 110.267 33.0513 109.24C32.8647 108.213 32.7713 107.167 32.7713 106.1ZM43.3544 111.78C42.4478 111.78 41.6478 111.587 40.9544 111.2C40.2611 110.813 39.7144 110.213 39.3144 109.4C38.9278 108.587 38.7344 107.547 38.7344 106.28C38.7344 104.96 38.9411 103.887 39.3544 103.06C39.7678 102.233 40.3278 101.627 41.0344 101.24C41.7544 100.853 42.5678 100.66 43.4744 100.66C43.9944 100.66 44.4944 100.72 44.9744 100.84C45.4678 100.947 45.8678 101.08 46.1744 101.24L45.6344 102.7C45.3278 102.58 44.9678 102.467 44.5544 102.36C44.1544 102.253 43.7811 102.2 43.4344 102.2C42.7811 102.2 42.2411 102.353 41.8144 102.66C41.3878 102.967 41.0678 103.42 40.8544 104.02C40.6411 104.62 40.5344 105.367 40.5344 106.26C40.5344 107.113 40.6411 107.84 40.8544 108.44C41.0678 109.04 41.3811 109.493 41.7944 109.8C42.2211 110.107 42.7411 110.26 43.3544 110.26C43.9011 110.26 44.3878 110.2 44.8144 110.08C45.2411 109.96 45.6344 109.813 45.9944 109.64V111.2C45.6478 111.387 45.2678 111.527 44.8544 111.62C44.4411 111.727 43.9411 111.78 43.3544 111.78ZM57.1965 106.2C57.1965 107.093 57.0831 107.887 56.8565 108.58C56.6431 109.26 56.3298 109.84 55.9165 110.32C55.5031 110.8 55.0031 111.167 54.4165 111.42C53.8298 111.66 53.1765 111.78 52.4565 111.78C51.7898 111.78 51.1698 111.66 50.5965 111.42C50.0365 111.167 49.5431 110.8 49.1165 110.32C48.7031 109.84 48.3831 109.26 48.1565 108.58C47.9298 107.887 47.8165 107.093 47.8165 106.2C47.8165 105.013 48.0031 104.013 48.3765 103.2C48.7631 102.373 49.3098 101.747 50.0165 101.32C50.7231 100.88 51.5565 100.66 52.5165 100.66C53.4365 100.66 54.2431 100.88 54.9365 101.32C55.6431 101.747 56.1965 102.373 56.5965 103.2C56.9965 104.013 57.1965 105.013 57.1965 106.2ZM49.6165 106.2C49.6165 107.04 49.7165 107.773 49.9165 108.4C50.1165 109.013 50.4298 109.487 50.8565 109.82C51.2831 110.153 51.8298 110.32 52.4965 110.32C53.1631 110.32 53.7098 110.153 54.1365 109.82C54.5631 109.487 54.8765 109.013 55.0765 108.4C55.2898 107.773 55.3965 107.04 55.3965 106.2C55.3965 105.347 55.2898 104.62 55.0765 104.02C54.8765 103.42 54.5631 102.96 54.1365 102.64C53.7098 102.307 53.1565 102.14 52.4765 102.14C51.4765 102.14 50.7498 102.5 50.2965 103.22C49.8431 103.94 49.6165 104.933 49.6165 106.2ZM64.7027 100.66C65.9027 100.66 66.8094 100.973 67.4227 101.6C68.0494 102.213 68.3627 103.213 68.3627 104.6V111.58H66.6227V104.72C66.6227 103.853 66.4427 103.207 66.0827 102.78C65.7227 102.353 65.1694 102.14 64.4227 102.14C63.3294 102.14 62.5694 102.473 62.1427 103.14C61.7294 103.807 61.5227 104.767 61.5227 106.02V111.58H59.7827V100.86H61.1827L61.4427 102.32H61.5427C61.7561 101.947 62.0294 101.64 62.3627 101.4C62.6961 101.147 63.0627 100.96 63.4627 100.84C63.8627 100.72 64.2761 100.66 64.7027 100.66ZM78.0824 108.62C78.0824 109.313 77.9157 109.893 77.5824 110.36C77.2624 110.827 76.8024 111.18 76.2024 111.42C75.6024 111.66 74.8824 111.78 74.0424 111.78C73.3357 111.78 72.7224 111.72 72.2024 111.6C71.6957 111.48 71.2491 111.313 70.8624 111.1V109.5C71.2757 109.713 71.7691 109.913 72.3424 110.1C72.9157 110.273 73.4957 110.36 74.0824 110.36C74.8957 110.36 75.4824 110.22 75.8424 109.94C76.2157 109.647 76.4024 109.26 76.4024 108.78C76.4024 108.513 76.3291 108.273 76.1824 108.06C76.0491 107.847 75.8024 107.633 75.4424 107.42C75.0957 107.207 74.5891 106.967 73.9224 106.7C73.2824 106.433 72.7291 106.167 72.2624 105.9C71.8091 105.633 71.4557 105.313 71.2024 104.94C70.9624 104.567 70.8424 104.087 70.8424 103.5C70.8424 102.593 71.1891 101.893 71.8824 101.4C72.5891 100.907 73.5091 100.66 74.6424 100.66C75.2557 100.66 75.8291 100.727 76.3624 100.86C76.8957 100.98 77.4024 101.153 77.8824 101.38L77.3024 102.78C77.0224 102.647 76.7291 102.533 76.4224 102.44C76.1157 102.333 75.8024 102.253 75.4824 102.2C75.1757 102.133 74.8624 102.1 74.5424 102.1C73.8891 102.1 73.3891 102.22 73.0424 102.46C72.6957 102.687 72.5224 103 72.5224 103.4C72.5224 103.693 72.6024 103.947 72.7624 104.16C72.9224 104.373 73.1824 104.58 73.5424 104.78C73.9157 104.967 74.4224 105.187 75.0624 105.44C75.7024 105.693 76.2491 105.953 76.7024 106.22C77.1557 106.487 77.4957 106.813 77.7224 107.2C77.9624 107.573 78.0824 108.047 78.0824 108.62ZM89.0054 100.86V111.58H87.6054L87.3454 110.16H87.2654C87.0521 110.533 86.7721 110.84 86.4254 111.08C86.0921 111.32 85.7254 111.493 85.3254 111.6C84.9254 111.72 84.5054 111.78 84.0654 111.78C83.2654 111.78 82.5921 111.647 82.0454 111.38C81.4987 111.1 81.0854 110.673 80.8054 110.1C80.5387 109.527 80.4054 108.787 80.4054 107.88V100.86H82.1654V107.76C82.1654 108.613 82.3454 109.253 82.7054 109.68C83.0654 110.107 83.6187 110.32 84.3654 110.32C85.0987 110.32 85.6721 110.173 86.0854 109.88C86.5121 109.573 86.8121 109.133 86.9854 108.56C87.1721 107.973 87.2654 107.267 87.2654 106.44V100.86H89.0054ZM93.9055 111.58H92.1655V96.3801H93.9055V111.58ZM100.528 110.34C100.781 110.34 101.041 110.32 101.308 110.28C101.575 110.227 101.795 110.173 101.968 110.12V111.46C101.781 111.553 101.515 111.627 101.168 111.68C100.835 111.747 100.515 111.78 100.208 111.78C99.6746 111.78 99.1812 111.687 98.7279 111.5C98.2746 111.3 97.9079 110.96 97.6279 110.48C97.3612 110 97.2279 109.327 97.2279 108.46V102.22H95.8079V101.38L97.2679 100.68L97.9279 98.4001H98.9679V100.86H101.888V102.22H98.9679V108.42C98.9679 109.073 99.1146 109.56 99.4079 109.88C99.7012 110.187 100.075 110.34 100.528 110.34ZM112.782 106.2C112.782 107.093 112.669 107.887 112.442 108.58C112.229 109.26 111.916 109.84 111.502 110.32C111.089 110.8 110.589 111.167 110.002 111.42C109.416 111.66 108.762 111.78 108.042 111.78C107.376 111.78 106.756 111.66 106.182 111.42C105.622 111.167 105.129 110.8 104.702 110.32C104.289 109.84 103.969 109.26 103.742 108.58C103.516 107.887 103.402 107.093 103.402 106.2C103.402 105.013 103.589 104.013 103.962 103.2C104.349 102.373 104.896 101.747 105.602 101.32C106.309 100.88 107.142 100.66 108.102 100.66C109.022 100.66 109.829 100.88 110.522 101.32C111.229 101.747 111.782 102.373 112.182 103.2C112.582 104.013 112.782 105.013 112.782 106.2ZM105.202 106.2C105.202 107.04 105.302 107.773 105.502 108.4C105.702 109.013 106.016 109.487 106.442 109.82C106.869 110.153 107.416 110.32 108.082 110.32C108.749 110.32 109.296 110.153 109.722 109.82C110.149 109.487 110.462 109.013 110.662 108.4C110.876 107.773 110.982 107.04 110.982 106.2C110.982 105.347 110.876 104.62 110.662 104.02C110.462 103.42 110.149 102.96 109.722 102.64C109.296 102.307 108.742 102.14 108.062 102.14C107.062 102.14 106.336 102.5 105.882 103.22C105.429 103.94 105.202 104.933 105.202 106.2ZM120.149 100.66C120.335 100.66 120.535 100.673 120.749 100.7C120.962 100.713 121.149 100.74 121.309 100.78L121.109 102.4C120.949 102.36 120.769 102.327 120.569 102.3C120.382 102.273 120.202 102.26 120.029 102.26C119.642 102.26 119.275 102.347 118.929 102.52C118.582 102.693 118.269 102.94 117.989 103.26C117.722 103.567 117.509 103.94 117.349 104.38C117.189 104.82 117.109 105.313 117.109 105.86V111.58H115.369V100.86H116.789L116.989 102.82H117.069C117.282 102.42 117.535 102.06 117.829 101.74C118.135 101.407 118.482 101.147 118.869 100.96C119.255 100.76 119.682 100.66 120.149 100.66ZM124.941 100.86V111.58H123.201V100.86H124.941ZM124.081 96.8401C124.348 96.8401 124.581 96.9334 124.781 97.1201C124.981 97.2934 125.081 97.5734 125.081 97.9601C125.081 98.3334 124.981 98.6134 124.781 98.8001C124.581 98.9867 124.348 99.0801 124.081 99.0801C123.801 99.0801 123.561 98.9867 123.361 98.8001C123.161 98.6134 123.061 98.3334 123.061 97.9601C123.061 97.5734 123.161 97.2934 123.361 97.1201C123.561 96.9334 123.801 96.8401 124.081 96.8401ZM131.963 100.68C133.19 100.68 134.103 100.967 134.703 101.54C135.316 102.113 135.623 103.027 135.623 104.28V111.58H134.363L134.023 110.06H133.943C133.65 110.447 133.35 110.773 133.043 111.04C132.75 111.293 132.403 111.48 132.003 111.6C131.616 111.72 131.136 111.78 130.563 111.78C129.963 111.78 129.423 111.667 128.943 111.44C128.463 111.213 128.083 110.867 127.803 110.4C127.523 109.92 127.383 109.32 127.383 108.6C127.383 107.533 127.776 106.713 128.563 106.14C129.35 105.553 130.563 105.233 132.203 105.18L133.903 105.12V104.48C133.903 103.587 133.723 102.967 133.363 102.62C133.016 102.273 132.516 102.1 131.863 102.1C131.343 102.1 130.843 102.187 130.363 102.36C129.896 102.52 129.45 102.707 129.023 102.92L128.483 101.6C128.936 101.347 129.463 101.133 130.063 100.96C130.663 100.773 131.296 100.68 131.963 100.68ZM132.443 106.4C131.216 106.453 130.363 106.667 129.883 107.04C129.416 107.413 129.183 107.94 129.183 108.62C129.183 109.22 129.35 109.66 129.683 109.94C130.016 110.22 130.45 110.36 130.983 110.36C131.81 110.36 132.503 110.113 133.063 109.62C133.623 109.113 133.903 108.34 133.903 107.3V106.34L132.443 106.4ZM142.471 116.38C142.151 116.38 141.871 116.353 141.631 116.3C141.378 116.26 141.164 116.207 140.991 116.14V114.72C141.178 114.773 141.371 114.82 141.571 114.86C141.771 114.9 141.991 114.92 142.231 114.92C142.644 114.92 142.978 114.8 143.231 114.56C143.498 114.333 143.631 113.893 143.631 113.24V100.86H145.371V113.18C145.371 113.847 145.271 114.42 145.071 114.9C144.871 115.38 144.558 115.747 144.131 116C143.704 116.253 143.151 116.38 142.471 116.38ZM143.491 97.9601C143.491 97.5734 143.591 97.2934 143.791 97.1201C143.991 96.9334 144.231 96.8401 144.511 96.8401C144.778 96.8401 145.011 96.9334 145.211 97.1201C145.411 97.2934 145.511 97.5734 145.511 97.9601C145.511 98.3334 145.411 98.6134 145.211 98.8001C145.011 98.9867 144.778 99.0801 144.511 99.0801C144.231 99.0801 143.991 98.9867 143.791 98.8001C143.591 98.6134 143.491 98.3334 143.491 97.9601ZM157.033 100.86V111.58H155.633L155.373 110.16H155.293C155.079 110.533 154.799 110.84 154.453 111.08C154.119 111.32 153.753 111.493 153.353 111.6C152.953 111.72 152.533 111.78 152.093 111.78C151.293 111.78 150.619 111.647 150.073 111.38C149.526 111.1 149.113 110.673 148.833 110.1C148.566 109.527 148.433 108.787 148.433 107.88V100.86H150.193V107.76C150.193 108.613 150.373 109.253 150.733 109.68C151.093 110.107 151.646 110.32 152.393 110.32C153.126 110.32 153.699 110.173 154.113 109.88C154.539 109.573 154.839 109.133 155.013 108.56C155.199 107.973 155.293 107.267 155.293 106.44V100.86H157.033ZM164.973 100.66C165.16 100.66 165.36 100.673 165.573 100.7C165.786 100.713 165.973 100.74 166.133 100.78L165.933 102.4C165.773 102.36 165.593 102.327 165.393 102.3C165.206 102.273 165.026 102.26 164.853 102.26C164.466 102.26 164.1 102.347 163.753 102.52C163.406 102.693 163.093 102.94 162.813 103.26C162.546 103.567 162.333 103.94 162.173 104.38C162.013 104.82 161.933 105.313 161.933 105.86V111.58H160.193V100.86H161.613L161.813 102.82H161.893C162.106 102.42 162.36 102.06 162.653 101.74C162.96 101.407 163.306 101.147 163.693 100.96C164.08 100.76 164.506 100.66 164.973 100.66ZM169.745 111.58H168.005V100.86H169.745V111.58ZM171.825 96.4601C171.705 96.6467 171.532 96.8734 171.305 97.1401C171.092 97.4067 170.852 97.6867 170.585 97.9801C170.332 98.2601 170.072 98.5334 169.805 98.8001C169.539 99.0534 169.292 99.2734 169.065 99.4601H167.925V99.2201C168.112 98.9667 168.319 98.6667 168.545 98.3201C168.772 97.9734 168.992 97.6201 169.205 97.2601C169.419 96.8867 169.599 96.5534 169.745 96.2601H171.825V96.4601ZM176.468 111.78C175.228 111.78 174.228 111.32 173.468 110.4C172.721 109.467 172.348 108.08 172.348 106.24C172.348 104.4 172.728 103.013 173.488 102.08C174.248 101.133 175.248 100.66 176.488 100.66C177.008 100.66 177.461 100.733 177.848 100.88C178.234 101.013 178.568 101.2 178.848 101.44C179.141 101.68 179.388 101.947 179.588 102.24H179.708C179.694 102.067 179.668 101.813 179.628 101.48C179.601 101.133 179.588 100.86 179.588 100.66V96.3801H181.328V111.58H179.928L179.668 110.14H179.588C179.388 110.447 179.141 110.727 178.848 110.98C178.568 111.22 178.228 111.413 177.828 111.56C177.441 111.707 176.988 111.78 176.468 111.78ZM176.788 110.32C177.828 110.32 178.554 110.013 178.968 109.4C179.394 108.773 179.608 107.833 179.608 106.58V106.26C179.608 104.927 179.408 103.907 179.008 103.2C178.608 102.48 177.861 102.12 176.768 102.12C175.888 102.12 175.228 102.5 174.788 103.26C174.361 104.007 174.148 105.013 174.148 106.28C174.148 107.56 174.361 108.553 174.788 109.26C175.228 109.967 175.894 110.32 176.788 110.32ZM186.25 100.86V111.58H184.51V100.86H186.25ZM185.39 96.8401C185.656 96.8401 185.89 96.9334 186.09 97.1201C186.29 97.2934 186.39 97.5734 186.39 97.9601C186.39 98.3334 186.29 98.6134 186.09 98.8001C185.89 98.9867 185.656 99.0801 185.39 99.0801C185.11 99.0801 184.87 98.9867 184.67 98.8001C184.47 98.6134 184.37 98.3334 184.37 97.9601C184.37 97.5734 184.47 97.2934 184.67 97.1201C184.87 96.9334 185.11 96.8401 185.39 96.8401ZM193.472 111.78C192.565 111.78 191.765 111.587 191.072 111.2C190.378 110.813 189.832 110.213 189.432 109.4C189.045 108.587 188.852 107.547 188.852 106.28C188.852 104.96 189.058 103.887 189.472 103.06C189.885 102.233 190.445 101.627 191.152 101.24C191.872 100.853 192.685 100.66 193.592 100.66C194.112 100.66 194.612 100.72 195.092 100.84C195.585 100.947 195.985 101.08 196.292 101.24L195.752 102.7C195.445 102.58 195.085 102.467 194.672 102.36C194.272 102.253 193.898 102.2 193.552 102.2C192.898 102.2 192.358 102.353 191.932 102.66C191.505 102.967 191.185 103.42 190.972 104.02C190.758 104.62 190.652 105.367 190.652 106.26C190.652 107.113 190.758 107.84 190.972 108.44C191.185 109.04 191.498 109.493 191.912 109.8C192.338 110.107 192.858 110.26 193.472 110.26C194.018 110.26 194.505 110.2 194.932 110.08C195.358 109.96 195.752 109.813 196.112 109.64V111.2C195.765 111.387 195.385 111.527 194.972 111.62C194.558 111.727 194.058 111.78 193.472 111.78ZM202.354 100.68C203.58 100.68 204.494 100.967 205.094 101.54C205.707 102.113 206.014 103.027 206.014 104.28V111.58H204.754L204.414 110.06H204.334C204.04 110.447 203.74 110.773 203.434 111.04C203.14 111.293 202.794 111.48 202.394 111.6C202.007 111.72 201.527 111.78 200.954 111.78C200.354 111.78 199.814 111.667 199.334 111.44C198.854 111.213 198.474 110.867 198.194 110.4C197.914 109.92 197.774 109.32 197.774 108.6C197.774 107.533 198.167 106.713 198.954 106.14C199.74 105.553 200.954 105.233 202.594 105.18L204.294 105.12V104.48C204.294 103.587 204.114 102.967 203.754 102.62C203.407 102.273 202.907 102.1 202.254 102.1C201.734 102.1 201.234 102.187 200.754 102.36C200.287 102.52 199.84 102.707 199.414 102.92L198.874 101.6C199.327 101.347 199.854 101.133 200.454 100.96C201.054 100.773 201.687 100.68 202.354 100.68ZM202.834 106.4C201.607 106.453 200.754 106.667 200.274 107.04C199.807 107.413 199.574 107.94 199.574 108.62C199.574 109.22 199.74 109.66 200.074 109.94C200.407 110.22 200.84 110.36 201.374 110.36C202.2 110.36 202.894 110.113 203.454 109.62C204.014 109.113 204.294 108.34 204.294 107.3V106.34L202.834 106.4ZM211.199 109.48C211.092 109.947 210.945 110.453 210.759 111C210.585 111.547 210.392 112.087 210.179 112.62C209.979 113.167 209.779 113.68 209.579 114.16H208.299C208.419 113.653 208.539 113.107 208.659 112.52C208.779 111.947 208.892 111.38 208.999 110.82C209.105 110.247 209.185 109.727 209.239 109.26H211.059L211.199 109.48ZM223.94 100.66C225.18 100.66 226.173 101.12 226.92 102.04C227.68 102.96 228.06 104.347 228.06 106.2C228.06 107.413 227.886 108.44 227.54 109.28C227.193 110.107 226.706 110.733 226.08 111.16C225.466 111.573 224.746 111.78 223.92 111.78C223.4 111.78 222.94 111.707 222.54 111.56C222.153 111.413 221.82 111.227 221.54 111C221.26 110.76 221.02 110.5 220.82 110.22H220.7C220.726 110.447 220.753 110.733 220.78 111.08C220.806 111.427 220.82 111.727 220.82 111.98V116.38H219.08V100.86H220.5L220.74 102.32H220.82C221.02 102.013 221.26 101.733 221.54 101.48C221.82 101.227 222.153 101.027 222.54 100.88C222.94 100.733 223.406 100.66 223.94 100.66ZM223.6 102.14C222.933 102.14 222.393 102.28 221.98 102.56C221.58 102.827 221.286 103.233 221.1 103.78C220.913 104.327 220.82 105.02 220.82 105.86V106.2C220.82 107.08 220.9 107.827 221.06 108.44C221.233 109.053 221.526 109.52 221.94 109.84C222.353 110.16 222.92 110.32 223.64 110.32C224.24 110.32 224.733 110.14 225.12 109.78C225.506 109.42 225.793 108.933 225.98 108.32C226.166 107.693 226.26 106.98 226.26 106.18C226.26 104.953 226.04 103.973 225.6 103.24C225.173 102.507 224.506 102.14 223.6 102.14ZM234.582 100.66C235.448 100.66 236.195 100.86 236.822 101.26C237.448 101.66 237.928 102.227 238.262 102.96C238.608 103.68 238.782 104.527 238.782 105.5V106.56H231.902C231.928 107.773 232.215 108.7 232.762 109.34C233.308 109.967 234.075 110.28 235.062 110.28C235.702 110.28 236.268 110.22 236.762 110.1C237.268 109.967 237.788 109.78 238.322 109.54V111.08C237.802 111.32 237.288 111.493 236.782 111.6C236.288 111.72 235.688 111.78 234.982 111.78C234.022 111.78 233.175 111.573 232.442 111.16C231.708 110.747 231.135 110.133 230.722 109.32C230.308 108.493 230.102 107.487 230.102 106.3C230.102 105.127 230.288 104.12 230.662 103.28C231.035 102.44 231.555 101.793 232.222 101.34C232.902 100.887 233.688 100.66 234.582 100.66ZM234.582 102.1C233.808 102.1 233.195 102.373 232.742 102.92C232.288 103.453 232.022 104.2 231.942 105.16H236.982C236.982 104.547 236.895 104.013 236.722 103.56C236.548 103.107 236.282 102.753 235.922 102.5C235.575 102.233 235.128 102.1 234.582 102.1ZM247.926 108.62C247.926 109.313 247.759 109.893 247.426 110.36C247.106 110.827 246.646 111.18 246.046 111.42C245.446 111.66 244.726 111.78 243.886 111.78C243.179 111.78 242.566 111.72 242.046 111.6C241.539 111.48 241.093 111.313 240.706 111.1V109.5C241.119 109.713 241.613 109.913 242.186 110.1C242.759 110.273 243.339 110.36 243.926 110.36C244.739 110.36 245.326 110.22 245.686 109.94C246.059 109.647 246.246 109.26 246.246 108.78C246.246 108.513 246.173 108.273 246.026 108.06C245.893 107.847 245.646 107.633 245.286 107.42C244.939 107.207 244.433 106.967 243.766 106.7C243.126 106.433 242.573 106.167 242.106 105.9C241.653 105.633 241.299 105.313 241.046 104.94C240.806 104.567 240.686 104.087 240.686 103.5C240.686 102.593 241.033 101.893 241.726 101.4C242.433 100.907 243.353 100.66 244.486 100.66C245.099 100.66 245.673 100.727 246.206 100.86C246.739 100.98 247.246 101.153 247.726 101.38L247.146 102.78C246.866 102.647 246.573 102.533 246.266 102.44C245.959 102.333 245.646 102.253 245.326 102.2C245.019 102.133 244.706 102.1 244.386 102.1C243.733 102.1 243.233 102.22 242.886 102.46C242.539 102.687 242.366 103 242.366 103.4C242.366 103.693 242.446 103.947 242.606 104.16C242.766 104.373 243.026 104.58 243.386 104.78C243.759 104.967 244.266 105.187 244.906 105.44C245.546 105.693 246.093 105.953 246.546 106.22C246.999 106.487 247.339 106.813 247.566 107.2C247.806 107.573 247.926 108.047 247.926 108.62ZM257.029 111.8C257.029 111.56 257.036 111.28 257.049 110.96C257.062 110.64 257.089 110.367 257.129 110.14H257.009C256.716 110.593 256.316 110.98 255.809 111.3C255.316 111.62 254.669 111.78 253.869 111.78C252.656 111.78 251.669 111.32 250.909 110.4C250.162 109.467 249.789 108.08 249.789 106.24C249.789 105.013 249.962 103.987 250.309 103.16C250.656 102.333 251.142 101.713 251.769 101.3C252.396 100.873 253.116 100.66 253.929 100.66C254.716 100.66 255.356 100.82 255.849 101.14C256.356 101.46 256.756 101.853 257.049 102.32H257.129L257.369 100.86H258.769V116.38H257.029V111.8ZM254.249 110.32C254.929 110.32 255.469 110.187 255.869 109.92C256.282 109.653 256.582 109.247 256.769 108.7C256.956 108.14 257.049 107.447 257.049 106.62V106.26C257.049 104.9 256.842 103.873 256.429 103.18C256.016 102.473 255.276 102.12 254.209 102.12C253.316 102.12 252.656 102.5 252.229 103.26C251.802 104.007 251.589 105.013 251.589 106.28C251.589 107.547 251.802 108.54 252.229 109.26C252.669 109.967 253.342 110.32 254.249 110.32ZM270.431 100.86V111.58H269.031L268.771 110.16H268.691C268.478 110.533 268.198 110.84 267.851 111.08C267.518 111.32 267.151 111.493 266.751 111.6C266.351 111.72 265.931 111.78 265.491 111.78C264.691 111.78 264.018 111.647 263.471 111.38C262.924 111.1 262.511 110.673 262.231 110.1C261.964 109.527 261.831 108.787 261.831 107.88V100.86H263.591V107.76C263.591 108.613 263.771 109.253 264.131 109.68C264.491 110.107 265.044 110.32 265.791 110.32C266.524 110.32 267.098 110.173 267.511 109.88C267.938 109.573 268.238 109.133 268.411 108.56C268.598 107.973 268.691 107.267 268.691 106.44V100.86H270.431ZM275.351 100.86V111.58H273.611V100.86H275.351ZM274.491 96.8401C274.758 96.8401 274.991 96.9334 275.191 97.1201C275.391 97.2934 275.491 97.5734 275.491 97.9601C275.491 98.3334 275.391 98.6134 275.191 98.8001C274.991 98.9867 274.758 99.0801 274.491 99.0801C274.211 99.0801 273.971 98.9867 273.771 98.8001C273.571 98.6134 273.471 98.3334 273.471 97.9601C273.471 97.5734 273.571 97.2934 273.771 97.1201C273.971 96.9334 274.211 96.8401 274.491 96.8401ZM285.133 108.62C285.133 109.313 284.967 109.893 284.633 110.36C284.313 110.827 283.853 111.18 283.253 111.42C282.653 111.66 281.933 111.78 281.093 111.78C280.387 111.78 279.773 111.72 279.253 111.6C278.747 111.48 278.3 111.313 277.913 111.1V109.5C278.327 109.713 278.82 109.913 279.393 110.1C279.967 110.273 280.547 110.36 281.133 110.36C281.947 110.36 282.533 110.22 282.893 109.94C283.267 109.647 283.453 109.26 283.453 108.78C283.453 108.513 283.38 108.273 283.233 108.06C283.1 107.847 282.853 107.633 282.493 107.42C282.147 107.207 281.64 106.967 280.973 106.7C280.333 106.433 279.78 106.167 279.313 105.9C278.86 105.633 278.507 105.313 278.253 104.94C278.013 104.567 277.893 104.087 277.893 103.5C277.893 102.593 278.24 101.893 278.933 101.4C279.64 100.907 280.56 100.66 281.693 100.66C282.307 100.66 282.88 100.727 283.413 100.86C283.947 100.98 284.453 101.153 284.933 101.38L284.353 102.78C284.073 102.647 283.78 102.533 283.473 102.44C283.167 102.333 282.853 102.253 282.533 102.2C282.227 102.133 281.913 102.1 281.593 102.1C280.94 102.1 280.44 102.22 280.093 102.46C279.747 102.687 279.573 103 279.573 103.4C279.573 103.693 279.653 103.947 279.813 104.16C279.973 104.373 280.233 104.58 280.593 104.78C280.967 104.967 281.473 105.187 282.113 105.44C282.753 105.693 283.3 105.953 283.753 106.22C284.207 106.487 284.547 106.813 284.773 107.2C285.013 107.573 285.133 108.047 285.133 108.62ZM291.416 100.68C292.643 100.68 293.556 100.967 294.156 101.54C294.769 102.113 295.076 103.027 295.076 104.28V111.58H293.816L293.476 110.06H293.396C293.103 110.447 292.803 110.773 292.496 111.04C292.203 111.293 291.856 111.48 291.456 111.6C291.069 111.72 290.589 111.78 290.016 111.78C289.416 111.78 288.876 111.667 288.396 111.44C287.916 111.213 287.536 110.867 287.256 110.4C286.976 109.92 286.836 109.32 286.836 108.6C286.836 107.533 287.229 106.713 288.016 106.14C288.803 105.553 290.016 105.233 291.656 105.18L293.356 105.12V104.48C293.356 103.587 293.176 102.967 292.816 102.62C292.469 102.273 291.969 102.1 291.316 102.1C290.796 102.1 290.296 102.187 289.816 102.36C289.349 102.52 288.903 102.707 288.476 102.92L287.936 101.6C288.389 101.347 288.916 101.133 289.516 100.96C290.116 100.773 290.749 100.68 291.416 100.68ZM291.896 106.4C290.669 106.453 289.816 106.667 289.336 107.04C288.869 107.413 288.636 107.94 288.636 108.62C288.636 109.22 288.803 109.66 289.136 109.94C289.469 110.22 289.903 110.36 290.436 110.36C291.263 110.36 291.956 110.113 292.516 109.62C293.076 109.113 293.356 108.34 293.356 107.3V106.34L291.896 106.4ZM306.984 100.66C307.851 100.66 308.597 100.86 309.224 101.26C309.851 101.66 310.331 102.227 310.664 102.96C311.011 103.68 311.184 104.527 311.184 105.5V106.56H304.304C304.331 107.773 304.617 108.7 305.164 109.34C305.711 109.967 306.477 110.28 307.464 110.28C308.104 110.28 308.671 110.22 309.164 110.1C309.671 109.967 310.191 109.78 310.724 109.54V111.08C310.204 111.32 309.691 111.493 309.184 111.6C308.691 111.72 308.091 111.78 307.384 111.78C306.424 111.78 305.577 111.573 304.844 111.16C304.111 110.747 303.537 110.133 303.124 109.32C302.711 108.493 302.504 107.487 302.504 106.3C302.504 105.127 302.691 104.12 303.064 103.28C303.437 102.44 303.957 101.793 304.624 101.34C305.304 100.887 306.091 100.66 306.984 100.66ZM306.984 102.1C306.211 102.1 305.597 102.373 305.144 102.92C304.691 103.453 304.424 104.2 304.344 105.16H309.384C309.384 104.547 309.297 104.013 309.124 103.56C308.951 103.107 308.684 102.753 308.324 102.5C307.977 102.233 307.531 102.1 306.984 102.1ZM135.287 129.66C136.527 129.66 137.521 130.12 138.267 131.04C139.027 131.96 139.407 133.347 139.407 135.2C139.407 136.413 139.234 137.44 138.887 138.28C138.541 139.107 138.054 139.733 137.427 140.16C136.814 140.573 136.094 140.78 135.267 140.78C134.747 140.78 134.287 140.707 133.887 140.56C133.501 140.413 133.167 140.227 132.887 140C132.607 139.76 132.367 139.5 132.167 139.22H132.047C132.074 139.447 132.101 139.733 132.127 140.08C132.154 140.427 132.167 140.727 132.167 140.98V145.38H130.427V129.86H131.847L132.087 131.32H132.167C132.367 131.013 132.607 130.733 132.887 130.48C133.167 130.227 133.501 130.027 133.887 129.88C134.287 129.733 134.754 129.66 135.287 129.66ZM134.947 131.14C134.281 131.14 133.741 131.28 133.327 131.56C132.927 131.827 132.634 132.233 132.447 132.78C132.261 133.327 132.167 134.02 132.167 134.86V135.2C132.167 136.08 132.247 136.827 132.407 137.44C132.581 138.053 132.874 138.52 133.287 138.84C133.701 139.16 134.267 139.32 134.987 139.32C135.587 139.32 136.081 139.14 136.467 138.78C136.854 138.42 137.141 137.933 137.327 137.32C137.514 136.693 137.607 135.98 137.607 135.18C137.607 133.953 137.387 132.973 136.947 132.24C136.521 131.507 135.854 131.14 134.947 131.14ZM146.789 129.66C146.976 129.66 147.176 129.673 147.389 129.7C147.603 129.713 147.789 129.74 147.949 129.78L147.749 131.4C147.589 131.36 147.409 131.327 147.209 131.3C147.023 131.273 146.843 131.26 146.669 131.26C146.283 131.26 145.916 131.347 145.569 131.52C145.223 131.693 144.909 131.94 144.629 132.26C144.363 132.567 144.149 132.94 143.989 133.38C143.829 133.82 143.749 134.313 143.749 134.86V140.58H142.009V129.86H143.429L143.629 131.82H143.709C143.923 131.42 144.176 131.06 144.469 130.74C144.776 130.407 145.123 130.147 145.509 129.96C145.896 129.76 146.323 129.66 146.789 129.66ZM153.371 129.66C154.237 129.66 154.984 129.86 155.611 130.26C156.237 130.66 156.717 131.227 157.051 131.96C157.397 132.68 157.571 133.527 157.571 134.5V135.56H150.691C150.717 136.773 151.004 137.7 151.551 138.34C152.097 138.967 152.864 139.28 153.851 139.28C154.491 139.28 155.057 139.22 155.551 139.1C156.057 138.967 156.577 138.78 157.111 138.54V140.08C156.591 140.32 156.077 140.493 155.571 140.6C155.077 140.72 154.477 140.78 153.771 140.78C152.811 140.78 151.964 140.573 151.231 140.16C150.497 139.747 149.924 139.133 149.511 138.32C149.097 137.493 148.891 136.487 148.891 135.3C148.891 134.127 149.077 133.12 149.451 132.28C149.824 131.44 150.344 130.793 151.011 130.34C151.691 129.887 152.477 129.66 153.371 129.66ZM153.371 131.1C152.597 131.1 151.984 131.373 151.531 131.92C151.077 132.453 150.811 133.2 150.731 134.16H155.771C155.771 133.547 155.684 133.013 155.511 132.56C155.337 132.107 155.071 131.753 154.711 131.5C154.364 131.233 153.917 131.1 153.371 131.1ZM166.715 137.62C166.715 138.313 166.549 138.893 166.215 139.36C165.895 139.827 165.435 140.18 164.835 140.42C164.235 140.66 163.515 140.78 162.675 140.78C161.969 140.78 161.355 140.72 160.835 140.6C160.329 140.48 159.882 140.313 159.495 140.1V138.5C159.909 138.713 160.402 138.913 160.975 139.1C161.549 139.273 162.129 139.36 162.715 139.36C163.529 139.36 164.115 139.22 164.475 138.94C164.849 138.647 165.035 138.26 165.035 137.78C165.035 137.513 164.962 137.273 164.815 137.06C164.682 136.847 164.435 136.633 164.075 136.42C163.729 136.207 163.222 135.967 162.555 135.7C161.915 135.433 161.362 135.167 160.895 134.9C160.442 134.633 160.089 134.313 159.835 133.94C159.595 133.567 159.475 133.087 159.475 132.5C159.475 131.593 159.822 130.893 160.515 130.4C161.222 129.907 162.142 129.66 163.275 129.66C163.889 129.66 164.462 129.727 164.995 129.86C165.529 129.98 166.035 130.153 166.515 130.38L165.935 131.78C165.655 131.647 165.362 131.533 165.055 131.44C164.749 131.333 164.435 131.253 164.115 131.2C163.809 131.133 163.495 131.1 163.175 131.1C162.522 131.1 162.022 131.22 161.675 131.46C161.329 131.687 161.155 132 161.155 132.4C161.155 132.693 161.235 132.947 161.395 133.16C161.555 133.373 161.815 133.58 162.175 133.78C162.549 133.967 163.055 134.187 163.695 134.44C164.335 134.693 164.882 134.953 165.335 135.22C165.789 135.487 166.129 135.813 166.355 136.2C166.595 136.573 166.715 137.047 166.715 137.62ZM173.058 129.66C173.925 129.66 174.672 129.86 175.298 130.26C175.925 130.66 176.405 131.227 176.738 131.96C177.085 132.68 177.258 133.527 177.258 134.5V135.56H170.378C170.405 136.773 170.692 137.7 171.238 138.34C171.785 138.967 172.552 139.28 173.538 139.28C174.178 139.28 174.745 139.22 175.238 139.1C175.745 138.967 176.265 138.78 176.798 138.54V140.08C176.278 140.32 175.765 140.493 175.258 140.6C174.765 140.72 174.165 140.78 173.458 140.78C172.498 140.78 171.652 140.573 170.918 140.16C170.185 139.747 169.612 139.133 169.198 138.32C168.785 137.493 168.578 136.487 168.578 135.3C168.578 134.127 168.765 133.12 169.138 132.28C169.512 131.44 170.032 130.793 170.698 130.34C171.378 129.887 172.165 129.66 173.058 129.66ZM173.058 131.1C172.285 131.1 171.672 131.373 171.218 131.92C170.765 132.453 170.498 133.2 170.418 134.16H175.458C175.458 133.547 175.372 133.013 175.198 132.56C175.025 132.107 174.758 131.753 174.398 131.5C174.052 131.233 173.605 131.1 173.058 131.1ZM184.703 129.66C185.903 129.66 186.809 129.973 187.423 130.6C188.049 131.213 188.363 132.213 188.363 133.6V140.58H186.623V133.72C186.623 132.853 186.443 132.207 186.083 131.78C185.723 131.353 185.169 131.14 184.423 131.14C183.329 131.14 182.569 131.473 182.143 132.14C181.729 132.807 181.523 133.767 181.523 135.02V140.58H179.783V129.86H181.183L181.443 131.32H181.543C181.756 130.947 182.029 130.64 182.363 130.4C182.696 130.147 183.063 129.96 183.463 129.84C183.863 129.72 184.276 129.66 184.703 129.66ZM195.522 140.78C194.616 140.78 193.816 140.587 193.122 140.2C192.429 139.813 191.882 139.213 191.482 138.4C191.096 137.587 190.902 136.547 190.902 135.28C190.902 133.96 191.109 132.887 191.522 132.06C191.936 131.233 192.496 130.627 193.202 130.24C193.922 129.853 194.736 129.66 195.642 129.66C196.162 129.66 196.662 129.72 197.142 129.84C197.636 129.947 198.036 130.08 198.342 130.24L197.802 131.7C197.496 131.58 197.136 131.467 196.722 131.36C196.322 131.253 195.949 131.2 195.602 131.2C194.949 131.2 194.409 131.353 193.982 131.66C193.556 131.967 193.236 132.42 193.022 133.02C192.809 133.62 192.702 134.367 192.702 135.26C192.702 136.113 192.809 136.84 193.022 137.44C193.236 138.04 193.549 138.493 193.962 138.8C194.389 139.107 194.909 139.26 195.522 139.26C196.069 139.26 196.556 139.2 196.982 139.08C197.409 138.96 197.802 138.813 198.162 138.64V140.2C197.816 140.387 197.436 140.527 197.022 140.62C196.609 140.727 196.109 140.78 195.522 140.78ZM197.262 143.36C197.262 143.787 197.156 144.147 196.942 144.44C196.742 144.747 196.436 144.98 196.022 145.14C195.622 145.3 195.109 145.38 194.482 145.38C194.282 145.38 194.096 145.367 193.922 145.34C193.749 145.327 193.609 145.307 193.502 145.28V144.18C193.622 144.207 193.776 144.227 193.962 144.24C194.162 144.267 194.349 144.28 194.522 144.28C194.949 144.28 195.276 144.213 195.502 144.08C195.742 143.96 195.862 143.733 195.862 143.4C195.862 143.053 195.702 142.8 195.382 142.64C195.062 142.48 194.656 142.367 194.162 142.3L194.962 140.58H196.102L195.642 141.64C195.936 141.707 196.202 141.807 196.442 141.94C196.696 142.087 196.896 142.273 197.042 142.5C197.189 142.727 197.262 143.013 197.262 143.36ZM204.404 129.68C205.631 129.68 206.544 129.967 207.144 130.54C207.758 131.113 208.064 132.027 208.064 133.28V140.58H206.804L206.464 139.06H206.384C206.091 139.447 205.791 139.773 205.484 140.04C205.191 140.293 204.844 140.48 204.444 140.6C204.058 140.72 203.578 140.78 203.004 140.78C202.404 140.78 201.864 140.667 201.384 140.44C200.904 140.213 200.524 139.867 200.244 139.4C199.964 138.92 199.824 138.32 199.824 137.6C199.824 136.533 200.218 135.713 201.004 135.14C201.791 134.553 203.004 134.233 204.644 134.18L206.344 134.12V133.48C206.344 132.587 206.164 131.967 205.804 131.62C205.458 131.273 204.958 131.1 204.304 131.1C203.784 131.1 203.284 131.187 202.804 131.36C202.338 131.52 201.891 131.707 201.464 131.92L200.924 130.6C201.378 130.347 201.904 130.133 202.504 129.96C203.104 129.773 203.738 129.68 204.404 129.68ZM204.884 135.4C203.658 135.453 202.804 135.667 202.324 136.04C201.858 136.413 201.624 136.94 201.624 137.62C201.624 138.22 201.791 138.66 202.124 138.94C202.458 139.22 202.891 139.36 203.424 139.36C204.251 139.36 204.944 139.113 205.504 138.62C206.064 138.113 206.344 137.34 206.344 136.3V135.34L204.884 135.4ZM214.529 135.1C214.529 136.167 214.429 137.213 214.229 138.24C214.043 139.267 213.743 140.24 213.329 141.16C212.929 142.093 212.409 142.953 211.769 143.74H210.169C210.743 142.9 211.223 142.007 211.609 141.06C211.996 140.127 212.289 139.153 212.489 138.14C212.689 137.127 212.789 136.107 212.789 135.08C212.789 134.027 212.689 132.987 212.489 131.96C212.289 130.933 211.996 129.94 211.609 128.98C211.223 128.02 210.736 127.127 210.149 126.3H211.769C212.409 127.1 212.929 127.973 213.329 128.92C213.743 129.867 214.043 130.86 214.229 131.9C214.429 132.94 214.529 134.007 214.529 135.1Z" fill="#667085"/>
</svg>
