<svg width="342" height="253" viewBox="0 0 342 253" fill="none" xmlns="http://www.w3.org/2000/svg">
<path d="M105.131 27.6118C107.093 27.6118 108.821 28.0009 110.315 28.7793C111.809 29.5576 112.977 30.694 113.817 32.1884C114.689 33.6516 115.125 35.4574 115.125 37.6056C115.125 39.9717 114.658 42.0109 113.724 43.7233C112.79 45.4356 111.405 46.7588 109.568 47.6928C107.762 48.5956 105.505 49.0471 102.796 49.0471C101.146 49.0471 99.5896 48.8914 98.1263 48.5801C96.663 48.2687 95.4021 47.8173 94.3436 47.2258V41.9954C95.4332 42.618 96.7408 43.1317 98.2664 43.5365C99.7919 43.9412 101.224 44.1436 102.563 44.1436C103.87 44.1436 104.991 43.9412 105.925 43.5365C106.859 43.1006 107.575 42.4468 108.073 41.5751C108.572 40.6722 108.821 39.5358 108.821 38.166C108.821 36.298 108.291 34.8814 107.233 33.9163C106.174 32.9511 104.54 32.4686 102.329 32.4686C101.52 32.4686 100.664 32.5464 99.7608 32.7021C98.8579 32.8577 98.1107 33.0134 97.5192 33.1691L94.9507 31.7681L96.1649 15.2363H112.977V20.3733H101.535L100.928 28.0788C101.426 27.9854 101.987 27.892 102.609 27.7986C103.263 27.674 104.104 27.6118 105.131 27.6118ZM139.877 29.4798C139.877 31.4723 139.721 33.4337 139.41 35.364C139.13 37.2631 138.647 39.0377 137.962 40.6878C137.277 42.3378 136.343 43.8011 135.16 45.0776C134.008 46.3229 132.529 47.3036 130.724 48.0197C128.949 48.7046 126.816 49.0471 124.326 49.0471C123.703 49.0471 122.987 49.0159 122.178 48.9537C121.368 48.8914 120.683 48.798 120.123 48.6735V43.8167C120.683 43.9723 121.29 44.0969 121.944 44.1903C122.629 44.2837 123.283 44.3304 123.905 44.3304C125.867 44.3304 127.486 44.0502 128.762 43.4898C130.039 42.8982 131.051 42.0888 131.798 41.0614C132.576 40.0028 133.121 38.7731 133.432 37.3721C133.775 35.9399 133.977 34.4144 134.039 32.7955H133.759C133.354 33.5115 132.856 34.1653 132.265 34.7569C131.673 35.3484 130.942 35.8154 130.07 36.1579C129.198 36.5003 128.093 36.6716 126.754 36.6716C124.98 36.6716 123.438 36.2668 122.131 35.4574C120.854 34.6479 119.858 33.4804 119.142 31.9549C118.426 30.3982 118.068 28.5146 118.068 26.3042C118.068 23.9069 118.488 21.8521 119.329 20.1398C120.201 18.3963 121.415 17.0731 122.971 16.1703C124.528 15.2363 126.396 14.7693 128.575 14.7693C130.163 14.7693 131.642 15.0806 133.012 15.7033C134.382 16.2948 135.58 17.1977 136.608 18.4119C137.635 19.5949 138.429 21.1205 138.99 22.9885C139.581 24.8253 139.877 26.9891 139.877 29.4798ZM128.669 19.5794C127.33 19.5794 126.225 20.1242 125.353 21.2139C124.513 22.3035 124.092 23.9692 124.092 26.2108C124.092 28.0165 124.45 29.4486 125.166 30.5072C125.914 31.5346 127.019 32.0483 128.482 32.0483C129.541 32.0483 130.443 31.7992 131.191 31.3011C131.969 30.7718 132.56 30.118 132.965 29.3397C133.401 28.5613 133.619 27.7363 133.619 26.8646C133.619 25.9617 133.51 25.0744 133.292 24.2027C133.105 23.3309 132.81 22.5526 132.405 21.8677C132 21.1827 131.471 20.6379 130.817 20.2332C130.194 19.7973 129.478 19.5794 128.669 19.5794ZM145.808 48.5801L157.67 20.3266H142.259V15.2363H164.302V19.2058L152.393 48.5801H145.808ZM167.571 45.5913C167.571 44.2837 167.914 43.3652 168.599 42.836C169.315 42.2756 170.171 41.9954 171.167 41.9954C172.164 41.9954 173.004 42.26 173.689 42.7893C174.405 43.3185 174.763 44.2525 174.763 45.5913C174.763 46.8677 174.405 47.7862 173.689 48.3466C173.004 48.907 172.164 49.1872 171.167 49.1872C170.171 49.1872 169.315 48.907 168.599 48.3466C167.914 47.7862 167.571 46.8677 167.571 45.5913ZM181.519 48.5801L193.381 20.3266H177.97V15.2363H200.013V19.2058L188.104 48.5801H181.519ZM223.083 22.8484C223.083 24.3428 222.787 25.6504 222.196 26.7712C221.604 27.892 220.795 28.8104 219.767 29.5265C218.771 30.2114 217.619 30.7095 216.312 31.0209V31.161C218.833 31.4723 220.733 32.2973 222.009 33.6361C223.317 34.9748 223.97 36.7494 223.97 38.9599C223.97 40.8901 223.535 42.618 222.663 44.1436C221.791 45.6691 220.421 46.8677 218.553 47.7395C216.716 48.6112 214.335 49.0471 211.408 49.0471C209.633 49.0471 208.03 48.8914 206.598 48.5801C205.166 48.2999 203.78 47.8484 202.442 47.2258V42.0421C203.812 42.7581 205.228 43.303 206.691 43.6766C208.155 44.0502 209.525 44.237 210.801 44.237C213.229 44.237 214.942 43.7544 215.938 42.7893C216.934 41.793 217.432 40.4231 217.432 38.6797C217.432 37.5589 217.168 36.6404 216.638 35.9244C216.14 35.2083 215.331 34.679 214.21 34.3366C213.12 33.963 211.626 33.7762 209.727 33.7762H207.298V29.0595H209.774C211.517 29.0595 212.902 28.8415 213.93 28.4057C214.988 27.9698 215.751 27.3627 216.218 26.5844C216.685 25.806 216.919 24.9032 216.919 23.8758C216.919 22.537 216.514 21.4941 215.704 20.7469C214.926 19.9997 213.79 19.6261 212.295 19.6261C211.299 19.6261 210.365 19.7506 209.493 19.9997C208.622 20.2487 207.843 20.5756 207.158 20.9804C206.473 21.354 205.866 21.7587 205.337 22.1946L202.535 18.1317C203.345 17.509 204.247 16.9486 205.244 16.4505C206.271 15.9212 207.407 15.5165 208.653 15.2363C209.898 14.9249 211.299 14.7693 212.856 14.7693C216.125 14.7693 218.647 15.5009 220.421 16.9642C222.196 18.3963 223.083 20.3577 223.083 22.8484ZM247.414 22.8484C247.414 24.3428 247.119 25.6504 246.527 26.7712C245.936 27.892 245.126 28.8104 244.099 29.5265C243.103 30.2114 241.951 30.7095 240.643 31.0209V31.161C243.165 31.4723 245.064 32.2973 246.34 33.6361C247.648 34.9748 248.302 36.7494 248.302 38.9599C248.302 40.8901 247.866 42.618 246.994 44.1436C246.122 45.6691 244.753 46.8677 242.885 47.7395C241.048 48.6112 238.666 49.0471 235.739 49.0471C233.965 49.0471 232.362 48.8914 230.929 48.5801C229.497 48.2999 228.112 47.8484 226.773 47.2258V42.0421C228.143 42.7581 229.56 43.303 231.023 43.6766C232.486 44.0502 233.856 44.237 235.132 44.237C237.561 44.237 239.273 43.7544 240.269 42.7893C241.266 41.793 241.764 40.4231 241.764 38.6797C241.764 37.5589 241.499 36.6404 240.97 35.9244C240.472 35.2083 239.662 34.679 238.541 34.3366C237.452 33.963 235.957 33.7762 234.058 33.7762H231.63V29.0595H234.105C235.848 29.0595 237.234 28.8415 238.261 28.4057C239.32 27.9698 240.083 27.3627 240.55 26.5844C241.017 25.806 241.25 24.9032 241.25 23.8758C241.25 22.537 240.845 21.4941 240.036 20.7469C239.258 19.9997 238.121 19.6261 236.627 19.6261C235.631 19.6261 234.697 19.7506 233.825 19.9997C232.953 20.2487 232.175 20.5756 231.49 20.9804C230.805 21.354 230.198 21.7587 229.668 22.1946L226.866 18.1317C227.676 17.509 228.579 16.9486 229.575 16.4505C230.602 15.9212 231.739 15.5165 232.984 15.2363C234.23 14.9249 235.631 14.7693 237.187 14.7693C240.456 14.7693 242.978 15.5009 244.753 16.9642C246.527 18.3963 247.414 20.3577 247.414 22.8484Z" fill="#834781"/>
<path d="M46.8871 69.6801C46.1805 69.6801 45.5471 69.8134 44.9871 70.0801C44.4271 70.3334 43.9471 70.7134 43.5471 71.2201C43.1605 71.7134 42.8605 72.3201 42.6471 73.0401C42.4471 73.7467 42.3471 74.5467 42.3471 75.4401C42.3471 76.6134 42.5138 77.6334 42.8471 78.5001C43.1805 79.3667 43.6805 80.0334 44.3471 80.5001C45.0271 80.9667 45.8671 81.2001 46.8671 81.2001C47.4538 81.2001 48.0071 81.1467 48.5271 81.0401C49.0605 80.9334 49.5871 80.8001 50.1071 80.6401V82.2001C49.6005 82.4001 49.0805 82.5467 48.5471 82.6401C48.0138 82.7334 47.3738 82.7801 46.6271 82.7801C45.2538 82.7801 44.1071 82.4801 43.1871 81.8801C42.2805 81.2801 41.6005 80.4267 41.1471 79.3201C40.6938 78.2134 40.4671 76.9134 40.4671 75.4201C40.4671 74.3401 40.6071 73.3534 40.8871 72.4601C41.1671 71.5667 41.5805 70.7934 42.1271 70.1401C42.6738 69.4867 43.3471 68.9867 44.1471 68.6401C44.9471 68.2801 45.8671 68.1001 46.9071 68.1001C47.5871 68.1001 48.2471 68.1734 48.8871 68.3201C49.5271 68.4667 50.1071 68.6734 50.6271 68.9401L49.9271 70.4601C49.5138 70.2601 49.0471 70.0801 48.5271 69.9201C48.0205 69.7601 47.4738 69.6801 46.8871 69.6801ZM57.5621 71.6601C57.7488 71.6601 57.9488 71.6734 58.1621 71.7001C58.3755 71.7134 58.5621 71.7401 58.7221 71.7801L58.5221 73.4001C58.3621 73.3601 58.1821 73.3267 57.9821 73.3001C57.7955 73.2734 57.6155 73.2601 57.4421 73.2601C57.0555 73.2601 56.6888 73.3467 56.3421 73.5201C55.9955 73.6934 55.6821 73.9401 55.4021 74.2601C55.1355 74.5667 54.9221 74.9401 54.7621 75.3801C54.6021 75.8201 54.5221 76.3134 54.5221 76.8601V82.5801H52.7821V71.8601H54.2021L54.4021 73.8201H54.4821C54.6955 73.4201 54.9488 73.0601 55.2421 72.7401C55.5488 72.4067 55.8955 72.1467 56.2821 71.9601C56.6688 71.7601 57.0955 71.6601 57.5621 71.6601ZM62.3546 71.8601V82.5801H60.6146V71.8601H62.3546ZM61.4946 67.8401C61.7613 67.8401 61.9946 67.9334 62.1946 68.1201C62.3946 68.2934 62.4946 68.5734 62.4946 68.9601C62.4946 69.3334 62.3946 69.6134 62.1946 69.8001C61.9946 69.9867 61.7613 70.0801 61.4946 70.0801C61.2146 70.0801 60.9746 69.9867 60.7746 69.8001C60.5746 69.6134 60.4746 69.3334 60.4746 68.9601C60.4746 68.5734 60.5746 68.2934 60.7746 68.1201C60.9746 67.9334 61.2146 67.8401 61.4946 67.8401ZM72.1365 79.6201C72.1365 80.3134 71.9698 80.8934 71.6365 81.3601C71.3165 81.8267 70.8565 82.1801 70.2565 82.4201C69.6565 82.6601 68.9365 82.7801 68.0965 82.7801C67.3898 82.7801 66.7765 82.7201 66.2565 82.6001C65.7498 82.4801 65.3032 82.3134 64.9165 82.1001V80.5001C65.3298 80.7134 65.8232 80.9134 66.3965 81.1001C66.9698 81.2734 67.5498 81.3601 68.1365 81.3601C68.9498 81.3601 69.5365 81.2201 69.8965 80.9401C70.2698 80.6467 70.4565 80.2601 70.4565 79.7801C70.4565 79.5134 70.3832 79.2734 70.2365 79.0601C70.1032 78.8467 69.8565 78.6334 69.4965 78.4201C69.1498 78.2067 68.6432 77.9667 67.9765 77.7001C67.3365 77.4334 66.7832 77.1667 66.3165 76.9001C65.8632 76.6334 65.5098 76.3134 65.2565 75.9401C65.0165 75.5667 64.8965 75.0867 64.8965 74.5001C64.8965 73.5934 65.2432 72.8934 65.9365 72.4001C66.6432 71.9067 67.5632 71.6601 68.6965 71.6601C69.3098 71.6601 69.8832 71.7267 70.4165 71.8601C70.9498 71.9801 71.4565 72.1534 71.9365 72.3801L71.3565 73.7801C71.0765 73.6467 70.7832 73.5334 70.4765 73.4401C70.1698 73.3334 69.8565 73.2534 69.5365 73.2001C69.2298 73.1334 68.9165 73.1001 68.5965 73.1001C67.9432 73.1001 67.4432 73.2201 67.0965 73.4601C66.7498 73.6867 66.5765 74.0001 66.5765 74.4001C66.5765 74.6934 66.6565 74.9467 66.8165 75.1601C66.9765 75.3734 67.2365 75.5801 67.5965 75.7801C67.9698 75.9667 68.4765 76.1867 69.1165 76.4401C69.7565 76.6934 70.3032 76.9534 70.7565 77.2201C71.2098 77.4867 71.5498 77.8134 71.7765 78.2001C72.0165 78.5734 72.1365 79.0467 72.1365 79.6201ZM78.0195 81.3401C78.2728 81.3401 78.5328 81.3201 78.7995 81.2801C79.0661 81.2267 79.2861 81.1734 79.4595 81.1201V82.4601C79.2728 82.5534 79.0061 82.6267 78.6595 82.6801C78.3261 82.7467 78.0061 82.7801 77.6995 82.7801C77.1661 82.7801 76.6728 82.6867 76.2195 82.5001C75.7661 82.3001 75.3995 81.9601 75.1195 81.4801C74.8528 81.0001 74.7195 80.3267 74.7195 79.4601V73.2201H73.2995V72.3801L74.7595 71.6801L75.4195 69.4001H76.4595V71.8601H79.3795V73.2201H76.4595V79.4201C76.4595 80.0734 76.6061 80.5601 76.8995 80.8801C77.1928 81.1867 77.5661 81.3401 78.0195 81.3401ZM85.314 71.6801C86.5407 71.6801 87.454 71.9667 88.054 72.5401C88.6673 73.1134 88.974 74.0267 88.974 75.2801V82.5801H87.714L87.374 81.0601H87.294C87.0007 81.4467 86.7007 81.7734 86.394 82.0401C86.1007 82.2934 85.754 82.4801 85.354 82.6001C84.9673 82.7201 84.4873 82.7801 83.914 82.7801C83.314 82.7801 82.774 82.6667 82.294 82.4401C81.814 82.2134 81.434 81.8667 81.154 81.4001C80.874 80.9201 80.734 80.3201 80.734 79.6001C80.734 78.5334 81.1273 77.7134 81.914 77.1401C82.7007 76.5534 83.914 76.2334 85.554 76.1801L87.254 76.1201V75.4801C87.254 74.5867 87.074 73.9667 86.714 73.6201C86.3673 73.2734 85.8673 73.1001 85.214 73.1001C84.694 73.1001 84.194 73.1867 83.714 73.3601C83.2473 73.5201 82.8007 73.7067 82.374 73.9201L81.834 72.6001C82.2873 72.3467 82.814 72.1334 83.414 71.9601C84.014 71.7734 84.6473 71.6801 85.314 71.6801ZM85.794 77.4001C84.5673 77.4534 83.714 77.6667 83.234 78.0401C82.7673 78.4134 82.534 78.9401 82.534 79.6201C82.534 80.2201 82.7007 80.6601 83.034 80.9401C83.3673 81.2201 83.8007 81.3601 84.334 81.3601C85.1607 81.3601 85.854 81.1134 86.414 80.6201C86.974 80.1134 87.254 79.3401 87.254 78.3001V77.3401L85.794 77.4001ZM81.714 70.4601C81.754 70.0601 81.8273 69.7067 81.934 69.4001C82.054 69.0801 82.2007 68.8134 82.374 68.6001C82.5473 68.3734 82.754 68.2001 82.994 68.0801C83.2473 67.9601 83.5207 67.9001 83.814 67.9001C84.094 67.9001 84.3607 67.9601 84.614 68.0801C84.8673 68.1867 85.114 68.3201 85.354 68.4801C85.594 68.6267 85.8207 68.7601 86.034 68.8801C86.2607 68.9867 86.474 69.0401 86.674 69.0401C86.954 69.0401 87.1673 68.9467 87.314 68.7601C87.474 68.5601 87.6007 68.2667 87.694 67.8801H88.674C88.594 68.6534 88.374 69.2734 88.014 69.7401C87.654 70.2067 87.1807 70.4401 86.594 70.4401C86.3273 70.4401 86.0673 70.3867 85.814 70.2801C85.5607 70.1601 85.314 70.0267 85.074 69.8801C84.834 69.7201 84.6007 69.5867 84.374 69.4801C84.1473 69.3601 83.934 69.3001 83.734 69.3001C83.4407 69.3001 83.214 69.4001 83.054 69.6001C82.9073 69.7867 82.794 70.0734 82.714 70.4601H81.714ZM100.899 77.2001C100.899 78.0934 100.786 78.8867 100.559 79.5801C100.346 80.2601 100.032 80.8401 99.619 81.3201C99.2057 81.8001 98.7057 82.1667 98.119 82.4201C97.5323 82.6601 96.879 82.7801 96.159 82.7801C95.4923 82.7801 94.8723 82.6601 94.299 82.4201C93.739 82.1667 93.2457 81.8001 92.819 81.3201C92.4057 80.8401 92.0857 80.2601 91.859 79.5801C91.6323 78.8867 91.519 78.0934 91.519 77.2001C91.519 76.0134 91.7057 75.0134 92.079 74.2001C92.4657 73.3734 93.0123 72.7467 93.719 72.3201C94.4257 71.8801 95.259 71.6601 96.219 71.6601C97.139 71.6601 97.9457 71.8801 98.639 72.3201C99.3457 72.7467 99.899 73.3734 100.299 74.2001C100.699 75.0134 100.899 76.0134 100.899 77.2001ZM93.319 77.2001C93.319 78.0401 93.419 78.7734 93.619 79.4001C93.819 80.0134 94.1323 80.4867 94.559 80.8201C94.9857 81.1534 95.5323 81.3201 96.199 81.3201C96.8657 81.3201 97.4123 81.1534 97.839 80.8201C98.2657 80.4867 98.579 80.0134 98.779 79.4001C98.9923 78.7734 99.099 78.0401 99.099 77.2001C99.099 76.3467 98.9923 75.6201 98.779 75.0201C98.579 74.4201 98.2657 73.9601 97.839 73.6401C97.4123 73.3067 96.859 73.1401 96.179 73.1401C95.179 73.1401 94.4523 73.5001 93.999 74.2201C93.5457 74.9401 93.319 75.9334 93.319 77.2001ZM110.105 79.6201C110.105 80.3134 109.939 80.8934 109.605 81.3601C109.285 81.8267 108.825 82.1801 108.225 82.4201C107.625 82.6601 106.905 82.7801 106.065 82.7801C105.359 82.7801 104.745 82.7201 104.225 82.6001C103.719 82.4801 103.272 82.3134 102.885 82.1001V80.5001C103.299 80.7134 103.792 80.9134 104.365 81.1001C104.939 81.2734 105.519 81.3601 106.105 81.3601C106.919 81.3601 107.505 81.2201 107.865 80.9401C108.239 80.6467 108.425 80.2601 108.425 79.7801C108.425 79.5134 108.352 79.2734 108.205 79.0601C108.072 78.8467 107.825 78.6334 107.465 78.4201C107.119 78.2067 106.612 77.9667 105.945 77.7001C105.305 77.4334 104.752 77.1667 104.285 76.9001C103.832 76.6334 103.479 76.3134 103.225 75.9401C102.985 75.5667 102.865 75.0867 102.865 74.5001C102.865 73.5934 103.212 72.8934 103.905 72.4001C104.612 71.9067 105.532 71.6601 106.665 71.6601C107.279 71.6601 107.852 71.7267 108.385 71.8601C108.919 71.9801 109.425 72.1534 109.905 72.3801L109.325 73.7801C109.045 73.6467 108.752 73.5334 108.445 73.4401C108.139 73.3334 107.825 73.2534 107.505 73.2001C107.199 73.1334 106.885 73.1001 106.565 73.1001C105.912 73.1001 105.412 73.2201 105.065 73.4601C104.719 73.6867 104.545 74.0001 104.545 74.4001C104.545 74.6934 104.625 74.9467 104.785 75.1601C104.945 75.3734 105.205 75.5801 105.565 75.7801C105.939 75.9667 106.445 76.1867 107.085 76.4401C107.725 76.6934 108.272 76.9534 108.725 77.2201C109.179 77.4867 109.519 77.8134 109.745 78.2001C109.985 78.5734 110.105 79.0467 110.105 79.6201ZM121.271 71.6801C122.498 71.6801 123.411 71.9667 124.011 72.5401C124.624 73.1134 124.931 74.0267 124.931 75.2801V82.5801H123.671L123.331 81.0601H123.251C122.958 81.4467 122.658 81.7734 122.351 82.0401C122.058 82.2934 121.711 82.4801 121.311 82.6001C120.924 82.7201 120.444 82.7801 119.871 82.7801C119.271 82.7801 118.731 82.6667 118.251 82.4401C117.771 82.2134 117.391 81.8667 117.111 81.4001C116.831 80.9201 116.691 80.3201 116.691 79.6001C116.691 78.5334 117.084 77.7134 117.871 77.1401C118.658 76.5534 119.871 76.2334 121.511 76.1801L123.211 76.1201V75.4801C123.211 74.5867 123.031 73.9667 122.671 73.6201C122.324 73.2734 121.824 73.1001 121.171 73.1001C120.651 73.1001 120.151 73.1867 119.671 73.3601C119.204 73.5201 118.758 73.7067 118.331 73.9201L117.791 72.6001C118.244 72.3467 118.771 72.1334 119.371 71.9601C119.971 71.7734 120.604 71.6801 121.271 71.6801ZM121.751 77.4001C120.524 77.4534 119.671 77.6667 119.191 78.0401C118.724 78.4134 118.491 78.9401 118.491 79.6201C118.491 80.2201 118.658 80.6601 118.991 80.9401C119.324 81.2201 119.758 81.3601 120.291 81.3601C121.118 81.3601 121.811 81.1134 122.371 80.6201C122.931 80.1134 123.211 79.3401 123.211 78.3001V77.3401L121.751 77.4001ZM136.536 71.8601V82.5801H135.136L134.876 81.1601H134.796C134.583 81.5334 134.303 81.8401 133.956 82.0801C133.623 82.3201 133.256 82.4934 132.856 82.6001C132.456 82.7201 132.036 82.7801 131.596 82.7801C130.796 82.7801 130.123 82.6467 129.576 82.3801C129.029 82.1001 128.616 81.6734 128.336 81.1001C128.069 80.5267 127.936 79.7867 127.936 78.8801V71.8601H129.696V78.7601C129.696 79.6134 129.876 80.2534 130.236 80.6801C130.596 81.1067 131.149 81.3201 131.896 81.3201C132.629 81.3201 133.203 81.1734 133.616 80.8801C134.043 80.5734 134.343 80.1334 134.516 79.5601C134.703 78.9734 134.796 78.2667 134.796 77.4401V71.8601H136.536ZM142.076 77.1001L138.596 71.8601H140.576L143.136 75.9001L145.656 71.8601H147.636L144.156 77.1001L147.816 82.5801H145.836L143.136 78.3001L140.396 82.5801H138.436L142.076 77.1001ZM151.476 71.8601V82.5801H149.736V71.8601H151.476ZM150.616 67.8401C150.882 67.8401 151.116 67.9334 151.316 68.1201C151.516 68.2934 151.616 68.5734 151.616 68.9601C151.616 69.3334 151.516 69.6134 151.316 69.8001C151.116 69.9867 150.882 70.0801 150.616 70.0801C150.336 70.0801 150.096 69.9867 149.896 69.8001C149.696 69.6134 149.596 69.3334 149.596 68.9601C149.596 68.5734 149.696 68.2934 149.896 68.1201C150.096 67.9334 150.336 67.8401 150.616 67.8401ZM156.378 82.5801H154.638V67.3801H156.378V82.5801ZM161.3 71.8601V82.5801H159.56V71.8601H161.3ZM160.44 67.8401C160.707 67.8401 160.94 67.9334 161.14 68.1201C161.34 68.2934 161.44 68.5734 161.44 68.9601C161.44 69.3334 161.34 69.6134 161.14 69.8001C160.94 69.9867 160.707 70.0801 160.44 70.0801C160.16 70.0801 159.92 69.9867 159.72 69.8001C159.52 69.6134 159.42 69.3334 159.42 68.9601C159.42 68.5734 159.52 68.2934 159.72 68.1201C159.92 67.9334 160.16 67.8401 160.44 67.8401ZM168.322 71.6801C169.548 71.6801 170.462 71.9667 171.062 72.5401C171.675 73.1134 171.982 74.0267 171.982 75.2801V82.5801H170.722L170.382 81.0601H170.302C170.008 81.4467 169.708 81.7734 169.402 82.0401C169.108 82.2934 168.762 82.4801 168.362 82.6001C167.975 82.7201 167.495 82.7801 166.922 82.7801C166.322 82.7801 165.782 82.6667 165.302 82.4401C164.822 82.2134 164.442 81.8667 164.162 81.4001C163.882 80.9201 163.742 80.3201 163.742 79.6001C163.742 78.5334 164.135 77.7134 164.922 77.1401C165.708 76.5534 166.922 76.2334 168.562 76.1801L170.262 76.1201V75.4801C170.262 74.5867 170.082 73.9667 169.722 73.6201C169.375 73.2734 168.875 73.1001 168.222 73.1001C167.702 73.1001 167.202 73.1867 166.722 73.3601C166.255 73.5201 165.808 73.7067 165.382 73.9201L164.842 72.6001C165.295 72.3467 165.822 72.1334 166.422 71.9601C167.022 71.7734 167.655 71.6801 168.322 71.6801ZM168.802 77.4001C167.575 77.4534 166.722 77.6667 166.242 78.0401C165.775 78.4134 165.542 78.9401 165.542 79.6201C165.542 80.2201 165.708 80.6601 166.042 80.9401C166.375 81.2201 166.808 81.3601 167.342 81.3601C168.168 81.3601 168.862 81.1134 169.422 80.6201C169.982 80.1134 170.262 79.3401 170.262 78.3001V77.3401L168.802 77.4001ZM178.647 82.7801C177.407 82.7801 176.407 82.3201 175.647 81.4001C174.9 80.4667 174.527 79.0801 174.527 77.2401C174.527 75.4001 174.907 74.0134 175.667 73.0801C176.427 72.1334 177.427 71.6601 178.667 71.6601C179.187 71.6601 179.64 71.7334 180.027 71.8801C180.413 72.0134 180.747 72.2001 181.027 72.4401C181.32 72.6801 181.567 72.9467 181.767 73.2401H181.887C181.873 73.0667 181.847 72.8134 181.807 72.4801C181.78 72.1334 181.767 71.8601 181.767 71.6601V67.3801H183.507V82.5801H182.107L181.847 81.1401H181.767C181.567 81.4467 181.32 81.7267 181.027 81.9801C180.747 82.2201 180.407 82.4134 180.007 82.5601C179.62 82.7067 179.167 82.7801 178.647 82.7801ZM178.967 81.3201C180.007 81.3201 180.733 81.0134 181.147 80.4001C181.573 79.7734 181.787 78.8334 181.787 77.5801V77.2601C181.787 75.9267 181.587 74.9067 181.187 74.2001C180.787 73.4801 180.04 73.1201 178.947 73.1201C178.067 73.1201 177.407 73.5001 176.967 74.2601C176.54 75.0067 176.327 76.0134 176.327 77.2801C176.327 78.5601 176.54 79.5534 176.967 80.2601C177.407 80.9667 178.073 81.3201 178.967 81.3201ZM195.489 77.2001C195.489 78.0934 195.376 78.8867 195.149 79.5801C194.936 80.2601 194.622 80.8401 194.209 81.3201C193.796 81.8001 193.296 82.1667 192.709 82.4201C192.122 82.6601 191.469 82.7801 190.749 82.7801C190.082 82.7801 189.462 82.6601 188.889 82.4201C188.329 82.1667 187.836 81.8001 187.409 81.3201C186.996 80.8401 186.676 80.2601 186.449 79.5801C186.222 78.8867 186.109 78.0934 186.109 77.2001C186.109 76.0134 186.296 75.0134 186.669 74.2001C187.056 73.3734 187.602 72.7467 188.309 72.3201C189.016 71.8801 189.849 71.6601 190.809 71.6601C191.729 71.6601 192.536 71.8801 193.229 72.3201C193.936 72.7467 194.489 73.3734 194.889 74.2001C195.289 75.0134 195.489 76.0134 195.489 77.2001ZM187.909 77.2001C187.909 78.0401 188.009 78.7734 188.209 79.4001C188.409 80.0134 188.722 80.4867 189.149 80.8201C189.576 81.1534 190.122 81.3201 190.789 81.3201C191.456 81.3201 192.002 81.1534 192.429 80.8201C192.856 80.4867 193.169 80.0134 193.369 79.4001C193.582 78.7734 193.689 78.0401 193.689 77.2001C193.689 76.3467 193.582 75.6201 193.369 75.0201C193.169 74.4201 192.856 73.9601 192.429 73.6401C192.002 73.3067 191.449 73.1401 190.769 73.1401C189.769 73.1401 189.042 73.5001 188.589 74.2201C188.136 74.9401 187.909 75.9334 187.909 77.2001ZM204.695 79.6201C204.695 80.3134 204.528 80.8934 204.195 81.3601C203.875 81.8267 203.415 82.1801 202.815 82.4201C202.215 82.6601 201.495 82.7801 200.655 82.7801C199.948 82.7801 199.335 82.7201 198.815 82.6001C198.308 82.4801 197.862 82.3134 197.475 82.1001V80.5001C197.888 80.7134 198.382 80.9134 198.955 81.1001C199.528 81.2734 200.108 81.3601 200.695 81.3601C201.508 81.3601 202.095 81.2201 202.455 80.9401C202.828 80.6467 203.015 80.2601 203.015 79.7801C203.015 79.5134 202.942 79.2734 202.795 79.0601C202.662 78.8467 202.415 78.6334 202.055 78.4201C201.708 78.2067 201.202 77.9667 200.535 77.7001C199.895 77.4334 199.342 77.1667 198.875 76.9001C198.422 76.6334 198.068 76.3134 197.815 75.9401C197.575 75.5667 197.455 75.0867 197.455 74.5001C197.455 73.5934 197.802 72.8934 198.495 72.4001C199.202 71.9067 200.122 71.6601 201.255 71.6601C201.868 71.6601 202.442 71.7267 202.975 71.8601C203.508 71.9801 204.015 72.1534 204.495 72.3801L203.915 73.7801C203.635 73.6467 203.342 73.5334 203.035 73.4401C202.728 73.3334 202.415 73.2534 202.095 73.2001C201.788 73.1334 201.475 73.1001 201.155 73.1001C200.502 73.1001 200.002 73.2201 199.655 73.4601C199.308 73.6867 199.135 74.0001 199.135 74.4001C199.135 74.6934 199.215 74.9467 199.375 75.1601C199.535 75.3734 199.795 75.5801 200.155 75.7801C200.528 75.9667 201.035 76.1867 201.675 76.4401C202.315 76.6934 202.862 76.9534 203.315 77.2201C203.768 77.4867 204.108 77.8134 204.335 78.2001C204.575 78.5734 204.695 79.0467 204.695 79.6201ZM216.061 82.7801C215.154 82.7801 214.354 82.5867 213.661 82.2001C212.968 81.8134 212.421 81.2134 212.021 80.4001C211.634 79.5867 211.441 78.5467 211.441 77.2801C211.441 75.9601 211.648 74.8867 212.061 74.0601C212.474 73.2334 213.034 72.6267 213.741 72.2401C214.461 71.8534 215.274 71.6601 216.181 71.6601C216.701 71.6601 217.201 71.7201 217.681 71.8401C218.174 71.9467 218.574 72.0801 218.881 72.2401L218.341 73.7001C218.034 73.5801 217.674 73.4667 217.261 73.3601C216.861 73.2534 216.488 73.2001 216.141 73.2001C215.488 73.2001 214.948 73.3534 214.521 73.6601C214.094 73.9667 213.774 74.4201 213.561 75.0201C213.348 75.6201 213.241 76.3667 213.241 77.2601C213.241 78.1134 213.348 78.8401 213.561 79.4401C213.774 80.0401 214.088 80.4934 214.501 80.8001C214.928 81.1067 215.448 81.2601 216.061 81.2601C216.608 81.2601 217.094 81.2001 217.521 81.0801C217.948 80.9601 218.341 80.8134 218.701 80.6401V82.2001C218.354 82.3867 217.974 82.5267 217.561 82.6201C217.148 82.7267 216.648 82.7801 216.061 82.7801ZM229.903 77.2001C229.903 78.0934 229.79 78.8867 229.563 79.5801C229.35 80.2601 229.036 80.8401 228.623 81.3201C228.21 81.8001 227.71 82.1667 227.123 82.4201C226.536 82.6601 225.883 82.7801 225.163 82.7801C224.496 82.7801 223.876 82.6601 223.303 82.4201C222.743 82.1667 222.25 81.8001 221.823 81.3201C221.41 80.8401 221.09 80.2601 220.863 79.5801C220.636 78.8867 220.523 78.0934 220.523 77.2001C220.523 76.0134 220.71 75.0134 221.083 74.2001C221.47 73.3734 222.016 72.7467 222.723 72.3201C223.43 71.8801 224.263 71.6601 225.223 71.6601C226.143 71.6601 226.95 71.8801 227.643 72.3201C228.35 72.7467 228.903 73.3734 229.303 74.2001C229.703 75.0134 229.903 76.0134 229.903 77.2001ZM222.323 77.2001C222.323 78.0401 222.423 78.7734 222.623 79.4001C222.823 80.0134 223.136 80.4867 223.563 80.8201C223.99 81.1534 224.536 81.3201 225.203 81.3201C225.87 81.3201 226.416 81.1534 226.843 80.8201C227.27 80.4867 227.583 80.0134 227.783 79.4001C227.996 78.7734 228.103 78.0401 228.103 77.2001C228.103 76.3467 227.996 75.6201 227.783 75.0201C227.583 74.4201 227.27 73.9601 226.843 73.6401C226.416 73.3067 225.863 73.1401 225.183 73.1401C224.183 73.1401 223.456 73.5001 223.003 74.2201C222.55 74.9401 222.323 75.9334 222.323 77.2001ZM243.629 71.6601C244.776 71.6601 245.629 71.9734 246.189 72.6001C246.749 73.2134 247.029 74.2134 247.029 75.6001V82.5801H245.309V75.6801C245.309 74.8401 245.142 74.2067 244.809 73.7801C244.489 73.3534 243.982 73.1401 243.289 73.1401C242.329 73.1401 241.642 73.4401 241.229 74.0401C240.829 74.6401 240.629 75.5134 240.629 76.6601V82.5801H238.889V75.6801C238.889 75.1201 238.816 74.6534 238.669 74.2801C238.522 73.8934 238.302 73.6067 238.009 73.4201C237.716 73.2334 237.336 73.1401 236.869 73.1401C236.202 73.1401 235.676 73.2934 235.289 73.6001C234.902 73.8934 234.629 74.3267 234.469 74.9001C234.309 75.4734 234.229 76.1801 234.229 77.0201V82.5801H232.489V71.8601H233.889L234.149 73.3201H234.249C234.462 72.9467 234.722 72.6401 235.029 72.4001C235.336 72.1467 235.676 71.9601 236.049 71.8401C236.422 71.7201 236.809 71.6601 237.209 71.6601C237.982 71.6601 238.629 71.8067 239.149 72.1001C239.669 72.3934 240.049 72.8467 240.289 73.4601H240.409C240.742 72.8467 241.196 72.3934 241.769 72.1001C242.356 71.8067 242.976 71.6601 243.629 71.6601ZM258.869 71.6801C260.095 71.6801 261.009 71.9667 261.609 72.5401C262.222 73.1134 262.529 74.0267 262.529 75.2801V82.5801H261.269L260.929 81.0601H260.849C260.555 81.4467 260.255 81.7734 259.949 82.0401C259.655 82.2934 259.309 82.4801 258.909 82.6001C258.522 82.7201 258.042 82.7801 257.469 82.7801C256.869 82.7801 256.329 82.6667 255.849 82.4401C255.369 82.2134 254.989 81.8667 254.709 81.4001C254.429 80.9201 254.289 80.3201 254.289 79.6001C254.289 78.5334 254.682 77.7134 255.469 77.1401C256.255 76.5534 257.469 76.2334 259.109 76.1801L260.809 76.1201V75.4801C260.809 74.5867 260.629 73.9667 260.269 73.6201C259.922 73.2734 259.422 73.1001 258.769 73.1001C258.249 73.1001 257.749 73.1867 257.269 73.3601C256.802 73.5201 256.355 73.7067 255.929 73.9201L255.389 72.6001C255.842 72.3467 256.369 72.1334 256.969 71.9601C257.569 71.7734 258.202 71.6801 258.869 71.6801ZM259.349 77.4001C258.122 77.4534 257.269 77.6667 256.789 78.0401C256.322 78.4134 256.089 78.9401 256.089 79.6201C256.089 80.2201 256.255 80.6601 256.589 80.9401C256.922 81.2201 257.355 81.3601 257.889 81.3601C258.715 81.3601 259.409 81.1134 259.969 80.6201C260.529 80.1134 260.809 79.3401 260.809 78.3001V77.3401L259.349 77.4001ZM264.494 87.3801C264.174 87.3801 263.894 87.3534 263.654 87.3001C263.4 87.2601 263.187 87.2067 263.014 87.1401V85.7201C263.2 85.7734 263.394 85.8201 263.594 85.8601C263.794 85.9001 264.014 85.9201 264.254 85.9201C264.667 85.9201 265 85.8001 265.254 85.5601C265.52 85.3334 265.654 84.8934 265.654 84.2401V71.8601H267.394V84.1801C267.394 84.8467 267.294 85.4201 267.094 85.9001C266.894 86.3801 266.58 86.7467 266.154 87.0001C265.727 87.2534 265.174 87.3801 264.494 87.3801ZM265.514 68.9601C265.514 68.5734 265.614 68.2934 265.814 68.1201C266.014 67.9334 266.254 67.8401 266.534 67.8401C266.8 67.8401 267.034 67.9334 267.234 68.1201C267.434 68.2934 267.534 68.5734 267.534 68.9601C267.534 69.3334 267.434 69.6134 267.234 69.8001C267.034 69.9867 266.8 70.0801 266.534 70.0801C266.254 70.0801 266.014 69.9867 265.814 69.8001C265.614 69.6134 265.514 69.3334 265.514 68.9601ZM279.056 71.8601V82.5801H277.656L277.396 81.1601H277.316C277.102 81.5334 276.822 81.8401 276.476 82.0801C276.142 82.3201 275.776 82.4934 275.376 82.6001C274.976 82.7201 274.556 82.7801 274.116 82.7801C273.316 82.7801 272.642 82.6467 272.096 82.3801C271.549 82.1001 271.136 81.6734 270.856 81.1001C270.589 80.5267 270.456 79.7867 270.456 78.8801V71.8601H272.216V78.7601C272.216 79.6134 272.396 80.2534 272.756 80.6801C273.116 81.1067 273.669 81.3201 274.416 81.3201C275.149 81.3201 275.722 81.1734 276.136 80.8801C276.562 80.5734 276.862 80.1334 277.036 79.5601C277.222 78.9734 277.316 78.2667 277.316 77.4401V71.8601H279.056ZM285.776 82.7801C284.536 82.7801 283.536 82.3201 282.776 81.4001C282.029 80.4667 281.656 79.0801 281.656 77.2401C281.656 75.4001 282.036 74.0134 282.796 73.0801C283.556 72.1334 284.556 71.6601 285.796 71.6601C286.316 71.6601 286.769 71.7334 287.156 71.8801C287.542 72.0134 287.876 72.2001 288.156 72.4401C288.449 72.6801 288.696 72.9467 288.896 73.2401H289.016C289.002 73.0667 288.976 72.8134 288.936 72.4801C288.909 72.1334 288.896 71.8601 288.896 71.6601V67.3801H290.636V82.5801H289.236L288.976 81.1401H288.896C288.696 81.4467 288.449 81.7267 288.156 81.9801C287.876 82.2201 287.536 82.4134 287.136 82.5601C286.749 82.7067 286.296 82.7801 285.776 82.7801ZM286.096 81.3201C287.136 81.3201 287.862 81.0134 288.276 80.4001C288.702 79.7734 288.916 78.8334 288.916 77.5801V77.2601C288.916 75.9267 288.716 74.9067 288.316 74.2001C287.916 73.4801 287.169 73.1201 286.076 73.1201C285.196 73.1201 284.536 73.5001 284.096 74.2601C283.669 75.0067 283.456 76.0134 283.456 77.2801C283.456 78.5601 283.669 79.5534 284.096 80.2601C284.536 80.9667 285.202 81.3201 286.096 81.3201ZM297.658 71.6801C298.884 71.6801 299.798 71.9667 300.398 72.5401C301.011 73.1134 301.318 74.0267 301.318 75.2801V82.5801H300.058L299.718 81.0601H299.638C299.344 81.4467 299.044 81.7734 298.738 82.0401C298.444 82.2934 298.098 82.4801 297.698 82.6001C297.311 82.7201 296.831 82.7801 296.258 82.7801C295.658 82.7801 295.118 82.6667 294.638 82.4401C294.158 82.2134 293.778 81.8667 293.498 81.4001C293.218 80.9201 293.078 80.3201 293.078 79.6001C293.078 78.5334 293.471 77.7134 294.258 77.1401C295.044 76.5534 296.258 76.2334 297.898 76.1801L299.598 76.1201V75.4801C299.598 74.5867 299.418 73.9667 299.058 73.6201C298.711 73.2734 298.211 73.1001 297.558 73.1001C297.038 73.1001 296.538 73.1867 296.058 73.3601C295.591 73.5201 295.144 73.7067 294.718 73.9201L294.178 72.6001C294.631 72.3467 295.158 72.1334 295.758 71.9601C296.358 71.7734 296.991 71.6801 297.658 71.6801ZM298.138 77.4001C296.911 77.4534 296.058 77.6667 295.578 78.0401C295.111 78.4134 294.878 78.9401 294.878 79.6201C294.878 80.2201 295.044 80.6601 295.378 80.9401C295.711 81.2201 296.144 81.3601 296.678 81.3601C297.504 81.3601 298.198 81.1134 298.758 80.6201C299.318 80.1134 299.598 79.3401 299.598 78.3001V77.3401L298.138 77.4001ZM61.1553 100.66C62.0219 100.66 62.7686 100.86 63.3953 101.26C64.0219 101.66 64.5019 102.227 64.8353 102.96C65.1819 103.68 65.3553 104.527 65.3553 105.5V106.56H58.4753C58.5019 107.773 58.7886 108.7 59.3353 109.34C59.8819 109.967 60.6486 110.28 61.6353 110.28C62.2753 110.28 62.8419 110.22 63.3353 110.1C63.8419 109.967 64.3619 109.78 64.8953 109.54V111.08C64.3753 111.32 63.8619 111.493 63.3553 111.6C62.8619 111.72 62.2619 111.78 61.5553 111.78C60.5953 111.78 59.7486 111.573 59.0153 111.16C58.2819 110.747 57.7086 110.133 57.2953 109.32C56.8819 108.493 56.6753 107.487 56.6753 106.3C56.6753 105.127 56.8619 104.12 57.2353 103.28C57.6086 102.44 58.1286 101.793 58.7953 101.34C59.4753 100.887 60.2619 100.66 61.1553 100.66ZM61.1553 102.1C60.3819 102.1 59.7686 102.373 59.3153 102.92C58.8619 103.453 58.5953 104.2 58.5153 105.16H63.5553C63.5553 104.547 63.4686 104.013 63.2953 103.56C63.1219 103.107 62.8553 102.753 62.4953 102.5C62.1486 102.233 61.7019 102.1 61.1553 102.1ZM79.0198 100.66C80.1665 100.66 81.0198 100.973 81.5798 101.6C82.1398 102.213 82.4198 103.213 82.4198 104.6V111.58H80.6998V104.68C80.6998 103.84 80.5331 103.207 80.1998 102.78C79.8798 102.353 79.3731 102.14 78.6798 102.14C77.7198 102.14 77.0331 102.44 76.6198 103.04C76.2198 103.64 76.0198 104.513 76.0198 105.66V111.58H74.2798V104.68C74.2798 104.12 74.2065 103.653 74.0598 103.28C73.9131 102.893 73.6931 102.607 73.3998 102.42C73.1065 102.233 72.7265 102.14 72.2598 102.14C71.5931 102.14 71.0665 102.293 70.6798 102.6C70.2931 102.893 70.0198 103.327 69.8598 103.9C69.6998 104.473 69.6198 105.18 69.6198 106.02V111.58H67.8798V100.86H69.2798L69.5398 102.32H69.6398C69.8531 101.947 70.1131 101.64 70.4198 101.4C70.7265 101.147 71.0665 100.96 71.4398 100.84C71.8131 100.72 72.1998 100.66 72.5998 100.66C73.3731 100.66 74.0198 100.807 74.5398 101.1C75.0598 101.393 75.4398 101.847 75.6798 102.46H75.7998C76.1331 101.847 76.5865 101.393 77.1598 101.1C77.7465 100.807 78.3665 100.66 79.0198 100.66ZM89.4365 100.66C90.3032 100.66 91.0498 100.86 91.6765 101.26C92.3032 101.66 92.7832 102.227 93.1165 102.96C93.4632 103.68 93.6365 104.527 93.6365 105.5V106.56H86.7565C86.7832 107.773 87.0698 108.7 87.6165 109.34C88.1632 109.967 88.9298 110.28 89.9165 110.28C90.5565 110.28 91.1232 110.22 91.6165 110.1C92.1232 109.967 92.6432 109.78 93.1765 109.54V111.08C92.6565 111.32 92.1432 111.493 91.6365 111.6C91.1432 111.72 90.5432 111.78 89.8365 111.78C88.8765 111.78 88.0298 111.573 87.2965 111.16C86.5632 110.747 85.9898 110.133 85.5765 109.32C85.1632 108.493 84.9565 107.487 84.9565 106.3C84.9565 105.127 85.1432 104.12 85.5165 103.28C85.8898 102.44 86.4098 101.793 87.0765 101.34C87.7565 100.887 88.5432 100.66 89.4365 100.66ZM89.4365 102.1C88.6632 102.1 88.0498 102.373 87.5965 102.92C87.1432 103.453 86.8765 104.2 86.7965 105.16H91.8365C91.8365 104.547 91.7498 104.013 91.5765 103.56C91.4032 103.107 91.1365 102.753 90.7765 102.5C90.4298 102.233 89.9832 102.1 89.4365 102.1ZM100.941 100.66C101.128 100.66 101.328 100.673 101.541 100.7C101.754 100.713 101.941 100.74 102.101 100.78L101.901 102.4C101.741 102.36 101.561 102.327 101.361 102.3C101.174 102.273 100.994 102.26 100.821 102.26C100.434 102.26 100.068 102.347 99.721 102.52C99.3744 102.693 99.061 102.94 98.781 103.26C98.5144 103.567 98.301 103.94 98.141 104.38C97.981 104.82 97.901 105.313 97.901 105.86V111.58H96.161V100.86H97.581L97.781 102.82H97.861C98.0744 102.42 98.3277 102.06 98.621 101.74C98.9277 101.407 99.2744 101.147 99.661 100.96C100.048 100.76 100.474 100.66 100.941 100.66ZM107.358 100.66C108.024 100.66 108.618 100.793 109.138 101.06C109.671 101.327 110.124 101.733 110.498 102.28H110.598L110.818 100.86H112.218V111.76C112.218 112.773 112.051 113.62 111.718 114.3C111.398 114.993 110.898 115.513 110.218 115.86C109.551 116.207 108.698 116.38 107.658 116.38C106.924 116.38 106.258 116.32 105.658 116.2C105.058 116.093 104.511 115.927 104.018 115.7V114.08C104.351 114.253 104.711 114.4 105.098 114.52C105.498 114.653 105.918 114.753 106.358 114.82C106.811 114.887 107.278 114.92 107.758 114.92C108.611 114.92 109.278 114.647 109.758 114.1C110.251 113.567 110.498 112.833 110.498 111.9V111.48C110.498 111.32 110.504 111.093 110.518 110.8C110.531 110.493 110.544 110.28 110.558 110.16H110.478C110.131 110.707 109.698 111.113 109.178 111.38C108.658 111.647 108.058 111.78 107.378 111.78C106.084 111.78 105.071 111.293 104.338 110.32C103.604 109.347 103.238 107.987 103.238 106.24C103.238 105.093 103.398 104.107 103.718 103.28C104.051 102.44 104.524 101.793 105.138 101.34C105.764 100.887 106.504 100.66 107.358 100.66ZM107.638 102.14C107.091 102.14 106.618 102.3 106.218 102.62C105.831 102.94 105.538 103.407 105.338 104.02C105.138 104.633 105.038 105.38 105.038 106.26C105.038 107.58 105.258 108.593 105.698 109.3C106.151 109.993 106.811 110.34 107.678 110.34C108.171 110.34 108.598 110.273 108.958 110.14C109.318 109.993 109.611 109.773 109.838 109.48C110.064 109.173 110.231 108.787 110.338 108.32C110.458 107.853 110.518 107.3 110.518 106.66V106.24C110.518 105.267 110.411 104.48 110.198 103.88C109.998 103.28 109.684 102.84 109.258 102.56C108.844 102.28 108.304 102.14 107.638 102.14ZM119.3 100.66C120.166 100.66 120.913 100.86 121.54 101.26C122.166 101.66 122.646 102.227 122.98 102.96C123.326 103.68 123.5 104.527 123.5 105.5V106.56H116.62C116.646 107.773 116.933 108.7 117.48 109.34C118.026 109.967 118.793 110.28 119.78 110.28C120.42 110.28 120.986 110.22 121.48 110.1C121.986 109.967 122.506 109.78 123.04 109.54V111.08C122.52 111.32 122.006 111.493 121.5 111.6C121.006 111.72 120.406 111.78 119.7 111.78C118.74 111.78 117.893 111.573 117.16 111.16C116.426 110.747 115.853 110.133 115.44 109.32C115.026 108.493 114.82 107.487 114.82 106.3C114.82 105.127 115.006 104.12 115.38 103.28C115.753 102.44 116.273 101.793 116.94 101.34C117.62 100.887 118.406 100.66 119.3 100.66ZM119.3 102.1C118.526 102.1 117.913 102.373 117.46 102.92C117.006 103.453 116.74 104.2 116.66 105.16H121.7C121.7 104.547 121.613 104.013 121.44 103.56C121.266 103.107 121 102.753 120.64 102.5C120.293 102.233 119.846 102.1 119.3 102.1ZM130.944 100.66C132.144 100.66 133.051 100.973 133.664 101.6C134.291 102.213 134.604 103.213 134.604 104.6V111.58H132.864V104.72C132.864 103.853 132.684 103.207 132.324 102.78C131.964 102.353 131.411 102.14 130.664 102.14C129.571 102.14 128.811 102.473 128.384 103.14C127.971 103.807 127.764 104.767 127.764 106.02V111.58H126.024V100.86H127.424L127.684 102.32H127.784C127.998 101.947 128.271 101.64 128.604 101.4C128.938 101.147 129.304 100.96 129.704 100.84C130.104 100.72 130.518 100.66 130.944 100.66ZM141.764 111.78C140.857 111.78 140.057 111.587 139.364 111.2C138.671 110.813 138.124 110.213 137.724 109.4C137.337 108.587 137.144 107.547 137.144 106.28C137.144 104.96 137.351 103.887 137.764 103.06C138.177 102.233 138.737 101.627 139.444 101.24C140.164 100.853 140.977 100.66 141.884 100.66C142.404 100.66 142.904 100.72 143.384 100.84C143.877 100.947 144.277 101.08 144.584 101.24L144.044 102.7C143.737 102.58 143.377 102.467 142.964 102.36C142.564 102.253 142.191 102.2 141.844 102.2C141.191 102.2 140.651 102.353 140.224 102.66C139.797 102.967 139.477 103.42 139.264 104.02C139.051 104.62 138.944 105.367 138.944 106.26C138.944 107.113 139.051 107.84 139.264 108.44C139.477 109.04 139.791 109.493 140.204 109.8C140.631 110.107 141.151 110.26 141.764 110.26C142.311 110.26 142.797 110.2 143.224 110.08C143.651 109.96 144.044 109.813 144.404 109.64V111.2C144.057 111.387 143.677 111.527 143.264 111.62C142.851 111.727 142.351 111.78 141.764 111.78ZM148.546 100.86V111.58H146.806V100.86H148.546ZM147.686 96.8401C147.953 96.8401 148.186 96.9334 148.386 97.1201C148.586 97.2934 148.686 97.5734 148.686 97.9601C148.686 98.3334 148.586 98.6134 148.386 98.8001C148.186 98.9867 147.953 99.0801 147.686 99.0801C147.406 99.0801 147.166 98.9867 146.966 98.8001C146.766 98.6134 146.666 98.3334 146.666 97.9601C146.666 97.5734 146.766 97.2934 146.966 97.1201C147.166 96.9334 147.406 96.8401 147.686 96.8401ZM155.568 100.68C156.795 100.68 157.708 100.967 158.308 101.54C158.921 102.113 159.228 103.027 159.228 104.28V111.58H157.968L157.628 110.06H157.548C157.255 110.447 156.955 110.773 156.648 111.04C156.355 111.293 156.008 111.48 155.608 111.6C155.221 111.72 154.741 111.78 154.168 111.78C153.568 111.78 153.028 111.667 152.548 111.44C152.068 111.213 151.688 110.867 151.408 110.4C151.128 109.92 150.988 109.32 150.988 108.6C150.988 107.533 151.381 106.713 152.168 106.14C152.955 105.553 154.168 105.233 155.808 105.18L157.508 105.12V104.48C157.508 103.587 157.328 102.967 156.968 102.62C156.621 102.273 156.121 102.1 155.468 102.1C154.948 102.1 154.448 102.187 153.968 102.36C153.501 102.52 153.055 102.707 152.628 102.92L152.088 101.6C152.541 101.347 153.068 101.133 153.668 100.96C154.268 100.773 154.901 100.68 155.568 100.68ZM156.048 106.4C154.821 106.453 153.968 106.667 153.488 107.04C153.021 107.413 152.788 107.94 152.788 108.62C152.788 109.22 152.955 109.66 153.288 109.94C153.621 110.22 154.055 110.36 154.588 110.36C155.415 110.36 156.108 110.113 156.668 109.62C157.228 109.113 157.508 108.34 157.508 107.3V106.34L156.048 106.4ZM164.073 111.58H162.333V96.3801H164.073V111.58ZM176.038 100.66C176.905 100.66 177.651 100.86 178.278 101.26C178.905 101.66 179.385 102.227 179.718 102.96C180.065 103.68 180.238 104.527 180.238 105.5V106.56H173.358C173.385 107.773 173.671 108.7 174.218 109.34C174.765 109.967 175.531 110.28 176.518 110.28C177.158 110.28 177.725 110.22 178.218 110.1C178.725 109.967 179.245 109.78 179.778 109.54V111.08C179.258 111.32 178.745 111.493 178.238 111.6C177.745 111.72 177.145 111.78 176.438 111.78C175.478 111.78 174.631 111.573 173.898 111.16C173.165 110.747 172.591 110.133 172.178 109.32C171.765 108.493 171.558 107.487 171.558 106.3C171.558 105.127 171.745 104.12 172.118 103.28C172.491 102.44 173.011 101.793 173.678 101.34C174.358 100.887 175.145 100.66 176.038 100.66ZM176.038 102.1C175.265 102.1 174.651 102.373 174.198 102.92C173.745 103.453 173.478 104.2 173.398 105.16H178.438C178.438 104.547 178.351 104.013 178.178 103.56C178.005 103.107 177.738 102.753 177.378 102.5C177.031 102.233 176.585 102.1 176.038 102.1ZM192.505 100.66C193.745 100.66 194.739 101.12 195.485 102.04C196.245 102.96 196.625 104.347 196.625 106.2C196.625 107.413 196.452 108.44 196.105 109.28C195.759 110.107 195.272 110.733 194.645 111.16C194.032 111.573 193.312 111.78 192.485 111.78C191.965 111.78 191.505 111.707 191.105 111.56C190.719 111.413 190.385 111.227 190.105 111C189.825 110.76 189.585 110.5 189.385 110.22H189.265C189.292 110.447 189.319 110.733 189.345 111.08C189.372 111.427 189.385 111.727 189.385 111.98V116.38H187.645V100.86H189.065L189.305 102.32H189.385C189.585 102.013 189.825 101.733 190.105 101.48C190.385 101.227 190.719 101.027 191.105 100.88C191.505 100.733 191.972 100.66 192.505 100.66ZM192.165 102.14C191.499 102.14 190.959 102.28 190.545 102.56C190.145 102.827 189.852 103.233 189.665 103.78C189.479 104.327 189.385 105.02 189.385 105.86V106.2C189.385 107.08 189.465 107.827 189.625 108.44C189.799 109.053 190.092 109.52 190.505 109.84C190.919 110.16 191.485 110.32 192.205 110.32C192.805 110.32 193.299 110.14 193.685 109.78C194.072 109.42 194.359 108.933 194.545 108.32C194.732 107.693 194.825 106.98 194.825 106.18C194.825 104.953 194.605 103.973 194.165 103.24C193.739 102.507 193.072 102.14 192.165 102.14ZM204.007 100.66C204.194 100.66 204.394 100.673 204.607 100.7C204.821 100.713 205.007 100.74 205.167 100.78L204.967 102.4C204.807 102.36 204.627 102.327 204.427 102.3C204.241 102.273 204.061 102.26 203.887 102.26C203.501 102.26 203.134 102.347 202.787 102.52C202.441 102.693 202.127 102.94 201.847 103.26C201.581 103.567 201.367 103.94 201.207 104.38C201.047 104.82 200.967 105.313 200.967 105.86V111.58H199.227V100.86H200.647L200.847 102.82H200.927C201.141 102.42 201.394 102.06 201.687 101.74C201.994 101.407 202.341 101.147 202.727 100.96C203.114 100.76 203.541 100.66 204.007 100.66ZM215.489 106.2C215.489 107.093 215.376 107.887 215.149 108.58C214.936 109.26 214.622 109.84 214.209 110.32C213.796 110.8 213.296 111.167 212.709 111.42C212.122 111.66 211.469 111.78 210.749 111.78C210.082 111.78 209.462 111.66 208.889 111.42C208.329 111.167 207.836 110.8 207.409 110.32C206.996 109.84 206.676 109.26 206.449 108.58C206.222 107.887 206.109 107.093 206.109 106.2C206.109 105.013 206.296 104.013 206.669 103.2C207.056 102.373 207.602 101.747 208.309 101.32C209.016 100.88 209.849 100.66 210.809 100.66C211.729 100.66 212.536 100.88 213.229 101.32C213.936 101.747 214.489 102.373 214.889 103.2C215.289 104.013 215.489 105.013 215.489 106.2ZM207.909 106.2C207.909 107.04 208.009 107.773 208.209 108.4C208.409 109.013 208.722 109.487 209.149 109.82C209.576 110.153 210.122 110.32 210.789 110.32C211.456 110.32 212.002 110.153 212.429 109.82C212.856 109.487 213.169 109.013 213.369 108.4C213.582 107.773 213.689 107.04 213.689 106.2C213.689 105.347 213.582 104.62 213.369 104.02C213.169 103.42 212.856 102.96 212.429 102.64C212.002 102.307 211.449 102.14 210.769 102.14C209.769 102.14 209.042 102.5 208.589 103.22C208.136 103.94 207.909 104.933 207.909 106.2ZM216.935 116.38C216.615 116.38 216.335 116.353 216.095 116.3C215.842 116.26 215.628 116.207 215.455 116.14V114.72C215.642 114.773 215.835 114.82 216.035 114.86C216.235 114.9 216.455 114.92 216.695 114.92C217.108 114.92 217.442 114.8 217.695 114.56C217.962 114.333 218.095 113.893 218.095 113.24V100.86H219.835V113.18C219.835 113.847 219.735 114.42 219.535 114.9C219.335 115.38 219.022 115.747 218.595 116C218.168 116.253 217.615 116.38 216.935 116.38ZM217.955 97.9601C217.955 97.5734 218.055 97.2934 218.255 97.1201C218.455 96.9334 218.695 96.8401 218.975 96.8401C219.242 96.8401 219.475 96.9334 219.675 97.1201C219.875 97.2934 219.975 97.5734 219.975 97.9601C219.975 98.3334 219.875 98.6134 219.675 98.8001C219.475 98.9867 219.242 99.0801 218.975 99.0801C218.695 99.0801 218.455 98.9867 218.255 98.8001C218.055 98.6134 217.955 98.3334 217.955 97.9601ZM226.917 100.66C227.784 100.66 228.53 100.86 229.157 101.26C229.784 101.66 230.264 102.227 230.597 102.96C230.944 103.68 231.117 104.527 231.117 105.5V106.56H224.237C224.264 107.773 224.55 108.7 225.097 109.34C225.644 109.967 226.41 110.28 227.397 110.28C228.037 110.28 228.604 110.22 229.097 110.1C229.604 109.967 230.124 109.78 230.657 109.54V111.08C230.137 111.32 229.624 111.493 229.117 111.6C228.624 111.72 228.024 111.78 227.317 111.78C226.357 111.78 225.51 111.573 224.777 111.16C224.044 110.747 223.47 110.133 223.057 109.32C222.644 108.493 222.437 107.487 222.437 106.3C222.437 105.127 222.624 104.12 222.997 103.28C223.37 102.44 223.89 101.793 224.557 101.34C225.237 100.887 226.024 100.66 226.917 100.66ZM226.917 102.1C226.144 102.1 225.53 102.373 225.077 102.92C224.624 103.453 224.357 104.2 224.277 105.16H229.317C229.317 104.547 229.23 104.013 229.057 103.56C228.884 103.107 228.617 102.753 228.257 102.5C227.91 102.233 227.464 102.1 226.917 102.1ZM237.102 110.34C237.355 110.34 237.615 110.32 237.882 110.28C238.148 110.227 238.368 110.173 238.542 110.12V111.46C238.355 111.553 238.088 111.627 237.742 111.68C237.408 111.747 237.088 111.78 236.782 111.78C236.248 111.78 235.755 111.687 235.302 111.5C234.848 111.3 234.482 110.96 234.202 110.48C233.935 110 233.802 109.327 233.802 108.46V102.22H232.382V101.38L233.842 100.68L234.502 98.4001H235.542V100.86H238.462V102.22H235.542V108.42C235.542 109.073 235.688 109.56 235.982 109.88C236.275 110.187 236.648 110.34 237.102 110.34ZM249.356 106.2C249.356 107.093 249.243 107.887 249.016 108.58C248.803 109.26 248.489 109.84 248.076 110.32C247.663 110.8 247.163 111.167 246.576 111.42C245.989 111.66 245.336 111.78 244.616 111.78C243.949 111.78 243.329 111.66 242.756 111.42C242.196 111.167 241.703 110.8 241.276 110.32C240.863 109.84 240.543 109.26 240.316 108.58C240.089 107.887 239.976 107.093 239.976 106.2C239.976 105.013 240.163 104.013 240.536 103.2C240.923 102.373 241.469 101.747 242.176 101.32C242.883 100.88 243.716 100.66 244.676 100.66C245.596 100.66 246.403 100.88 247.096 101.32C247.803 101.747 248.356 102.373 248.756 103.2C249.156 104.013 249.356 105.013 249.356 106.2ZM241.776 106.2C241.776 107.04 241.876 107.773 242.076 108.4C242.276 109.013 242.589 109.487 243.016 109.82C243.443 110.153 243.989 110.32 244.656 110.32C245.323 110.32 245.869 110.153 246.296 109.82C246.723 109.487 247.036 109.013 247.236 108.4C247.449 107.773 247.556 107.04 247.556 106.2C247.556 105.347 247.449 104.62 247.236 104.02C247.036 103.42 246.723 102.96 246.296 102.64C245.869 102.307 245.316 102.14 244.636 102.14C243.636 102.14 242.909 102.5 242.456 103.22C242.003 103.94 241.776 104.933 241.776 106.2ZM258.562 108.62C258.562 109.313 258.396 109.893 258.062 110.36C257.742 110.827 257.282 111.18 256.682 111.42C256.082 111.66 255.362 111.78 254.522 111.78C253.816 111.78 253.202 111.72 252.682 111.6C252.176 111.48 251.729 111.313 251.342 111.1V109.5C251.756 109.713 252.249 109.913 252.822 110.1C253.396 110.273 253.976 110.36 254.562 110.36C255.376 110.36 255.962 110.22 256.322 109.94C256.696 109.647 256.882 109.26 256.882 108.78C256.882 108.513 256.809 108.273 256.662 108.06C256.529 107.847 256.282 107.633 255.922 107.42C255.576 107.207 255.069 106.967 254.402 106.7C253.762 106.433 253.209 106.167 252.742 105.9C252.289 105.633 251.936 105.313 251.682 104.94C251.442 104.567 251.322 104.087 251.322 103.5C251.322 102.593 251.669 101.893 252.362 101.4C253.069 100.907 253.989 100.66 255.122 100.66C255.736 100.66 256.309 100.727 256.842 100.86C257.376 100.98 257.882 101.153 258.362 101.38L257.782 102.78C257.502 102.647 257.209 102.533 256.902 102.44C256.596 102.333 256.282 102.253 255.962 102.2C255.656 102.133 255.342 102.1 255.022 102.1C254.369 102.1 253.869 102.22 253.522 102.46C253.176 102.687 253.002 103 253.002 103.4C253.002 103.693 253.082 103.947 253.242 104.16C253.402 104.373 253.662 104.58 254.022 104.78C254.396 104.967 254.902 105.187 255.542 105.44C256.182 105.693 256.729 105.953 257.182 106.22C257.636 106.487 257.976 106.813 258.202 107.2C258.442 107.573 258.562 108.047 258.562 108.62ZM269.428 111.78C268.188 111.78 267.188 111.32 266.428 110.4C265.681 109.467 265.308 108.08 265.308 106.24C265.308 104.4 265.688 103.013 266.448 102.08C267.208 101.133 268.208 100.66 269.448 100.66C269.968 100.66 270.421 100.733 270.808 100.88C271.195 101.013 271.528 101.2 271.808 101.44C272.101 101.68 272.348 101.947 272.548 102.24H272.668C272.655 102.067 272.628 101.813 272.588 101.48C272.561 101.133 272.548 100.86 272.548 100.66V96.3801H274.288V111.58H272.888L272.628 110.14H272.548C272.348 110.447 272.101 110.727 271.808 110.98C271.528 111.22 271.188 111.413 270.788 111.56C270.401 111.707 269.948 111.78 269.428 111.78ZM269.748 110.32C270.788 110.32 271.515 110.013 271.928 109.4C272.355 108.773 272.568 107.833 272.568 106.58V106.26C272.568 104.927 272.368 103.907 271.968 103.2C271.568 102.48 270.821 102.12 269.728 102.12C268.848 102.12 268.188 102.5 267.748 103.26C267.321 104.007 267.108 105.013 267.108 106.28C267.108 107.56 267.321 108.553 267.748 109.26C268.188 109.967 268.855 110.32 269.748 110.32ZM281.37 100.66C282.237 100.66 282.983 100.86 283.61 101.26C284.237 101.66 284.717 102.227 285.05 102.96C285.397 103.68 285.57 104.527 285.57 105.5V106.56H278.69C278.717 107.773 279.003 108.7 279.55 109.34C280.097 109.967 280.863 110.28 281.85 110.28C282.49 110.28 283.057 110.22 283.55 110.1C284.057 109.967 284.577 109.78 285.11 109.54V111.08C284.59 111.32 284.077 111.493 283.57 111.6C283.077 111.72 282.477 111.78 281.77 111.78C280.81 111.78 279.963 111.573 279.23 111.16C278.497 110.747 277.923 110.133 277.51 109.32C277.097 108.493 276.89 107.487 276.89 106.3C276.89 105.127 277.077 104.12 277.45 103.28C277.823 102.44 278.343 101.793 279.01 101.34C279.69 100.887 280.477 100.66 281.37 100.66ZM281.37 102.1C280.597 102.1 279.983 102.373 279.53 102.92C279.077 103.453 278.81 104.2 278.73 105.16H283.77C283.77 104.547 283.683 104.013 283.51 103.56C283.337 103.107 283.07 102.753 282.71 102.5C282.363 102.233 281.917 102.1 281.37 102.1ZM100.034 140.78C98.7935 140.78 97.7935 140.32 97.0335 139.4C96.2869 138.467 95.9135 137.08 95.9135 135.24C95.9135 133.4 96.2935 132.013 97.0535 131.08C97.8135 130.133 98.8135 129.66 100.054 129.66C100.574 129.66 101.027 129.733 101.414 129.88C101.8 130.013 102.134 130.2 102.414 130.44C102.707 130.68 102.954 130.947 103.154 131.24H103.274C103.26 131.067 103.234 130.813 103.194 130.48C103.167 130.133 103.154 129.86 103.154 129.66V125.38H104.894V140.58H103.494L103.234 139.14H103.154C102.954 139.447 102.707 139.727 102.414 139.98C102.134 140.22 101.794 140.413 101.394 140.56C101.007 140.707 100.554 140.78 100.034 140.78ZM100.354 139.32C101.394 139.32 102.12 139.013 102.534 138.4C102.96 137.773 103.174 136.833 103.174 135.58V135.26C103.174 133.927 102.974 132.907 102.574 132.2C102.174 131.48 101.427 131.12 100.334 131.12C99.4535 131.12 98.7935 131.5 98.3535 132.26C97.9269 133.007 97.7135 134.013 97.7135 135.28C97.7135 136.56 97.9269 137.553 98.3535 138.26C98.7935 138.967 99.4602 139.32 100.354 139.32ZM111.976 129.66C112.842 129.66 113.589 129.86 114.216 130.26C114.842 130.66 115.322 131.227 115.656 131.96C116.002 132.68 116.176 133.527 116.176 134.5V135.56H109.296C109.322 136.773 109.609 137.7 110.156 138.34C110.702 138.967 111.469 139.28 112.456 139.28C113.096 139.28 113.662 139.22 114.156 139.1C114.662 138.967 115.182 138.78 115.716 138.54V140.08C115.196 140.32 114.682 140.493 114.176 140.6C113.682 140.72 113.082 140.78 112.376 140.78C111.416 140.78 110.569 140.573 109.836 140.16C109.102 139.747 108.529 139.133 108.116 138.32C107.702 137.493 107.496 136.487 107.496 135.3C107.496 134.127 107.682 133.12 108.056 132.28C108.429 131.44 108.949 130.793 109.616 130.34C110.296 129.887 111.082 129.66 111.976 129.66ZM111.976 131.1C111.202 131.1 110.589 131.373 110.136 131.92C109.682 132.453 109.416 133.2 109.336 134.16H114.376C114.376 133.547 114.289 133.013 114.116 132.56C113.942 132.107 113.676 131.753 113.316 131.5C112.969 131.233 112.522 131.1 111.976 131.1ZM125.32 137.62C125.32 138.313 125.153 138.893 124.82 139.36C124.5 139.827 124.04 140.18 123.44 140.42C122.84 140.66 122.12 140.78 121.28 140.78C120.573 140.78 119.96 140.72 119.44 140.6C118.933 140.48 118.487 140.313 118.1 140.1V138.5C118.513 138.713 119.007 138.913 119.58 139.1C120.153 139.273 120.733 139.36 121.32 139.36C122.133 139.36 122.72 139.22 123.08 138.94C123.453 138.647 123.64 138.26 123.64 137.78C123.64 137.513 123.567 137.273 123.42 137.06C123.287 136.847 123.04 136.633 122.68 136.42C122.333 136.207 121.827 135.967 121.16 135.7C120.52 135.433 119.967 135.167 119.5 134.9C119.047 134.633 118.693 134.313 118.44 133.94C118.2 133.567 118.08 133.087 118.08 132.5C118.08 131.593 118.427 130.893 119.12 130.4C119.827 129.907 120.747 129.66 121.88 129.66C122.493 129.66 123.067 129.727 123.6 129.86C124.133 129.98 124.64 130.153 125.12 130.38L124.54 131.78C124.26 131.647 123.967 131.533 123.66 131.44C123.353 131.333 123.04 131.253 122.72 131.2C122.413 131.133 122.1 131.1 121.78 131.1C121.127 131.1 120.627 131.22 120.28 131.46C119.933 131.687 119.76 132 119.76 132.4C119.76 132.693 119.84 132.947 120 133.16C120.16 133.373 120.42 133.58 120.78 133.78C121.153 133.967 121.66 134.187 122.3 134.44C122.94 134.693 123.487 134.953 123.94 135.22C124.393 135.487 124.733 135.813 124.96 136.2C125.2 136.573 125.32 137.047 125.32 137.62ZM131.663 129.66C132.53 129.66 133.276 129.86 133.903 130.26C134.53 130.66 135.01 131.227 135.343 131.96C135.69 132.68 135.863 133.527 135.863 134.5V135.56H128.983C129.01 136.773 129.296 137.7 129.843 138.34C130.39 138.967 131.156 139.28 132.143 139.28C132.783 139.28 133.35 139.22 133.843 139.1C134.35 138.967 134.87 138.78 135.403 138.54V140.08C134.883 140.32 134.37 140.493 133.863 140.6C133.37 140.72 132.77 140.78 132.063 140.78C131.103 140.78 130.256 140.573 129.523 140.16C128.79 139.747 128.216 139.133 127.803 138.32C127.39 137.493 127.183 136.487 127.183 135.3C127.183 134.127 127.37 133.12 127.743 132.28C128.116 131.44 128.636 130.793 129.303 130.34C129.983 129.887 130.77 129.66 131.663 129.66ZM131.663 131.1C130.89 131.1 130.276 131.373 129.823 131.92C129.37 132.453 129.103 133.2 129.023 134.16H134.063C134.063 133.547 133.976 133.013 133.803 132.56C133.63 132.107 133.363 131.753 133.003 131.5C132.656 131.233 132.21 131.1 131.663 131.1ZM143.308 129.66C144.508 129.66 145.414 129.973 146.028 130.6C146.654 131.213 146.968 132.213 146.968 133.6V140.58H145.228V133.72C145.228 132.853 145.048 132.207 144.688 131.78C144.328 131.353 143.774 131.14 143.028 131.14C141.934 131.14 141.174 131.473 140.748 132.14C140.334 132.807 140.128 133.767 140.128 135.02V140.58H138.388V129.86H139.788L140.048 131.32H140.148C140.361 130.947 140.634 130.64 140.968 130.4C141.301 130.147 141.668 129.96 142.068 129.84C142.468 129.72 142.881 129.66 143.308 129.66ZM152.307 140.58L148.487 129.86H150.347L152.467 136.18C152.574 136.473 152.681 136.8 152.787 137.16C152.894 137.52 152.987 137.867 153.067 138.2C153.161 138.52 153.221 138.793 153.247 139.02H153.327C153.367 138.793 153.434 138.513 153.527 138.18C153.621 137.847 153.721 137.5 153.827 137.14C153.947 136.78 154.054 136.46 154.147 136.18L156.267 129.86H158.127L154.287 140.58H152.307ZM168.536 135.2C168.536 136.093 168.422 136.887 168.196 137.58C167.982 138.26 167.669 138.84 167.256 139.32C166.842 139.8 166.342 140.167 165.756 140.42C165.169 140.66 164.516 140.78 163.796 140.78C163.129 140.78 162.509 140.66 161.936 140.42C161.376 140.167 160.882 139.8 160.456 139.32C160.042 138.84 159.722 138.26 159.496 137.58C159.269 136.887 159.156 136.093 159.156 135.2C159.156 134.013 159.342 133.013 159.716 132.2C160.102 131.373 160.649 130.747 161.356 130.32C162.062 129.88 162.896 129.66 163.856 129.66C164.776 129.66 165.582 129.88 166.276 130.32C166.982 130.747 167.536 131.373 167.936 132.2C168.336 133.013 168.536 134.013 168.536 135.2ZM160.956 135.2C160.956 136.04 161.056 136.773 161.256 137.4C161.456 138.013 161.769 138.487 162.196 138.82C162.622 139.153 163.169 139.32 163.836 139.32C164.502 139.32 165.049 139.153 165.476 138.82C165.902 138.487 166.216 138.013 166.416 137.4C166.629 136.773 166.736 136.04 166.736 135.2C166.736 134.347 166.629 133.62 166.416 133.02C166.216 132.42 165.902 131.96 165.476 131.64C165.049 131.307 164.496 131.14 163.816 131.14C162.816 131.14 162.089 131.5 161.636 132.22C161.182 132.94 160.956 133.933 160.956 135.2ZM172.862 140.58H171.122V125.38H172.862V140.58ZM178.264 140.58L174.444 129.86H176.304L178.424 136.18C178.531 136.473 178.638 136.8 178.744 137.16C178.851 137.52 178.944 137.867 179.024 138.2C179.118 138.52 179.178 138.793 179.204 139.02H179.284C179.324 138.793 179.391 138.513 179.484 138.18C179.578 137.847 179.678 137.5 179.784 137.14C179.904 136.78 180.011 136.46 180.104 136.18L182.224 129.86H184.084L180.244 140.58H178.264ZM187.433 129.86V140.58H185.693V129.86H187.433ZM186.573 125.84C186.839 125.84 187.073 125.933 187.273 126.12C187.473 126.293 187.573 126.573 187.573 126.96C187.573 127.333 187.473 127.613 187.273 127.8C187.073 127.987 186.839 128.08 186.573 128.08C186.293 128.08 186.053 127.987 185.853 127.8C185.653 127.613 185.553 127.333 185.553 126.96C185.553 126.573 185.653 126.293 185.853 126.12C186.053 125.933 186.293 125.84 186.573 125.84ZM201.735 129.66C202.881 129.66 203.735 129.973 204.295 130.6C204.855 131.213 205.135 132.213 205.135 133.6V140.58H203.415V133.68C203.415 132.84 203.248 132.207 202.915 131.78C202.595 131.353 202.088 131.14 201.395 131.14C200.435 131.14 199.748 131.44 199.335 132.04C198.935 132.64 198.735 133.513 198.735 134.66V140.58H196.995V133.68C196.995 133.12 196.921 132.653 196.775 132.28C196.628 131.893 196.408 131.607 196.115 131.42C195.821 131.233 195.441 131.14 194.975 131.14C194.308 131.14 193.781 131.293 193.395 131.6C193.008 131.893 192.735 132.327 192.575 132.9C192.415 133.473 192.335 134.18 192.335 135.02V140.58H190.595V129.86H191.995L192.255 131.32H192.355C192.568 130.947 192.828 130.64 193.135 130.4C193.441 130.147 193.781 129.96 194.155 129.84C194.528 129.72 194.915 129.66 195.315 129.66C196.088 129.66 196.735 129.807 197.255 130.1C197.775 130.393 198.155 130.847 198.395 131.46H198.515C198.848 130.847 199.301 130.393 199.875 130.1C200.461 129.807 201.081 129.66 201.735 129.66ZM212.151 129.66C213.018 129.66 213.765 129.86 214.391 130.26C215.018 130.66 215.498 131.227 215.831 131.96C216.178 132.68 216.351 133.527 216.351 134.5V135.56H209.471C209.498 136.773 209.785 137.7 210.331 138.34C210.878 138.967 211.645 139.28 212.631 139.28C213.271 139.28 213.838 139.22 214.331 139.1C214.838 138.967 215.358 138.78 215.891 138.54V140.08C215.371 140.32 214.858 140.493 214.351 140.6C213.858 140.72 213.258 140.78 212.551 140.78C211.591 140.78 210.745 140.573 210.011 140.16C209.278 139.747 208.705 139.133 208.291 138.32C207.878 137.493 207.671 136.487 207.671 135.3C207.671 134.127 207.858 133.12 208.231 132.28C208.605 131.44 209.125 130.793 209.791 130.34C210.471 129.887 211.258 129.66 212.151 129.66ZM212.151 131.1C211.378 131.1 210.765 131.373 210.311 131.92C209.858 132.453 209.591 133.2 209.511 134.16H214.551C214.551 133.547 214.465 133.013 214.291 132.56C214.118 132.107 213.851 131.753 213.491 131.5C213.145 131.233 212.698 131.1 212.151 131.1ZM223.796 129.66C224.996 129.66 225.903 129.973 226.516 130.6C227.143 131.213 227.456 132.213 227.456 133.6V140.58H225.716V133.72C225.716 132.853 225.536 132.207 225.176 131.78C224.816 131.353 224.263 131.14 223.516 131.14C222.423 131.14 221.663 131.473 221.236 132.14C220.823 132.807 220.616 133.767 220.616 135.02V140.58H218.876V129.86H220.276L220.536 131.32H220.636C220.849 130.947 221.123 130.64 221.456 130.4C221.789 130.147 222.156 129.96 222.556 129.84C222.956 129.72 223.369 129.66 223.796 129.66ZM234.016 139.34C234.269 139.34 234.529 139.32 234.796 139.28C235.062 139.227 235.282 139.173 235.456 139.12V140.46C235.269 140.553 235.002 140.627 234.656 140.68C234.322 140.747 234.002 140.78 233.696 140.78C233.162 140.78 232.669 140.687 232.216 140.5C231.762 140.3 231.396 139.96 231.116 139.48C230.849 139 230.716 138.327 230.716 137.46V131.22H229.296V130.38L230.756 129.68L231.416 127.4H232.456V129.86H235.376V131.22H232.456V137.42C232.456 138.073 232.602 138.56 232.896 138.88C233.189 139.187 233.562 139.34 234.016 139.34ZM246.27 135.2C246.27 136.093 246.157 136.887 245.93 137.58C245.717 138.26 245.403 138.84 244.99 139.32C244.577 139.8 244.077 140.167 243.49 140.42C242.903 140.66 242.25 140.78 241.53 140.78C240.863 140.78 240.243 140.66 239.67 140.42C239.11 140.167 238.617 139.8 238.19 139.32C237.777 138.84 237.457 138.26 237.23 137.58C237.003 136.887 236.89 136.093 236.89 135.2C236.89 134.013 237.077 133.013 237.45 132.2C237.837 131.373 238.383 130.747 239.09 130.32C239.797 129.88 240.63 129.66 241.59 129.66C242.51 129.66 243.317 129.88 244.01 130.32C244.717 130.747 245.27 131.373 245.67 132.2C246.07 133.013 246.27 134.013 246.27 135.2ZM238.69 135.2C238.69 136.04 238.79 136.773 238.99 137.4C239.19 138.013 239.503 138.487 239.93 138.82C240.357 139.153 240.903 139.32 241.57 139.32C242.237 139.32 242.783 139.153 243.21 138.82C243.637 138.487 243.95 138.013 244.15 137.4C244.363 136.773 244.47 136.04 244.47 135.2C244.47 134.347 244.363 133.62 244.15 133.02C243.95 132.42 243.637 131.96 243.21 131.64C242.783 131.307 242.23 131.14 241.55 131.14C240.55 131.14 239.823 131.5 239.37 132.22C238.917 132.94 238.69 133.933 238.69 135.2Z" fill="#667085"/>
</svg>
