<svg width="342" height="223" viewBox="0 0 342 223" fill="none" xmlns="http://www.w3.org/2000/svg">
<path d="M91.9974 48H85.7863V27.2185C85.7863 26.5336 85.7863 25.8331 85.7863 25.117C85.8174 24.4009 85.833 23.6849 85.833 22.9688C85.8641 22.2216 85.8952 21.5367 85.9264 20.914C85.615 21.2253 85.257 21.5989 84.8523 22.0348C84.4787 22.4707 84.0584 22.891 83.5914 23.2957L80.1356 26.2845L76.96 22.6419L86.6736 14.6562H91.9974V48ZM101.058 45.0112C101.058 43.7036 101.4 42.7852 102.085 42.2559C102.801 41.6955 103.658 41.4153 104.654 41.4153C105.65 41.4153 106.491 41.6799 107.176 42.2092C107.892 42.7385 108.25 43.6725 108.25 45.0112C108.25 46.2877 107.892 47.2061 107.176 47.7665C106.491 48.3269 105.65 48.6071 104.654 48.6071C103.658 48.6071 102.801 48.3269 102.085 47.7665C101.4 47.2061 101.058 46.2877 101.058 45.0112ZM111.69 33.8032C111.69 31.8729 111.815 29.9738 112.064 28.1058C112.344 26.2378 112.795 24.4788 113.418 22.8287C114.072 21.1475 114.975 19.6687 116.127 18.3922C117.31 17.0846 118.804 16.0728 120.61 15.3567C122.416 14.6095 124.595 14.2359 127.148 14.2359C127.771 14.2359 128.487 14.267 129.296 14.3293C130.106 14.3916 130.775 14.485 131.304 14.6095V19.4663C130.744 19.2795 130.121 19.155 129.436 19.0927C128.751 18.9993 128.02 18.9526 127.241 18.9526C125.404 18.9526 123.863 19.2484 122.618 19.8399C121.404 20.4003 120.423 21.2098 119.676 22.2683C118.96 23.3268 118.431 24.5566 118.088 25.9576C117.746 27.3275 117.543 28.853 117.481 30.5342H117.714C118.15 29.787 118.664 29.1176 119.256 28.5261C119.878 27.9346 120.625 27.4676 121.497 27.1251C122.4 26.7826 123.427 26.6114 124.579 26.6114C126.416 26.6114 128.004 27.0317 129.343 27.8723C130.682 28.6818 131.709 29.8648 132.425 31.4215C133.141 32.947 133.499 34.815 133.499 37.0255C133.499 39.3916 133.063 41.4309 132.191 43.1432C131.351 44.8555 130.152 46.1787 128.596 47.1127C127.039 48.0156 125.171 48.467 122.992 48.467C121.404 48.467 119.925 48.1712 118.555 47.5797C117.185 46.9882 115.987 46.1009 114.959 44.9178C113.932 43.7036 113.122 42.1781 112.531 40.3412C111.97 38.4732 111.69 36.2939 111.69 33.8032ZM122.851 43.6569C124.221 43.6569 125.327 43.1276 126.167 42.0691C127.008 40.9794 127.428 39.3138 127.428 37.0722C127.428 35.2665 127.054 33.8499 126.307 32.8225C125.56 31.764 124.455 31.2347 122.992 31.2347C121.933 31.2347 121.03 31.4993 120.283 32.0286C119.536 32.5267 118.944 33.1805 118.508 33.99C118.104 34.7683 117.901 35.5778 117.901 36.4184C117.901 37.2901 117.995 38.1463 118.181 38.9869C118.399 39.8275 118.711 40.6058 119.115 41.3219C119.551 42.038 120.081 42.6139 120.703 43.0498C121.326 43.4545 122.042 43.6569 122.851 43.6569ZM157.737 28.8997C157.737 30.8922 157.581 32.8536 157.27 34.7839C156.99 36.683 156.507 38.4576 155.822 40.1077C155.137 41.7578 154.203 43.221 153.02 44.4975C151.868 45.7428 150.39 46.7235 148.584 47.4396C146.809 48.1245 144.677 48.467 142.186 48.467C141.563 48.467 140.847 48.4359 140.038 48.3736C139.228 48.3113 138.543 48.2179 137.983 48.0934V43.2366C138.543 43.3923 139.151 43.5168 139.804 43.6102C140.489 43.7036 141.143 43.7503 141.766 43.7503C143.727 43.7503 145.346 43.4701 146.623 42.9097C147.899 42.3182 148.911 41.5087 149.658 40.4813C150.436 39.4228 150.981 38.193 151.293 36.792C151.635 35.3599 151.837 33.8343 151.9 32.2154H151.619C151.215 32.9315 150.717 33.5853 150.125 34.1768C149.533 34.7683 148.802 35.2353 147.93 35.5778C147.058 35.9203 145.953 36.0915 144.614 36.0915C142.84 36.0915 141.299 35.6868 139.991 34.8773C138.715 34.0678 137.718 32.9003 137.002 31.3748C136.286 29.8181 135.928 27.9346 135.928 25.7241C135.928 23.3268 136.349 21.272 137.189 19.5597C138.061 17.8162 139.275 16.4931 140.832 15.5902C142.388 14.6562 144.256 14.1892 146.436 14.1892C148.024 14.1892 149.502 14.5005 150.872 15.1232C152.242 15.7147 153.441 16.6176 154.468 17.8318C155.496 19.0149 156.289 20.5404 156.85 22.4084C157.441 24.2453 157.737 26.409 157.737 28.8997ZM146.529 18.9993C145.19 18.9993 144.085 19.5441 143.213 20.6338C142.373 21.7235 141.953 23.3891 141.953 25.6307C141.953 27.4364 142.311 28.8686 143.027 29.9271C143.774 30.9545 144.879 31.4682 146.342 31.4682C147.401 31.4682 148.304 31.2191 149.051 30.721C149.829 30.1917 150.421 29.5379 150.826 28.7596C151.261 27.9813 151.479 27.1562 151.479 26.2845C151.479 25.3816 151.37 24.4943 151.152 23.6226C150.966 22.7509 150.67 21.9725 150.265 21.2876C149.86 20.6027 149.331 20.0578 148.677 19.6531C148.055 19.2172 147.339 18.9993 146.529 18.9993ZM171.654 27.0317C173.616 27.0317 175.344 27.4209 176.838 28.1992C178.333 28.9775 179.5 30.1139 180.341 31.6083C181.212 33.0716 181.648 34.8773 181.648 37.0255C181.648 39.3916 181.181 41.4309 180.247 43.1432C179.313 44.8555 177.928 46.1787 176.091 47.1127C174.285 48.0156 172.028 48.467 169.319 48.467C167.669 48.467 166.113 48.3113 164.649 48C163.186 47.6887 161.925 47.2372 160.867 46.6457V41.4153C161.956 42.038 163.264 42.5517 164.79 42.9564C166.315 43.3611 167.747 43.5635 169.086 43.5635C170.394 43.5635 171.514 43.3611 172.448 42.9564C173.382 42.5205 174.098 41.8667 174.597 40.995C175.095 40.0921 175.344 38.9558 175.344 37.5859C175.344 35.7179 174.814 34.3013 173.756 33.3362C172.697 32.3711 171.063 31.8885 168.852 31.8885C168.043 31.8885 167.187 31.9663 166.284 32.122C165.381 32.2777 164.634 32.4333 164.042 32.589L161.474 31.188L162.688 14.6562H179.5V19.7932H168.059L167.451 27.4987C167.95 27.4053 168.51 27.3119 169.133 27.2185C169.786 27.094 170.627 27.0317 171.654 27.0317ZM185.432 45.0112C185.432 43.7036 185.774 42.7852 186.459 42.2559C187.175 41.6955 188.031 41.4153 189.028 41.4153C190.024 41.4153 190.864 41.6799 191.549 42.2092C192.265 42.7385 192.623 43.6725 192.623 45.0112C192.623 46.2877 192.265 47.2061 191.549 47.7665C190.864 48.3269 190.024 48.6071 189.028 48.6071C188.031 48.6071 187.175 48.3269 186.459 47.7665C185.774 47.2061 185.432 46.2877 185.432 45.0112ZM217.733 48H196.017V43.6569L203.91 35.0641C205.497 33.3518 206.774 31.8885 207.739 30.6743C208.704 29.429 209.405 28.277 209.84 27.2185C210.307 26.16 210.541 25.008 210.541 23.7627C210.541 22.2372 210.152 21.1008 209.373 20.3536C208.626 19.5753 207.63 19.1861 206.385 19.1861C205.139 19.1861 203.956 19.4819 202.835 20.0734C201.746 20.6338 200.594 21.4433 199.38 22.5018L195.971 18.6257C196.873 17.8162 197.823 17.0846 198.819 16.4308C199.816 15.7459 200.967 15.201 202.275 14.7963C203.614 14.3916 205.155 14.1892 206.898 14.1892C208.922 14.1892 210.665 14.5784 212.129 15.3567C213.623 16.1039 214.775 17.1469 215.585 18.4856C216.394 19.8243 216.799 21.381 216.799 23.1556C216.799 24.5255 216.596 25.7864 216.192 26.9383C215.818 28.0902 215.258 29.2266 214.51 30.3474C213.763 31.4682 212.876 32.6201 211.849 33.8032C210.821 34.9863 209.669 36.2783 208.393 37.6793L203.863 42.6295V42.9097H217.733V48ZM243.092 40.8549H239.169V48H233.051V40.8549H219.368V36.4651L233.238 14.5628H239.169V36.0448H243.092V40.8549ZM233.051 28.5728C233.051 27.919 233.051 27.2496 233.051 26.5647C233.082 25.8486 233.113 25.1481 233.144 24.4632C233.176 23.7783 233.207 23.1556 233.238 22.5952C233.269 22.0348 233.285 21.5989 233.285 21.2876H233.098C232.849 21.8791 232.569 22.4862 232.257 23.1089C231.946 23.7316 231.635 24.3387 231.323 24.9302L224.925 36.0448H233.051V28.5728ZM267.423 40.8549H263.5V48H257.383V40.8549H243.699V36.4651L257.569 14.5628H263.5V36.0448H267.423V40.8549ZM257.383 28.5728C257.383 27.919 257.383 27.2496 257.383 26.5647C257.414 25.8486 257.445 25.1481 257.476 24.4632C257.507 23.7783 257.538 23.1556 257.569 22.5952C257.6 22.0348 257.616 21.5989 257.616 21.2876H257.429C257.18 21.8791 256.9 22.4862 256.589 23.1089C256.277 23.7316 255.966 24.3387 255.655 24.9302L249.257 36.0448H257.383V28.5728Z" fill="#834781"/>
<path d="M96.4235 67.72C97.5435 67.72 98.4835 67.8333 99.2435 68.06C100.003 68.2867 100.577 68.66 100.963 69.18C101.35 69.7 101.543 70.3933 101.543 71.26C101.543 71.82 101.443 72.32 101.243 72.76C101.057 73.1867 100.777 73.5467 100.403 73.84C100.03 74.12 99.5701 74.3133 99.0235 74.42V74.52C99.5835 74.6133 100.083 74.7867 100.523 75.04C100.977 75.2933 101.33 75.6533 101.583 76.12C101.85 76.5867 101.983 77.1933 101.983 77.94C101.983 78.8067 101.79 79.5467 101.403 80.16C101.03 80.76 100.497 81.22 99.8035 81.54C99.1101 81.8467 98.2768 82 97.3035 82H92.5635V67.72H96.4235ZM96.7635 73.8C97.8835 73.8 98.6501 73.6067 99.0635 73.22C99.4901 72.82 99.7035 72.2333 99.7035 71.46C99.7035 70.6733 99.4435 70.1133 98.9235 69.78C98.4168 69.4333 97.6101 69.26 96.5035 69.26H94.3435V73.8H96.7635ZM94.3435 75.3V80.48H96.9835C98.1435 80.48 98.9501 80.2333 99.4035 79.74C99.8701 79.2467 100.103 78.6 100.103 77.8C100.103 77.2933 99.9968 76.8533 99.7835 76.48C99.5835 76.1067 99.2501 75.82 98.7835 75.62C98.3168 75.4067 97.6768 75.3 96.8635 75.3H94.3435ZM106.329 82H104.589V71.28H106.329V82ZM108.409 66.88C108.289 67.0667 108.116 67.2933 107.889 67.56C107.676 67.8267 107.436 68.1067 107.169 68.4C106.916 68.68 106.656 68.9533 106.389 69.22C106.122 69.4733 105.876 69.6933 105.649 69.88H104.509V69.64C104.696 69.3867 104.902 69.0867 105.129 68.74C105.356 68.3933 105.576 68.04 105.789 67.68C106.002 67.3067 106.182 66.9733 106.329 66.68H108.409V66.88ZM111.231 70.5C111.231 70.9533 111.218 71.38 111.191 71.78C111.178 72.1667 111.158 72.4733 111.131 72.7H111.231C111.511 72.2467 111.905 71.8667 112.411 71.56C112.918 71.2533 113.558 71.1 114.331 71.1C115.585 71.1 116.585 71.5667 117.331 72.5C118.091 73.42 118.471 74.8 118.471 76.64C118.471 77.8667 118.298 78.8933 117.951 79.72C117.605 80.5467 117.118 81.1667 116.491 81.58C115.878 81.9933 115.158 82.2 114.331 82.2C113.545 82.2 112.898 82.0467 112.391 81.74C111.898 81.4333 111.511 81.0667 111.231 80.64H111.091L110.751 82H109.491V66.8H111.231V70.5ZM114.011 72.56C113.318 72.56 112.765 72.7067 112.351 73C111.951 73.28 111.665 73.72 111.491 74.32C111.318 74.9067 111.231 75.66 111.231 76.58V76.66C111.231 77.98 111.425 78.9933 111.811 79.7C112.211 80.3933 112.958 80.74 114.051 80.74C114.918 80.74 115.571 80.3867 116.011 79.68C116.451 78.9733 116.671 77.9533 116.671 76.62C116.671 75.2733 116.451 74.26 116.011 73.58C115.571 72.9 114.905 72.56 114.011 72.56ZM122.813 82H121.073V66.8H122.813V82ZM127.736 71.28V82H125.996V71.28H127.736ZM126.876 67.26C127.142 67.26 127.376 67.3533 127.576 67.54C127.776 67.7133 127.876 67.9933 127.876 68.38C127.876 68.7533 127.776 69.0333 127.576 69.22C127.376 69.4067 127.142 69.5 126.876 69.5C126.596 69.5 126.356 69.4067 126.156 69.22C125.956 69.0333 125.856 68.7533 125.856 68.38C125.856 67.9933 125.956 67.7133 126.156 67.54C126.356 67.3533 126.596 67.26 126.876 67.26ZM134.758 71.1C135.984 71.1 136.898 71.3867 137.498 71.96C138.111 72.5333 138.418 73.4467 138.418 74.7V82H137.158L136.818 80.48H136.738C136.444 80.8667 136.144 81.1933 135.838 81.46C135.544 81.7133 135.198 81.9 134.798 82.02C134.411 82.14 133.931 82.2 133.358 82.2C132.758 82.2 132.218 82.0867 131.738 81.86C131.258 81.6333 130.878 81.2867 130.598 80.82C130.318 80.34 130.178 79.74 130.178 79.02C130.178 77.9533 130.571 77.1333 131.358 76.56C132.144 75.9733 133.358 75.6533 134.998 75.6L136.698 75.54V74.9C136.698 74.0067 136.518 73.3867 136.158 73.04C135.811 72.6933 135.311 72.52 134.658 72.52C134.138 72.52 133.638 72.6067 133.158 72.78C132.691 72.94 132.244 73.1267 131.818 73.34L131.278 72.02C131.731 71.7667 132.258 71.5533 132.858 71.38C133.458 71.1933 134.091 71.1 134.758 71.1ZM135.238 76.82C134.011 76.8733 133.158 77.0867 132.678 77.46C132.211 77.8333 131.978 78.36 131.978 79.04C131.978 79.64 132.144 80.08 132.478 80.36C132.811 80.64 133.244 80.78 133.778 80.78C134.604 80.78 135.298 80.5333 135.858 80.04C136.418 79.5333 136.698 78.76 136.698 77.72V76.76L135.238 76.82ZM148.143 79.04C148.143 79.7333 147.976 80.3133 147.643 80.78C147.323 81.2467 146.863 81.6 146.263 81.84C145.663 82.08 144.943 82.2 144.103 82.2C143.396 82.2 142.783 82.14 142.263 82.02C141.756 81.9 141.309 81.7333 140.923 81.52V79.92C141.336 80.1333 141.829 80.3333 142.403 80.52C142.976 80.6933 143.556 80.78 144.143 80.78C144.956 80.78 145.543 80.64 145.903 80.36C146.276 80.0667 146.463 79.68 146.463 79.2C146.463 78.9333 146.389 78.6933 146.243 78.48C146.109 78.2667 145.863 78.0533 145.503 77.84C145.156 77.6267 144.649 77.3867 143.983 77.12C143.343 76.8533 142.789 76.5867 142.323 76.32C141.869 76.0533 141.516 75.7333 141.263 75.36C141.023 74.9867 140.903 74.5067 140.903 73.92C140.903 73.0133 141.249 72.3133 141.943 71.82C142.649 71.3267 143.569 71.08 144.703 71.08C145.316 71.08 145.889 71.1467 146.423 71.28C146.956 71.4 147.463 71.5733 147.943 71.8L147.363 73.2C147.083 73.0667 146.789 72.9533 146.483 72.86C146.176 72.7533 145.863 72.6733 145.543 72.62C145.236 72.5533 144.923 72.52 144.603 72.52C143.949 72.52 143.449 72.64 143.103 72.88C142.756 73.1067 142.583 73.42 142.583 73.82C142.583 74.1133 142.663 74.3667 142.823 74.58C142.983 74.7933 143.243 75 143.603 75.2C143.976 75.3867 144.483 75.6067 145.123 75.86C145.763 76.1133 146.309 76.3733 146.763 76.64C147.216 76.9067 147.556 77.2333 147.783 77.62C148.023 77.9933 148.143 78.4667 148.143 79.04ZM159.368 71.08C160.235 71.08 160.982 71.28 161.608 71.68C162.235 72.08 162.715 72.6467 163.048 73.38C163.395 74.1 163.568 74.9467 163.568 75.92V76.98H156.688C156.715 78.1933 157.002 79.12 157.548 79.76C158.095 80.3867 158.862 80.7 159.848 80.7C160.488 80.7 161.055 80.64 161.548 80.52C162.055 80.3867 162.575 80.2 163.108 79.96V81.5C162.588 81.74 162.075 81.9133 161.568 82.02C161.075 82.14 160.475 82.2 159.768 82.2C158.808 82.2 157.962 81.9933 157.228 81.58C156.495 81.1667 155.922 80.5533 155.508 79.74C155.095 78.9133 154.888 77.9067 154.888 76.72C154.888 75.5467 155.075 74.54 155.448 73.7C155.822 72.86 156.342 72.2133 157.008 71.76C157.688 71.3067 158.475 71.08 159.368 71.08ZM159.368 72.52C158.595 72.52 157.982 72.7933 157.528 73.34C157.075 73.8733 156.808 74.62 156.728 75.58H161.768C161.768 74.9667 161.682 74.4333 161.508 73.98C161.335 73.5267 161.068 73.1733 160.708 72.92C160.362 72.6533 159.915 72.52 159.368 72.52ZM172.716 82H170.976V66.8H172.716V82ZM177.638 71.28V82H175.898V71.28H177.638ZM176.778 67.26C177.045 67.26 177.278 67.3533 177.478 67.54C177.678 67.7133 177.778 67.9933 177.778 68.38C177.778 68.7533 177.678 69.0333 177.478 69.22C177.278 69.4067 177.045 69.5 176.778 69.5C176.498 69.5 176.258 69.4067 176.058 69.22C175.858 69.0333 175.758 68.7533 175.758 68.38C175.758 67.9933 175.858 67.7133 176.058 67.54C176.258 67.3533 176.498 67.26 176.778 67.26ZM184.26 80.76C184.513 80.76 184.773 80.74 185.04 80.7C185.307 80.6467 185.527 80.5933 185.7 80.54V81.88C185.513 81.9733 185.247 82.0467 184.9 82.1C184.567 82.1667 184.247 82.2 183.94 82.2C183.407 82.2 182.913 82.1067 182.46 81.92C182.007 81.72 181.64 81.38 181.36 80.9C181.093 80.42 180.96 79.7467 180.96 78.88V72.64H179.54V71.8L181 71.1L181.66 68.82H182.7V71.28H185.62V72.64H182.7V78.84C182.7 79.4933 182.847 79.98 183.14 80.3C183.433 80.6067 183.807 80.76 184.26 80.76ZM191.615 71.08C192.481 71.08 193.228 71.28 193.855 71.68C194.481 72.08 194.961 72.6467 195.295 73.38C195.641 74.1 195.815 74.9467 195.815 75.92V76.98H188.935C188.961 78.1933 189.248 79.12 189.795 79.76C190.341 80.3867 191.108 80.7 192.095 80.7C192.735 80.7 193.301 80.64 193.795 80.52C194.301 80.3867 194.821 80.2 195.355 79.96V81.5C194.835 81.74 194.321 81.9133 193.815 82.02C193.321 82.14 192.721 82.2 192.015 82.2C191.055 82.2 190.208 81.9933 189.475 81.58C188.741 81.1667 188.168 80.5533 187.755 79.74C187.341 78.9133 187.135 77.9067 187.135 76.72C187.135 75.5467 187.321 74.54 187.695 73.7C188.068 72.86 188.588 72.2133 189.255 71.76C189.935 71.3067 190.721 71.08 191.615 71.08ZM191.615 72.52C190.841 72.52 190.228 72.7933 189.775 73.34C189.321 73.8733 189.055 74.62 188.975 75.58H194.015C194.015 74.9667 193.928 74.4333 193.755 73.98C193.581 73.5267 193.315 73.1733 192.955 72.92C192.608 72.6533 192.161 72.52 191.615 72.52ZM203.119 71.08C203.306 71.08 203.506 71.0933 203.719 71.12C203.932 71.1333 204.119 71.16 204.279 71.2L204.079 72.82C203.919 72.78 203.739 72.7467 203.539 72.72C203.352 72.6933 203.172 72.68 202.999 72.68C202.612 72.68 202.246 72.7667 201.899 72.94C201.552 73.1133 201.239 73.36 200.959 73.68C200.692 73.9867 200.479 74.36 200.319 74.8C200.159 75.24 200.079 75.7333 200.079 76.28V82H198.339V71.28H199.759L199.959 73.24H200.039C200.252 72.84 200.506 72.48 200.799 72.16C201.106 71.8267 201.452 71.5667 201.839 71.38C202.226 71.18 202.652 71.08 203.119 71.08ZM209.64 71.1C210.867 71.1 211.78 71.3867 212.38 71.96C212.994 72.5333 213.3 73.4467 213.3 74.7V82H212.04L211.7 80.48H211.62C211.327 80.8667 211.027 81.1933 210.72 81.46C210.427 81.7133 210.08 81.9 209.68 82.02C209.294 82.14 208.814 82.2 208.24 82.2C207.64 82.2 207.1 82.0867 206.62 81.86C206.14 81.6333 205.76 81.2867 205.48 80.82C205.2 80.34 205.06 79.74 205.06 79.02C205.06 77.9533 205.454 77.1333 206.24 76.56C207.027 75.9733 208.24 75.6533 209.88 75.6L211.58 75.54V74.9C211.58 74.0067 211.4 73.3867 211.04 73.04C210.694 72.6933 210.194 72.52 209.54 72.52C209.02 72.52 208.52 72.6067 208.04 72.78C207.574 72.94 207.127 73.1267 206.7 73.34L206.16 72.02C206.614 71.7667 207.14 71.5533 207.74 71.38C208.34 71.1933 208.974 71.1 209.64 71.1ZM210.12 76.82C208.894 76.8733 208.04 77.0867 207.56 77.46C207.094 77.8333 206.86 78.36 206.86 79.04C206.86 79.64 207.027 80.08 207.36 80.36C207.694 80.64 208.127 80.78 208.66 80.78C209.487 80.78 210.18 80.5333 210.74 80.04C211.3 79.5333 211.58 78.76 211.58 77.72V76.76L210.12 76.82ZM219.865 80.76C220.119 80.76 220.379 80.74 220.645 80.7C220.912 80.6467 221.132 80.5933 221.305 80.54V81.88C221.119 81.9733 220.852 82.0467 220.505 82.1C220.172 82.1667 219.852 82.2 219.545 82.2C219.012 82.2 218.519 82.1067 218.065 81.92C217.612 81.72 217.245 81.38 216.965 80.9C216.699 80.42 216.565 79.7467 216.565 78.88V72.64H215.145V71.8L216.605 71.1L217.265 68.82H218.305V71.28H221.225V72.64H218.305V78.84C218.305 79.4933 218.452 79.98 218.745 80.3C219.039 80.6067 219.412 80.76 219.865 80.76ZM231.8 71.28V82H230.4L230.14 80.58H230.06C229.847 80.9533 229.567 81.26 229.22 81.5C228.887 81.74 228.52 81.9133 228.12 82.02C227.72 82.14 227.3 82.2 226.86 82.2C226.06 82.2 225.387 82.0667 224.84 81.8C224.293 81.52 223.88 81.0933 223.6 80.52C223.333 79.9467 223.2 79.2067 223.2 78.3V71.28H224.96V78.18C224.96 79.0333 225.14 79.6733 225.5 80.1C225.86 80.5267 226.413 80.74 227.16 80.74C227.893 80.74 228.467 80.5933 228.88 80.3C229.307 79.9933 229.607 79.5533 229.78 78.98C229.967 78.3933 230.06 77.6867 230.06 76.86V71.28H231.8ZM239.74 71.08C239.927 71.08 240.127 71.0933 240.34 71.12C240.554 71.1333 240.74 71.16 240.9 71.2L240.7 72.82C240.54 72.78 240.36 72.7467 240.16 72.72C239.974 72.6933 239.794 72.68 239.62 72.68C239.234 72.68 238.867 72.7667 238.52 72.94C238.174 73.1133 237.86 73.36 237.58 73.68C237.314 73.9867 237.1 74.36 236.94 74.8C236.78 75.24 236.7 75.7333 236.7 76.28V82H234.96V71.28H236.38L236.58 73.24H236.66C236.874 72.84 237.127 72.48 237.42 72.16C237.727 71.8267 238.074 71.5667 238.46 71.38C238.847 71.18 239.274 71.08 239.74 71.08ZM246.262 71.1C247.488 71.1 248.402 71.3867 249.002 71.96C249.615 72.5333 249.922 73.4467 249.922 74.7V82H248.662L248.322 80.48H248.242C247.948 80.8667 247.648 81.1933 247.342 81.46C247.048 81.7133 246.702 81.9 246.302 82.02C245.915 82.14 245.435 82.2 244.862 82.2C244.262 82.2 243.722 82.0867 243.242 81.86C242.762 81.6333 242.382 81.2867 242.102 80.82C241.822 80.34 241.682 79.74 241.682 79.02C241.682 77.9533 242.075 77.1333 242.862 76.56C243.648 75.9733 244.862 75.6533 246.502 75.6L248.202 75.54V74.9C248.202 74.0067 248.022 73.3867 247.662 73.04C247.315 72.6933 246.815 72.52 246.162 72.52C245.642 72.52 245.142 72.6067 244.662 72.78C244.195 72.94 243.748 73.1267 243.322 73.34L242.782 72.02C243.235 71.7667 243.762 71.5533 244.362 71.38C244.962 71.1933 245.595 71.1 246.262 71.1ZM246.742 76.82C245.515 76.8733 244.662 77.0867 244.182 77.46C243.715 77.8333 243.482 78.36 243.482 79.04C243.482 79.64 243.648 80.08 243.982 80.36C244.315 80.64 244.748 80.78 245.282 80.78C246.108 80.78 246.802 80.5333 247.362 80.04C247.922 79.5333 248.202 78.76 248.202 77.72V76.76L246.742 76.82ZM97.819 111.2C96.9123 111.2 96.1123 111.007 95.419 110.62C94.7257 110.233 94.179 109.633 93.779 108.82C93.3923 108.007 93.199 106.967 93.199 105.7C93.199 104.38 93.4057 103.307 93.819 102.48C94.2323 101.653 94.7923 101.047 95.499 100.66C96.219 100.273 97.0323 100.08 97.939 100.08C98.459 100.08 98.959 100.14 99.439 100.26C99.9323 100.367 100.332 100.5 100.639 100.66L100.099 102.12C99.7923 102 99.4323 101.887 99.019 101.78C98.619 101.673 98.2457 101.62 97.899 101.62C97.2457 101.62 96.7057 101.773 96.279 102.08C95.8523 102.387 95.5323 102.84 95.319 103.44C95.1057 104.04 94.999 104.787 94.999 105.68C94.999 106.533 95.1057 107.26 95.319 107.86C95.5323 108.46 95.8457 108.913 96.259 109.22C96.6857 109.527 97.2057 109.68 97.819 109.68C98.3657 109.68 98.8523 109.62 99.279 109.5C99.7057 109.38 100.099 109.233 100.459 109.06V110.62C100.112 110.807 99.7323 110.947 99.319 111.04C98.9057 111.147 98.4057 111.2 97.819 111.2ZM107.621 100.08C107.808 100.08 108.008 100.093 108.221 100.12C108.434 100.133 108.621 100.16 108.781 100.2L108.581 101.82C108.421 101.78 108.241 101.747 108.041 101.72C107.854 101.693 107.674 101.68 107.501 101.68C107.114 101.68 106.748 101.767 106.401 101.94C106.054 102.113 105.741 102.36 105.461 102.68C105.194 102.987 104.981 103.36 104.821 103.8C104.661 104.24 104.581 104.733 104.581 105.28V111H102.841V100.28H104.261L104.461 102.24H104.541C104.754 101.84 105.008 101.48 105.301 101.16C105.608 100.827 105.954 100.567 106.341 100.38C106.728 100.18 107.154 100.08 107.621 100.08ZM112.414 100.28V111H110.674V100.28H112.414ZM111.554 96.26C111.82 96.26 112.054 96.3533 112.254 96.54C112.454 96.7133 112.554 96.9933 112.554 97.38C112.554 97.7533 112.454 98.0333 112.254 98.22C112.054 98.4067 111.82 98.5 111.554 98.5C111.274 98.5 111.034 98.4067 110.834 98.22C110.634 98.0333 110.534 97.7533 110.534 97.38C110.534 96.9933 110.634 96.7133 110.834 96.54C111.034 96.3533 111.274 96.26 111.554 96.26ZM122.195 108.04C122.195 108.733 122.029 109.313 121.695 109.78C121.375 110.247 120.915 110.6 120.315 110.84C119.715 111.08 118.995 111.2 118.155 111.2C117.449 111.2 116.835 111.14 116.315 111.02C115.809 110.9 115.362 110.733 114.975 110.52V108.92C115.389 109.133 115.882 109.333 116.455 109.52C117.029 109.693 117.609 109.78 118.195 109.78C119.009 109.78 119.595 109.64 119.955 109.36C120.329 109.067 120.515 108.68 120.515 108.2C120.515 107.933 120.442 107.693 120.295 107.48C120.162 107.267 119.915 107.053 119.555 106.84C119.209 106.627 118.702 106.387 118.035 106.12C117.395 105.853 116.842 105.587 116.375 105.32C115.922 105.053 115.569 104.733 115.315 104.36C115.075 103.987 114.955 103.507 114.955 102.92C114.955 102.013 115.302 101.313 115.995 100.82C116.702 100.327 117.622 100.08 118.755 100.08C119.369 100.08 119.942 100.147 120.475 100.28C121.009 100.4 121.515 100.573 121.995 100.8L121.415 102.2C121.135 102.067 120.842 101.953 120.535 101.86C120.229 101.753 119.915 101.673 119.595 101.62C119.289 101.553 118.975 101.52 118.655 101.52C118.002 101.52 117.502 101.64 117.155 101.88C116.809 102.107 116.635 102.42 116.635 102.82C116.635 103.113 116.715 103.367 116.875 103.58C117.035 103.793 117.295 104 117.655 104.2C118.029 104.387 118.535 104.607 119.175 104.86C119.815 105.113 120.362 105.373 120.815 105.64C121.269 105.907 121.609 106.233 121.835 106.62C122.075 106.993 122.195 107.467 122.195 108.04ZM128.078 109.76C128.332 109.76 128.592 109.74 128.858 109.7C129.125 109.647 129.345 109.593 129.518 109.54V110.88C129.332 110.973 129.065 111.047 128.718 111.1C128.385 111.167 128.065 111.2 127.758 111.2C127.225 111.2 126.732 111.107 126.278 110.92C125.825 110.72 125.458 110.38 125.178 109.9C124.912 109.42 124.778 108.747 124.778 107.88V101.64H123.358V100.8L124.818 100.1L125.478 97.82H126.518V100.28H129.438V101.64H126.518V107.84C126.518 108.493 126.665 108.98 126.958 109.3C127.252 109.607 127.625 109.76 128.078 109.76ZM135.373 100.1C136.6 100.1 137.513 100.387 138.113 100.96C138.726 101.533 139.033 102.447 139.033 103.7V111H137.773L137.433 109.48H137.353C137.06 109.867 136.76 110.193 136.453 110.46C136.16 110.713 135.813 110.9 135.413 111.02C135.026 111.14 134.546 111.2 133.973 111.2C133.373 111.2 132.833 111.087 132.353 110.86C131.873 110.633 131.493 110.287 131.213 109.82C130.933 109.34 130.793 108.74 130.793 108.02C130.793 106.953 131.186 106.133 131.973 105.56C132.76 104.973 133.973 104.653 135.613 104.6L137.313 104.54V103.9C137.313 103.007 137.133 102.387 136.773 102.04C136.426 101.693 135.926 101.52 135.273 101.52C134.753 101.52 134.253 101.607 133.773 101.78C133.306 101.94 132.86 102.127 132.433 102.34L131.893 101.02C132.346 100.767 132.873 100.553 133.473 100.38C134.073 100.193 134.706 100.1 135.373 100.1ZM135.853 105.82C134.626 105.873 133.773 106.087 133.293 106.46C132.826 106.833 132.593 107.36 132.593 108.04C132.593 108.64 132.76 109.08 133.093 109.36C133.426 109.64 133.86 109.78 134.393 109.78C135.22 109.78 135.913 109.533 136.473 109.04C137.033 108.533 137.313 107.76 137.313 106.72V105.76L135.853 105.82ZM131.773 98.88C131.813 98.48 131.886 98.1267 131.993 97.82C132.113 97.5 132.26 97.2333 132.433 97.02C132.606 96.7933 132.813 96.62 133.053 96.5C133.306 96.38 133.58 96.32 133.873 96.32C134.153 96.32 134.42 96.38 134.673 96.5C134.926 96.6067 135.173 96.74 135.413 96.9C135.653 97.0467 135.88 97.18 136.093 97.3C136.32 97.4067 136.533 97.46 136.733 97.46C137.013 97.46 137.226 97.3667 137.373 97.18C137.533 96.98 137.66 96.6867 137.753 96.3H138.733C138.653 97.0733 138.433 97.6933 138.073 98.16C137.713 98.6267 137.24 98.86 136.653 98.86C136.386 98.86 136.126 98.8067 135.873 98.7C135.62 98.58 135.373 98.4467 135.133 98.3C134.893 98.14 134.66 98.0067 134.433 97.9C134.206 97.78 133.993 97.72 133.793 97.72C133.5 97.72 133.273 97.82 133.113 98.02C132.966 98.2067 132.853 98.4933 132.773 98.88H131.773ZM150.581 111.2C149.341 111.2 148.341 110.74 147.581 109.82C146.834 108.887 146.461 107.5 146.461 105.66C146.461 103.82 146.841 102.433 147.601 101.5C148.361 100.553 149.361 100.08 150.601 100.08C151.121 100.08 151.574 100.153 151.961 100.3C152.347 100.433 152.681 100.62 152.961 100.86C153.254 101.1 153.501 101.367 153.701 101.66H153.821C153.807 101.487 153.781 101.233 153.741 100.9C153.714 100.553 153.701 100.28 153.701 100.08V95.8H155.441V111H154.041L153.781 109.56H153.701C153.501 109.867 153.254 110.147 152.961 110.4C152.681 110.64 152.341 110.833 151.941 110.98C151.554 111.127 151.101 111.2 150.581 111.2ZM150.901 109.74C151.941 109.74 152.667 109.433 153.081 108.82C153.507 108.193 153.721 107.253 153.721 106V105.68C153.721 104.347 153.521 103.327 153.121 102.62C152.721 101.9 151.974 101.54 150.881 101.54C150.001 101.54 149.341 101.92 148.901 102.68C148.474 103.427 148.261 104.433 148.261 105.7C148.261 106.98 148.474 107.973 148.901 108.68C149.341 109.387 150.007 109.74 150.901 109.74ZM160.363 100.28V111H158.623V100.28H160.363ZM159.503 96.26C159.769 96.26 160.003 96.3533 160.203 96.54C160.403 96.7133 160.503 96.9933 160.503 97.38C160.503 97.7533 160.403 98.0333 160.203 98.22C160.003 98.4067 159.769 98.5 159.503 98.5C159.223 98.5 158.983 98.4067 158.783 98.22C158.583 98.0333 158.483 97.7533 158.483 97.38C158.483 96.9933 158.583 96.7133 158.783 96.54C158.983 96.3533 159.223 96.26 159.503 96.26ZM170.145 108.04C170.145 108.733 169.978 109.313 169.645 109.78C169.325 110.247 168.865 110.6 168.265 110.84C167.665 111.08 166.945 111.2 166.105 111.2C165.398 111.2 164.785 111.14 164.265 111.02C163.758 110.9 163.311 110.733 162.925 110.52V108.92C163.338 109.133 163.831 109.333 164.405 109.52C164.978 109.693 165.558 109.78 166.145 109.78C166.958 109.78 167.545 109.64 167.905 109.36C168.278 109.067 168.465 108.68 168.465 108.2C168.465 107.933 168.391 107.693 168.245 107.48C168.111 107.267 167.865 107.053 167.505 106.84C167.158 106.627 166.651 106.387 165.985 106.12C165.345 105.853 164.791 105.587 164.325 105.32C163.871 105.053 163.518 104.733 163.265 104.36C163.025 103.987 162.905 103.507 162.905 102.92C162.905 102.013 163.251 101.313 163.945 100.82C164.651 100.327 165.571 100.08 166.705 100.08C167.318 100.08 167.891 100.147 168.425 100.28C168.958 100.4 169.465 100.573 169.945 100.8L169.365 102.2C169.085 102.067 168.791 101.953 168.485 101.86C168.178 101.753 167.865 101.673 167.545 101.62C167.238 101.553 166.925 101.52 166.605 101.52C165.951 101.52 165.451 101.64 165.105 101.88C164.758 102.107 164.585 102.42 164.585 102.82C164.585 103.113 164.665 103.367 164.825 103.58C164.985 103.793 165.245 104 165.605 104.2C165.978 104.387 166.485 104.607 167.125 104.86C167.765 105.113 168.311 105.373 168.765 105.64C169.218 105.907 169.558 106.233 169.785 106.62C170.025 106.993 170.145 107.467 170.145 108.04ZM176.028 109.76C176.281 109.76 176.541 109.74 176.808 109.7C177.074 109.647 177.294 109.593 177.468 109.54V110.88C177.281 110.973 177.014 111.047 176.668 111.1C176.334 111.167 176.014 111.2 175.708 111.2C175.174 111.2 174.681 111.107 174.228 110.92C173.774 110.72 173.408 110.38 173.128 109.9C172.861 109.42 172.728 108.747 172.728 107.88V101.64H171.308V100.8L172.768 100.1L173.428 97.82H174.468V100.28H177.388V101.64H174.468V107.84C174.468 108.493 174.614 108.98 174.908 109.3C175.201 109.607 175.574 109.76 176.028 109.76ZM184.242 100.08C184.429 100.08 184.629 100.093 184.842 100.12C185.055 100.133 185.242 100.16 185.402 100.2L185.202 101.82C185.042 101.78 184.862 101.747 184.662 101.72C184.475 101.693 184.295 101.68 184.122 101.68C183.735 101.68 183.369 101.767 183.022 101.94C182.675 102.113 182.362 102.36 182.082 102.68C181.815 102.987 181.602 103.36 181.442 103.8C181.282 104.24 181.202 104.733 181.202 105.28V111H179.462V100.28H180.882L181.082 102.24H181.162C181.375 101.84 181.629 101.48 181.922 101.16C182.229 100.827 182.575 100.567 182.962 100.38C183.349 100.18 183.775 100.08 184.242 100.08ZM189.035 100.28V111H187.295V100.28H189.035ZM188.175 96.26C188.441 96.26 188.675 96.3533 188.875 96.54C189.075 96.7133 189.175 96.9933 189.175 97.38C189.175 97.7533 189.075 98.0333 188.875 98.22C188.675 98.4067 188.441 98.5 188.175 98.5C187.895 98.5 187.655 98.4067 187.455 98.22C187.255 98.0333 187.155 97.7533 187.155 97.38C187.155 96.9933 187.255 96.7133 187.455 96.54C187.655 96.3533 187.895 96.26 188.175 96.26ZM193.937 99.5C193.937 99.9533 193.923 100.38 193.897 100.78C193.883 101.167 193.863 101.473 193.837 101.7H193.937C194.217 101.247 194.61 100.867 195.117 100.56C195.623 100.253 196.263 100.1 197.037 100.1C198.29 100.1 199.29 100.567 200.037 101.5C200.797 102.42 201.177 103.8 201.177 105.64C201.177 106.867 201.003 107.893 200.657 108.72C200.31 109.547 199.823 110.167 199.197 110.58C198.583 110.993 197.863 111.2 197.037 111.2C196.25 111.2 195.603 111.047 195.097 110.74C194.603 110.433 194.217 110.067 193.937 109.64H193.797L193.457 111H192.197V95.8H193.937V99.5ZM196.717 101.56C196.023 101.56 195.47 101.707 195.057 102C194.657 102.28 194.37 102.72 194.197 103.32C194.023 103.907 193.937 104.66 193.937 105.58V105.66C193.937 106.98 194.13 107.993 194.517 108.7C194.917 109.393 195.663 109.74 196.757 109.74C197.623 109.74 198.277 109.387 198.717 108.68C199.157 107.973 199.377 106.953 199.377 105.62C199.377 104.273 199.157 103.26 198.717 102.58C198.277 101.9 197.61 101.56 196.717 101.56ZM212.279 100.28V111H210.879L210.619 109.58H210.539C210.325 109.953 210.045 110.26 209.699 110.5C209.365 110.74 208.999 110.913 208.599 111.02C208.199 111.14 207.779 111.2 207.339 111.2C206.539 111.2 205.865 111.067 205.319 110.8C204.772 110.52 204.359 110.093 204.079 109.52C203.812 108.947 203.679 108.207 203.679 107.3V100.28H205.439V107.18C205.439 108.033 205.619 108.673 205.979 109.1C206.339 109.527 206.892 109.74 207.639 109.74C208.372 109.74 208.945 109.593 209.359 109.3C209.785 108.993 210.085 108.553 210.259 107.98C210.445 107.393 210.539 106.687 210.539 105.86V100.28H212.279ZM217.179 111H215.439V100.28H217.179V111ZM219.259 95.88C219.139 96.0667 218.965 96.2933 218.739 96.56C218.525 96.8267 218.285 97.1067 218.019 97.4C217.765 97.68 217.505 97.9533 217.239 98.22C216.972 98.4733 216.725 98.6933 216.499 98.88H215.359V98.64C215.545 98.3867 215.752 98.0867 215.979 97.74C216.205 97.3933 216.425 97.04 216.639 96.68C216.852 96.3067 217.032 95.9733 217.179 95.68H219.259V95.88ZM223.901 111.2C222.661 111.2 221.661 110.74 220.901 109.82C220.154 108.887 219.781 107.5 219.781 105.66C219.781 103.82 220.161 102.433 220.921 101.5C221.681 100.553 222.681 100.08 223.921 100.08C224.441 100.08 224.894 100.153 225.281 100.3C225.668 100.433 226.001 100.62 226.281 100.86C226.574 101.1 226.821 101.367 227.021 101.66H227.141C227.128 101.487 227.101 101.233 227.061 100.9C227.034 100.553 227.021 100.28 227.021 100.08V95.8H228.761V111H227.361L227.101 109.56H227.021C226.821 109.867 226.574 110.147 226.281 110.4C226.001 110.64 225.661 110.833 225.261 110.98C224.874 111.127 224.421 111.2 223.901 111.2ZM224.221 109.74C225.261 109.74 225.988 109.433 226.401 108.82C226.828 108.193 227.041 107.253 227.041 106V105.68C227.041 104.347 226.841 103.327 226.441 102.62C226.041 101.9 225.294 101.54 224.201 101.54C223.321 101.54 222.661 101.92 222.221 102.68C221.794 103.427 221.581 104.433 221.581 105.7C221.581 106.98 221.794 107.973 222.221 108.68C222.661 109.387 223.328 109.74 224.221 109.74ZM235.783 100.1C237.01 100.1 237.923 100.387 238.523 100.96C239.136 101.533 239.443 102.447 239.443 103.7V111H238.183L237.843 109.48H237.763C237.47 109.867 237.17 110.193 236.863 110.46C236.57 110.713 236.223 110.9 235.823 111.02C235.436 111.14 234.956 111.2 234.383 111.2C233.783 111.2 233.243 111.087 232.763 110.86C232.283 110.633 231.903 110.287 231.623 109.82C231.343 109.34 231.203 108.74 231.203 108.02C231.203 106.953 231.596 106.133 232.383 105.56C233.17 104.973 234.383 104.653 236.023 104.6L237.723 104.54V103.9C237.723 103.007 237.543 102.387 237.183 102.04C236.836 101.693 236.336 101.52 235.683 101.52C235.163 101.52 234.663 101.607 234.183 101.78C233.716 101.94 233.27 102.127 232.843 102.34L232.303 101.02C232.756 100.767 233.283 100.553 233.883 100.38C234.483 100.193 235.116 100.1 235.783 100.1ZM236.263 105.82C235.036 105.873 234.183 106.087 233.703 106.46C233.236 106.833 233.003 107.36 233.003 108.04C233.003 108.64 233.17 109.08 233.503 109.36C233.836 109.64 234.27 109.78 234.803 109.78C235.63 109.78 236.323 109.533 236.883 109.04C237.443 108.533 237.723 107.76 237.723 106.72V105.76L236.263 105.82ZM249.168 108.04C249.168 108.733 249.001 109.313 248.668 109.78C248.348 110.247 247.888 110.6 247.288 110.84C246.688 111.08 245.968 111.2 245.128 111.2C244.421 111.2 243.808 111.14 243.288 111.02C242.781 110.9 242.335 110.733 241.948 110.52V108.92C242.361 109.133 242.855 109.333 243.428 109.52C244.001 109.693 244.581 109.78 245.168 109.78C245.981 109.78 246.568 109.64 246.928 109.36C247.301 109.067 247.488 108.68 247.488 108.2C247.488 107.933 247.415 107.693 247.268 107.48C247.135 107.267 246.888 107.053 246.528 106.84C246.181 106.627 245.675 106.387 245.008 106.12C244.368 105.853 243.815 105.587 243.348 105.32C242.895 105.053 242.541 104.733 242.288 104.36C242.048 103.987 241.928 103.507 241.928 102.92C241.928 102.013 242.275 101.313 242.968 100.82C243.675 100.327 244.595 100.08 245.728 100.08C246.341 100.08 246.915 100.147 247.448 100.28C247.981 100.4 248.488 100.573 248.968 100.8L248.388 102.2C248.108 102.067 247.815 101.953 247.508 101.86C247.201 101.753 246.888 101.673 246.568 101.62C246.261 101.553 245.948 101.52 245.628 101.52C244.975 101.52 244.475 101.64 244.128 101.88C243.781 102.107 243.608 102.42 243.608 102.82C243.608 103.113 243.688 103.367 243.848 103.58C244.008 103.793 244.268 104 244.628 104.2C245.001 104.387 245.508 104.607 246.148 104.86C246.788 105.113 247.335 105.373 247.788 105.64C248.241 105.907 248.581 106.233 248.808 106.62C249.048 106.993 249.168 107.467 249.168 108.04Z" fill="#667085"/>
</svg>
