<svg width="343" height="223" viewBox="0 0 343 223" fill="none" xmlns="http://www.w3.org/2000/svg">
<path d="M97.5073 22.2683C97.5073 23.7627 97.2115 25.0703 96.62 26.1911C96.0284 27.3119 95.219 28.2303 94.1916 28.9464C93.1953 29.6313 92.0434 30.1295 90.7358 30.4408V30.5809C93.2576 30.8922 95.1567 31.7173 96.4332 33.056C97.7408 34.3947 98.3946 36.1693 98.3946 38.3798C98.3946 40.3101 97.9587 42.038 97.087 43.5635C96.2152 45.089 94.8454 46.2877 92.9774 47.1594C91.1405 48.0311 88.7588 48.467 85.8323 48.467C84.0577 48.467 82.4543 48.3113 81.0222 48C79.59 47.7198 78.2046 47.2684 76.8659 46.6457V41.462C78.2357 42.1781 79.6523 42.7229 81.1156 43.0965C82.5788 43.4701 83.9487 43.6569 85.2252 43.6569C87.6536 43.6569 89.3659 43.1743 90.3622 42.2092C91.3584 41.2129 91.8566 39.8431 91.8566 38.0996C91.8566 36.9788 91.5919 36.0604 91.0627 35.3443C90.5645 34.6282 89.7551 34.099 88.6343 33.7565C87.5446 33.3829 86.0502 33.1961 84.1511 33.1961H81.7227V28.4794H84.1978C85.9412 28.4794 87.3267 28.2615 88.3541 27.8256C89.4126 27.3897 90.1754 26.7826 90.6424 26.0043C91.1094 25.226 91.3429 24.3231 91.3429 23.2957C91.3429 21.957 90.9381 20.914 90.1287 20.1668C89.3503 19.4196 88.214 19.046 86.7196 19.046C85.7233 19.046 84.7893 19.1705 83.9176 19.4196C83.0458 19.6687 82.2675 19.9956 81.5826 20.4003C80.8976 20.7739 80.2905 21.1786 79.7613 21.6145L76.9593 17.5516C77.7687 16.9289 78.6716 16.3685 79.6679 15.8704C80.6953 15.3411 81.8316 14.9364 83.077 14.6562C84.3223 14.3449 85.7233 14.1892 87.28 14.1892C90.549 14.1892 93.0708 14.9208 94.8454 16.3841C96.62 17.8162 97.5073 19.7776 97.5073 22.2683ZM102.038 45.0112C102.038 43.7036 102.38 42.7852 103.065 42.2559C103.781 41.6955 104.638 41.4153 105.634 41.4153C106.63 41.4153 107.471 41.6799 108.156 42.2092C108.872 42.7385 109.23 43.6725 109.23 45.0112C109.23 46.2877 108.872 47.2061 108.156 47.7665C107.471 48.3269 106.63 48.6071 105.634 48.6071C104.638 48.6071 103.781 48.3269 103.065 47.7665C102.38 47.2061 102.038 46.2877 102.038 45.0112ZM134.339 48H112.623V43.6569L120.516 35.0641C122.104 33.3518 123.38 31.8885 124.345 30.6743C125.31 29.429 126.011 28.277 126.447 27.2185C126.914 26.16 127.147 25.008 127.147 23.7627C127.147 22.2372 126.758 21.1008 125.98 20.3536C125.232 19.5753 124.236 19.1861 122.991 19.1861C121.746 19.1861 120.562 19.4819 119.442 20.0734C118.352 20.6338 117.2 21.4433 115.986 22.5018L112.577 18.6257C113.48 17.8162 114.429 17.0846 115.425 16.4308C116.422 15.7459 117.574 15.201 118.881 14.7963C120.22 14.3916 121.761 14.1892 123.505 14.1892C125.528 14.1892 127.272 14.5784 128.735 15.3567C130.229 16.1039 131.381 17.1469 132.191 18.4856C133 19.8243 133.405 21.381 133.405 23.1556C133.405 24.5255 133.203 25.7864 132.798 26.9383C132.424 28.0902 131.864 29.2266 131.117 30.3474C130.369 31.4682 129.482 32.6201 128.455 33.8032C127.427 34.9863 126.275 36.2783 124.999 37.6793L120.469 42.6295V42.9097H134.339V48ZM137.002 33.8032C137.002 31.8729 137.126 29.9738 137.375 28.1058C137.655 26.2378 138.107 24.4788 138.729 22.8287C139.383 21.1475 140.286 19.6687 141.438 18.3922C142.621 17.0846 144.116 16.0728 145.921 15.3567C147.727 14.6095 149.906 14.2359 152.459 14.2359C153.082 14.2359 153.798 14.267 154.607 14.3293C155.417 14.3916 156.086 14.485 156.616 14.6095V19.4663C156.055 19.2795 155.433 19.155 154.748 19.0927C154.063 18.9993 153.331 18.9526 152.553 18.9526C150.716 18.9526 149.175 19.2484 147.929 19.8399C146.715 20.4003 145.734 21.2098 144.987 22.2683C144.271 23.3268 143.742 24.5566 143.399 25.9576C143.057 27.3275 142.855 28.853 142.792 30.5342H143.026C143.462 29.787 143.975 29.1176 144.567 28.5261C145.19 27.9346 145.937 27.4676 146.809 27.1251C147.711 26.7826 148.739 26.6114 149.891 26.6114C151.728 26.6114 153.315 27.0317 154.654 27.8723C155.993 28.6818 157.02 29.8648 157.736 31.4215C158.452 32.947 158.811 34.815 158.811 37.0255C158.811 39.3916 158.375 41.4309 157.503 43.1432C156.662 44.8555 155.464 46.1787 153.907 47.1127C152.35 48.0156 150.482 48.467 148.303 48.467C146.715 48.467 145.236 48.1712 143.866 47.5797C142.497 46.9882 141.298 46.1009 140.271 44.9178C139.243 43.7036 138.434 42.1781 137.842 40.3412C137.282 38.4732 137.002 36.2939 137.002 33.8032ZM148.163 43.6569C149.533 43.6569 150.638 43.1276 151.479 42.0691C152.319 40.9794 152.739 39.3138 152.739 37.0722C152.739 35.2665 152.366 33.8499 151.619 32.8225C150.871 31.764 149.766 31.2347 148.303 31.2347C147.244 31.2347 146.342 31.4993 145.594 32.0286C144.847 32.5267 144.256 33.1805 143.82 33.99C143.415 34.7683 143.213 35.5778 143.213 36.4184C143.213 37.2901 143.306 38.1463 143.493 38.9869C143.711 39.8275 144.022 40.6058 144.427 41.3219C144.863 42.038 145.392 42.6139 146.015 43.0498C146.637 43.4545 147.353 43.6569 148.163 43.6569ZM183.049 28.8997C183.049 30.8922 182.893 32.8536 182.582 34.7839C182.301 36.683 181.819 38.4576 181.134 40.1077C180.449 41.7578 179.515 43.221 178.332 44.4975C177.18 45.7428 175.701 46.7235 173.895 47.4396C172.121 48.1245 169.988 48.467 167.497 48.467C166.875 48.467 166.159 48.4359 165.349 48.3736C164.54 48.3113 163.855 48.2179 163.294 48.0934V43.2366C163.855 43.3923 164.462 43.5168 165.116 43.6102C165.801 43.7036 166.454 43.7503 167.077 43.7503C169.039 43.7503 170.657 43.4701 171.934 42.9097C173.21 42.3182 174.222 41.5087 174.969 40.4813C175.748 39.4228 176.293 38.193 176.604 36.792C176.946 35.3599 177.149 33.8343 177.211 32.2154H176.931C176.526 32.9315 176.028 33.5853 175.436 34.1768C174.845 34.7683 174.113 35.2353 173.242 35.5778C172.37 35.9203 171.265 36.0915 169.926 36.0915C168.151 36.0915 166.61 35.6868 165.303 34.8773C164.026 34.0678 163.03 32.9003 162.314 31.3748C161.598 29.8181 161.24 27.9346 161.24 25.7241C161.24 23.3268 161.66 21.272 162.501 19.5597C163.372 17.8162 164.586 16.4931 166.143 15.5902C167.7 14.6562 169.568 14.1892 171.747 14.1892C173.335 14.1892 174.814 14.5005 176.184 15.1232C177.553 15.7147 178.752 16.6176 179.78 17.8318C180.807 19.0149 181.601 20.5404 182.161 22.4084C182.753 24.2453 183.049 26.409 183.049 28.8997ZM171.841 18.9993C170.502 18.9993 169.397 19.5441 168.525 20.6338C167.684 21.7235 167.264 23.3891 167.264 25.6307C167.264 27.4364 167.622 28.8686 168.338 29.9271C169.085 30.9545 170.19 31.4682 171.654 31.4682C172.712 31.4682 173.615 31.2191 174.362 30.721C175.141 30.1917 175.732 29.5379 176.137 28.7596C176.573 27.9813 176.791 27.1562 176.791 26.2845C176.791 25.3816 176.682 24.4943 176.464 23.6226C176.277 22.7509 175.981 21.9725 175.577 21.2876C175.172 20.6027 174.643 20.0578 173.989 19.6531C173.366 19.2172 172.65 18.9993 171.841 18.9993ZM186.412 45.0112C186.412 43.7036 186.754 42.7852 187.439 42.2559C188.155 41.6955 189.011 41.4153 190.008 41.4153C191.004 41.4153 191.844 41.6799 192.529 42.2092C193.245 42.7385 193.603 43.6725 193.603 45.0112C193.603 46.2877 193.245 47.2061 192.529 47.7665C191.844 48.3269 191.004 48.6071 190.008 48.6071C189.011 48.6071 188.155 48.3269 187.439 47.7665C186.754 47.2061 186.412 46.2877 186.412 45.0112ZM217.592 22.2683C217.592 23.7627 217.296 25.0703 216.705 26.1911C216.113 27.3119 215.304 28.2303 214.276 28.9464C213.28 29.6313 212.128 30.1295 210.82 30.4408V30.5809C213.342 30.8922 215.241 31.7173 216.518 33.056C217.825 34.3947 218.479 36.1693 218.479 38.3798C218.479 40.3101 218.043 42.038 217.172 43.5635C216.3 45.089 214.93 46.2877 213.062 47.1594C211.225 48.0311 208.843 48.467 205.917 48.467C204.142 48.467 202.539 48.3113 201.107 48C199.675 47.7198 198.289 47.2684 196.951 46.6457V41.462C198.32 42.1781 199.737 42.7229 201.2 43.0965C202.664 43.4701 204.033 43.6569 205.31 43.6569C207.738 43.6569 209.451 43.1743 210.447 42.2092C211.443 41.2129 211.941 39.8431 211.941 38.0996C211.941 36.9788 211.677 36.0604 211.147 35.3443C210.649 34.6282 209.84 34.099 208.719 33.7565C207.629 33.3829 206.135 33.1961 204.236 33.1961H201.807V28.4794H204.282C206.026 28.4794 207.411 28.2615 208.439 27.8256C209.497 27.3897 210.26 26.7826 210.727 26.0043C211.194 25.226 211.428 24.3231 211.428 23.2957C211.428 21.957 211.023 20.914 210.213 20.1668C209.435 19.4196 208.299 19.046 206.804 19.046C205.808 19.046 204.874 19.1705 204.002 19.4196C203.131 19.6687 202.352 19.9956 201.667 20.4003C200.982 20.7739 200.375 21.1786 199.846 21.6145L197.044 17.5516C197.853 16.9289 198.756 16.3685 199.753 15.8704C200.78 15.3411 201.916 14.9364 203.162 14.6562C204.407 14.3449 205.808 14.1892 207.365 14.1892C210.634 14.1892 213.155 14.9208 214.93 16.3841C216.705 17.8162 217.592 19.7776 217.592 22.2683ZM221.375 33.8032C221.375 31.8729 221.5 29.9738 221.749 28.1058C222.029 26.2378 222.481 24.4788 223.103 22.8287C223.757 21.1475 224.66 19.6687 225.812 18.3922C226.995 17.0846 228.489 16.0728 230.295 15.3567C232.101 14.6095 234.28 14.2359 236.833 14.2359C237.456 14.2359 238.172 14.267 238.981 14.3293C239.791 14.3916 240.46 14.485 240.989 14.6095V19.4663C240.429 19.2795 239.806 19.155 239.121 19.0927C238.436 18.9993 237.705 18.9526 236.926 18.9526C235.09 18.9526 233.549 19.2484 232.303 19.8399C231.089 20.4003 230.108 21.2098 229.361 22.2683C228.645 23.3268 228.116 24.5566 227.773 25.9576C227.431 27.3275 227.228 28.853 227.166 30.5342H227.4C227.836 29.787 228.349 29.1176 228.941 28.5261C229.563 27.9346 230.311 27.4676 231.182 27.1251C232.085 26.7826 233.113 26.6114 234.265 26.6114C236.101 26.6114 237.689 27.0317 239.028 27.8723C240.367 28.6818 241.394 29.8648 242.11 31.4215C242.826 32.947 243.184 34.815 243.184 37.0255C243.184 39.3916 242.748 41.4309 241.877 43.1432C241.036 44.8555 239.837 46.1787 238.281 47.1127C236.724 48.0156 234.856 48.467 232.677 48.467C231.089 48.467 229.61 48.1712 228.24 47.5797C226.87 46.9882 225.672 46.1009 224.644 44.9178C223.617 43.7036 222.808 42.1781 222.216 40.3412C221.656 38.4732 221.375 36.2939 221.375 33.8032ZM232.537 43.6569C233.907 43.6569 235.012 43.1276 235.852 42.0691C236.693 40.9794 237.113 39.3138 237.113 37.0722C237.113 35.2665 236.74 33.8499 235.992 32.8225C235.245 31.764 234.14 31.2347 232.677 31.2347C231.618 31.2347 230.715 31.4993 229.968 32.0286C229.221 32.5267 228.629 33.1805 228.194 33.99C227.789 34.7683 227.586 35.5778 227.586 36.4184C227.586 37.2901 227.68 38.1463 227.867 38.9869C228.085 39.8275 228.396 40.6058 228.801 41.3219C229.237 42.038 229.766 42.6139 230.388 43.0498C231.011 43.4545 231.727 43.6569 232.537 43.6569ZM267.376 48H245.66V43.6569L253.552 35.0641C255.14 33.3518 256.417 31.8885 257.382 30.6743C258.347 29.429 259.047 28.277 259.483 27.2185C259.95 26.16 260.184 25.008 260.184 23.7627C260.184 22.2372 259.795 21.1008 259.016 20.3536C258.269 19.5753 257.273 19.1861 256.027 19.1861C254.782 19.1861 253.599 19.4819 252.478 20.0734C251.389 20.6338 250.237 21.4433 249.022 22.5018L245.613 18.6257C246.516 17.8162 247.466 17.0846 248.462 16.4308C249.458 15.7459 250.61 15.201 251.918 14.7963C253.257 14.3916 254.798 14.1892 256.541 14.1892C258.565 14.1892 260.308 14.5784 261.772 15.3567C263.266 16.1039 264.418 17.1469 265.227 18.4856C266.037 19.8243 266.442 21.381 266.442 23.1556C266.442 24.5255 266.239 25.7864 265.834 26.9383C265.461 28.0902 264.9 29.2266 264.153 30.3474C263.406 31.4682 262.519 32.6201 261.491 33.8032C260.464 34.9863 259.312 36.2783 258.036 37.6793L253.506 42.6295V42.9097H267.376V48Z" fill="#834781"/>
<path d="M76.6907 69.1C75.9841 69.1 75.3507 69.2333 74.7907 69.5C74.2307 69.7533 73.7507 70.1333 73.3507 70.64C72.9641 71.1333 72.6641 71.74 72.4507 72.46C72.2507 73.1667 72.1507 73.9667 72.1507 74.86C72.1507 76.0333 72.3174 77.0533 72.6507 77.92C72.9841 78.7867 73.4841 79.4533 74.1507 79.92C74.8307 80.3867 75.6707 80.62 76.6707 80.62C77.2574 80.62 77.8107 80.5667 78.3307 80.46C78.8641 80.3533 79.3907 80.22 79.9107 80.06V81.62C79.4041 81.82 78.8841 81.9667 78.3507 82.06C77.8174 82.1533 77.1774 82.2 76.4307 82.2C75.0574 82.2 73.9107 81.9 72.9907 81.3C72.0841 80.7 71.4041 79.8467 70.9507 78.74C70.4974 77.6333 70.2707 76.3333 70.2707 74.84C70.2707 73.76 70.4107 72.7733 70.6907 71.88C70.9707 70.9867 71.3841 70.2133 71.9307 69.56C72.4774 68.9067 73.1507 68.4067 73.9507 68.06C74.7507 67.7 75.6707 67.52 76.7107 67.52C77.3907 67.52 78.0507 67.5933 78.6907 67.74C79.3307 67.8867 79.9107 68.0933 80.4307 68.36L79.7307 69.88C79.3174 69.68 78.8507 69.5 78.3307 69.34C77.8241 69.18 77.2774 69.1 76.6907 69.1ZM87.3657 71.08C87.5524 71.08 87.7524 71.0933 87.9657 71.12C88.1791 71.1333 88.3657 71.16 88.5257 71.2L88.3257 72.82C88.1657 72.78 87.9857 72.7467 87.7857 72.72C87.5991 72.6933 87.4191 72.68 87.2457 72.68C86.8591 72.68 86.4924 72.7667 86.1457 72.94C85.7991 73.1133 85.4857 73.36 85.2057 73.68C84.9391 73.9867 84.7257 74.36 84.5657 74.8C84.4057 75.24 84.3257 75.7333 84.3257 76.28V82H82.5857V71.28H84.0057L84.2057 73.24H84.2857C84.4991 72.84 84.7524 72.48 85.0457 72.16C85.3524 71.8267 85.6991 71.5667 86.0857 71.38C86.4724 71.18 86.8991 71.08 87.3657 71.08ZM92.1582 71.28V82H90.4182V71.28H92.1582ZM91.2982 67.26C91.5649 67.26 91.7982 67.3533 91.9982 67.54C92.1982 67.7133 92.2982 67.9933 92.2982 68.38C92.2982 68.7533 92.1982 69.0333 91.9982 69.22C91.7982 69.4067 91.5649 69.5 91.2982 69.5C91.0182 69.5 90.7782 69.4067 90.5782 69.22C90.3782 69.0333 90.2782 68.7533 90.2782 68.38C90.2782 67.9933 90.3782 67.7133 90.5782 67.54C90.7782 67.3533 91.0182 67.26 91.2982 67.26ZM101.94 79.04C101.94 79.7333 101.773 80.3133 101.44 80.78C101.12 81.2467 100.66 81.6 100.06 81.84C99.4601 82.08 98.7401 82.2 97.9001 82.2C97.1934 82.2 96.5801 82.14 96.0601 82.02C95.5534 81.9 95.1068 81.7333 94.7201 81.52V79.92C95.1334 80.1333 95.6268 80.3333 96.2001 80.52C96.7734 80.6933 97.3534 80.78 97.9401 80.78C98.7534 80.78 99.3401 80.64 99.7001 80.36C100.073 80.0667 100.26 79.68 100.26 79.2C100.26 78.9333 100.187 78.6933 100.04 78.48C99.9068 78.2667 99.6601 78.0533 99.3001 77.84C98.9534 77.6267 98.4468 77.3867 97.7801 77.12C97.1401 76.8533 96.5868 76.5867 96.1201 76.32C95.6668 76.0533 95.3134 75.7333 95.0601 75.36C94.8201 74.9867 94.7001 74.5067 94.7001 73.92C94.7001 73.0133 95.0468 72.3133 95.7401 71.82C96.4468 71.3267 97.3668 71.08 98.5001 71.08C99.1134 71.08 99.6868 71.1467 100.22 71.28C100.753 71.4 101.26 71.5733 101.74 71.8L101.16 73.2C100.88 73.0667 100.587 72.9533 100.28 72.86C99.9734 72.7533 99.6601 72.6733 99.3401 72.62C99.0334 72.5533 98.7201 72.52 98.4001 72.52C97.7468 72.52 97.2468 72.64 96.9001 72.88C96.5534 73.1067 96.3801 73.42 96.3801 73.82C96.3801 74.1133 96.4601 74.3667 96.6201 74.58C96.7801 74.7933 97.0401 75 97.4001 75.2C97.7734 75.3867 98.2801 75.6067 98.9201 75.86C99.5601 76.1133 100.107 76.3733 100.56 76.64C101.013 76.9067 101.353 77.2333 101.58 77.62C101.82 77.9933 101.94 78.4667 101.94 79.04ZM107.823 80.76C108.076 80.76 108.336 80.74 108.603 80.7C108.87 80.6467 109.09 80.5933 109.263 80.54V81.88C109.076 81.9733 108.81 82.0467 108.463 82.1C108.13 82.1667 107.81 82.2 107.503 82.2C106.97 82.2 106.476 82.1067 106.023 81.92C105.57 81.72 105.203 81.38 104.923 80.9C104.656 80.42 104.523 79.7467 104.523 78.88V72.64H103.103V71.8L104.563 71.1L105.223 68.82H106.263V71.28H109.183V72.64H106.263V78.84C106.263 79.4933 106.41 79.98 106.703 80.3C106.996 80.6067 107.37 80.76 107.823 80.76ZM115.118 71.1C116.344 71.1 117.258 71.3867 117.858 71.96C118.471 72.5333 118.778 73.4467 118.778 74.7V82H117.518L117.178 80.48H117.098C116.804 80.8667 116.504 81.1933 116.198 81.46C115.904 81.7133 115.558 81.9 115.158 82.02C114.771 82.14 114.291 82.2 113.718 82.2C113.118 82.2 112.578 82.0867 112.098 81.86C111.618 81.6333 111.238 81.2867 110.958 80.82C110.678 80.34 110.538 79.74 110.538 79.02C110.538 77.9533 110.931 77.1333 111.718 76.56C112.504 75.9733 113.718 75.6533 115.358 75.6L117.058 75.54V74.9C117.058 74.0067 116.878 73.3867 116.518 73.04C116.171 72.6933 115.671 72.52 115.018 72.52C114.498 72.52 113.998 72.6067 113.518 72.78C113.051 72.94 112.604 73.1267 112.178 73.34L111.638 72.02C112.091 71.7667 112.618 71.5533 113.218 71.38C113.818 71.1933 114.451 71.1 115.118 71.1ZM115.598 76.82C114.371 76.8733 113.518 77.0867 113.038 77.46C112.571 77.8333 112.338 78.36 112.338 79.04C112.338 79.64 112.504 80.08 112.838 80.36C113.171 80.64 113.604 80.78 114.138 80.78C114.964 80.78 115.658 80.5333 116.218 80.04C116.778 79.5333 117.058 78.76 117.058 77.72V76.76L115.598 76.82ZM111.518 69.88C111.558 69.48 111.631 69.1267 111.738 68.82C111.858 68.5 112.004 68.2333 112.178 68.02C112.351 67.7933 112.558 67.62 112.798 67.5C113.051 67.38 113.324 67.32 113.618 67.32C113.898 67.32 114.164 67.38 114.418 67.5C114.671 67.6067 114.918 67.74 115.158 67.9C115.398 68.0467 115.624 68.18 115.838 68.3C116.064 68.4067 116.278 68.46 116.478 68.46C116.758 68.46 116.971 68.3667 117.118 68.18C117.278 67.98 117.404 67.6867 117.498 67.3H118.478C118.398 68.0733 118.178 68.6933 117.818 69.16C117.458 69.6267 116.984 69.86 116.398 69.86C116.131 69.86 115.871 69.8067 115.618 69.7C115.364 69.58 115.118 69.4467 114.878 69.3C114.638 69.14 114.404 69.0067 114.178 68.9C113.951 68.78 113.738 68.72 113.538 68.72C113.244 68.72 113.018 68.82 112.858 69.02C112.711 69.2067 112.598 69.4933 112.518 69.88H111.518ZM130.703 76.62C130.703 77.5133 130.589 78.3067 130.363 79C130.149 79.68 129.836 80.26 129.423 80.74C129.009 81.22 128.509 81.5867 127.923 81.84C127.336 82.08 126.683 82.2 125.963 82.2C125.296 82.2 124.676 82.08 124.103 81.84C123.543 81.5867 123.049 81.22 122.623 80.74C122.209 80.26 121.889 79.68 121.663 79C121.436 78.3067 121.323 77.5133 121.323 76.62C121.323 75.4333 121.509 74.4333 121.883 73.62C122.269 72.7933 122.816 72.1667 123.523 71.74C124.229 71.3 125.063 71.08 126.023 71.08C126.943 71.08 127.749 71.3 128.443 71.74C129.149 72.1667 129.703 72.7933 130.103 73.62C130.503 74.4333 130.703 75.4333 130.703 76.62ZM123.123 76.62C123.123 77.46 123.223 78.1933 123.423 78.82C123.623 79.4333 123.936 79.9067 124.363 80.24C124.789 80.5733 125.336 80.74 126.003 80.74C126.669 80.74 127.216 80.5733 127.643 80.24C128.069 79.9067 128.383 79.4333 128.583 78.82C128.796 78.1933 128.903 77.46 128.903 76.62C128.903 75.7667 128.796 75.04 128.583 74.44C128.383 73.84 128.069 73.38 127.643 73.06C127.216 72.7267 126.663 72.56 125.983 72.56C124.983 72.56 124.256 72.92 123.803 73.64C123.349 74.36 123.123 75.3533 123.123 76.62ZM139.909 79.04C139.909 79.7333 139.742 80.3133 139.409 80.78C139.089 81.2467 138.629 81.6 138.029 81.84C137.429 82.08 136.709 82.2 135.869 82.2C135.162 82.2 134.549 82.14 134.029 82.02C133.522 81.9 133.076 81.7333 132.689 81.52V79.92C133.102 80.1333 133.596 80.3333 134.169 80.52C134.742 80.6933 135.322 80.78 135.909 80.78C136.722 80.78 137.309 80.64 137.669 80.36C138.042 80.0667 138.229 79.68 138.229 79.2C138.229 78.9333 138.156 78.6933 138.009 78.48C137.876 78.2667 137.629 78.0533 137.269 77.84C136.922 77.6267 136.416 77.3867 135.749 77.12C135.109 76.8533 134.556 76.5867 134.089 76.32C133.636 76.0533 133.282 75.7333 133.029 75.36C132.789 74.9867 132.669 74.5067 132.669 73.92C132.669 73.0133 133.016 72.3133 133.709 71.82C134.416 71.3267 135.336 71.08 136.469 71.08C137.082 71.08 137.656 71.1467 138.189 71.28C138.722 71.4 139.229 71.5733 139.709 71.8L139.129 73.2C138.849 73.0667 138.556 72.9533 138.249 72.86C137.942 72.7533 137.629 72.6733 137.309 72.62C137.002 72.5533 136.689 72.52 136.369 72.52C135.716 72.52 135.216 72.64 134.869 72.88C134.522 73.1067 134.349 73.42 134.349 73.82C134.349 74.1133 134.429 74.3667 134.589 74.58C134.749 74.7933 135.009 75 135.369 75.2C135.742 75.3867 136.249 75.6067 136.889 75.86C137.529 76.1133 138.076 76.3733 138.529 76.64C138.982 76.9067 139.322 77.2333 139.549 77.62C139.789 77.9933 139.909 78.4667 139.909 79.04ZM150.675 80.76C150.928 80.76 151.188 80.74 151.455 80.7C151.721 80.6467 151.941 80.5933 152.115 80.54V81.88C151.928 81.9733 151.661 82.0467 151.315 82.1C150.981 82.1667 150.661 82.2 150.355 82.2C149.821 82.2 149.328 82.1067 148.875 81.92C148.421 81.72 148.055 81.38 147.775 80.9C147.508 80.42 147.375 79.7467 147.375 78.88V72.64H145.955V71.8L147.415 71.1L148.075 68.82H149.115V71.28H152.035V72.64H149.115V78.84C149.115 79.4933 149.261 79.98 149.555 80.3C149.848 80.6067 150.221 80.76 150.675 80.76ZM158.889 71.08C159.076 71.08 159.276 71.0933 159.489 71.12C159.702 71.1333 159.889 71.16 160.049 71.2L159.849 72.82C159.689 72.78 159.509 72.7467 159.309 72.72C159.122 72.6933 158.942 72.68 158.769 72.68C158.382 72.68 158.016 72.7667 157.669 72.94C157.322 73.1133 157.009 73.36 156.729 73.68C156.462 73.9867 156.249 74.36 156.089 74.8C155.929 75.24 155.849 75.7333 155.849 76.28V82H154.109V71.28H155.529L155.729 73.24H155.809C156.022 72.84 156.276 72.48 156.569 72.16C156.876 71.8267 157.222 71.5667 157.609 71.38C157.996 71.18 158.422 71.08 158.889 71.08ZM165.471 71.08C166.337 71.08 167.084 71.28 167.711 71.68C168.337 72.08 168.817 72.6467 169.151 73.38C169.497 74.1 169.671 74.9467 169.671 75.92V76.98H162.791C162.817 78.1933 163.104 79.12 163.651 79.76C164.197 80.3867 164.964 80.7 165.951 80.7C166.591 80.7 167.157 80.64 167.651 80.52C168.157 80.3867 168.677 80.2 169.211 79.96V81.5C168.691 81.74 168.177 81.9133 167.671 82.02C167.177 82.14 166.577 82.2 165.871 82.2C164.911 82.2 164.064 81.9933 163.331 81.58C162.597 81.1667 162.024 80.5533 161.611 79.74C161.197 78.9133 160.991 77.9067 160.991 76.72C160.991 75.5467 161.177 74.54 161.551 73.7C161.924 72.86 162.444 72.2133 163.111 71.76C163.791 71.3067 164.577 71.08 165.471 71.08ZM165.471 72.52C164.697 72.52 164.084 72.7933 163.631 73.34C163.177 73.8733 162.911 74.62 162.831 75.58H167.871C167.871 74.9667 167.784 74.4333 167.611 73.98C167.437 73.5267 167.171 73.1733 166.811 72.92C166.464 72.6533 166.017 72.52 165.471 72.52ZM173.955 71.28V82H172.215V71.28H173.955ZM173.095 67.26C173.362 67.26 173.595 67.3533 173.795 67.54C173.995 67.7133 174.095 67.9933 174.095 68.38C174.095 68.7533 173.995 69.0333 173.795 69.22C173.595 69.4067 173.362 69.5 173.095 69.5C172.815 69.5 172.575 69.4067 172.375 69.22C172.175 69.0333 172.075 68.7533 172.075 68.38C172.075 67.9933 172.175 67.7133 172.375 67.54C172.575 67.3533 172.815 67.26 173.095 67.26ZM182.037 71.08C183.237 71.08 184.144 71.3933 184.757 72.02C185.384 72.6333 185.697 73.6333 185.697 75.02V82H183.957V75.14C183.957 74.2733 183.777 73.6267 183.417 73.2C183.057 72.7733 182.504 72.56 181.757 72.56C180.664 72.56 179.904 72.8933 179.477 73.56C179.064 74.2267 178.857 75.1867 178.857 76.44V82H177.117V71.28H178.517L178.777 72.74H178.877C179.09 72.3667 179.364 72.06 179.697 71.82C180.03 71.5667 180.397 71.38 180.797 71.26C181.197 71.14 181.61 71.08 182.037 71.08ZM192.657 71.1C193.883 71.1 194.797 71.3867 195.397 71.96C196.01 72.5333 196.317 73.4467 196.317 74.7V82H195.057L194.717 80.48H194.637C194.343 80.8667 194.043 81.1933 193.737 81.46C193.443 81.7133 193.097 81.9 192.697 82.02C192.31 82.14 191.83 82.2 191.257 82.2C190.657 82.2 190.117 82.0867 189.637 81.86C189.157 81.6333 188.777 81.2867 188.497 80.82C188.217 80.34 188.077 79.74 188.077 79.02C188.077 77.9533 188.47 77.1333 189.257 76.56C190.043 75.9733 191.257 75.6533 192.897 75.6L194.597 75.54V74.9C194.597 74.0067 194.417 73.3867 194.057 73.04C193.71 72.6933 193.21 72.52 192.557 72.52C192.037 72.52 191.537 72.6067 191.057 72.78C190.59 72.94 190.143 73.1267 189.717 73.34L189.177 72.02C189.63 71.7667 190.157 71.5533 190.757 71.38C191.357 71.1933 191.99 71.1 192.657 71.1ZM193.137 76.82C191.91 76.8733 191.057 77.0867 190.577 77.46C190.11 77.8333 189.877 78.36 189.877 79.04C189.877 79.64 190.043 80.08 190.377 80.36C190.71 80.64 191.143 80.78 191.677 80.78C192.503 80.78 193.197 80.5333 193.757 80.04C194.317 79.5333 194.597 78.76 194.597 77.72V76.76L193.137 76.82ZM202.982 82.2C201.742 82.2 200.742 81.74 199.982 80.82C199.235 79.8867 198.862 78.5 198.862 76.66C198.862 74.82 199.242 73.4333 200.002 72.5C200.762 71.5533 201.762 71.08 203.002 71.08C203.522 71.08 203.975 71.1533 204.362 71.3C204.748 71.4333 205.082 71.62 205.362 71.86C205.655 72.1 205.902 72.3667 206.102 72.66H206.222C206.208 72.4867 206.182 72.2333 206.142 71.9C206.115 71.5533 206.102 71.28 206.102 71.08V66.8H207.842V82H206.442L206.182 80.56H206.102C205.902 80.8667 205.655 81.1467 205.362 81.4C205.082 81.64 204.742 81.8333 204.342 81.98C203.955 82.1267 203.502 82.2 202.982 82.2ZM203.302 80.74C204.342 80.74 205.068 80.4333 205.482 79.82C205.908 79.1933 206.122 78.2533 206.122 77V76.68C206.122 75.3467 205.922 74.3267 205.522 73.62C205.122 72.9 204.375 72.54 203.282 72.54C202.402 72.54 201.742 72.92 201.302 73.68C200.875 74.4267 200.662 75.4333 200.662 76.7C200.662 77.98 200.875 78.9733 201.302 79.68C201.742 80.3867 202.408 80.74 203.302 80.74ZM219.824 76.62C219.824 77.5133 219.71 78.3067 219.484 79C219.27 79.68 218.957 80.26 218.544 80.74C218.13 81.22 217.63 81.5867 217.044 81.84C216.457 82.08 215.804 82.2 215.084 82.2C214.417 82.2 213.797 82.08 213.224 81.84C212.664 81.5867 212.17 81.22 211.744 80.74C211.33 80.26 211.01 79.68 210.784 79C210.557 78.3067 210.444 77.5133 210.444 76.62C210.444 75.4333 210.63 74.4333 211.004 73.62C211.39 72.7933 211.937 72.1667 212.644 71.74C213.35 71.3 214.184 71.08 215.144 71.08C216.064 71.08 216.87 71.3 217.564 71.74C218.27 72.1667 218.824 72.7933 219.224 73.62C219.624 74.4333 219.824 75.4333 219.824 76.62ZM212.244 76.62C212.244 77.46 212.344 78.1933 212.544 78.82C212.744 79.4333 213.057 79.9067 213.484 80.24C213.91 80.5733 214.457 80.74 215.124 80.74C215.79 80.74 216.337 80.5733 216.764 80.24C217.19 79.9067 217.504 79.4333 217.704 78.82C217.917 78.1933 218.024 77.46 218.024 76.62C218.024 75.7667 217.917 75.04 217.704 74.44C217.504 73.84 217.19 73.38 216.764 73.06C216.337 72.7267 215.784 72.56 215.104 72.56C214.104 72.56 213.377 72.92 212.924 73.64C212.47 74.36 212.244 75.3533 212.244 76.62ZM229.03 79.04C229.03 79.7333 228.863 80.3133 228.53 80.78C228.21 81.2467 227.75 81.6 227.15 81.84C226.55 82.08 225.83 82.2 224.99 82.2C224.283 82.2 223.67 82.14 223.15 82.02C222.643 81.9 222.197 81.7333 221.81 81.52V79.92C222.223 80.1333 222.717 80.3333 223.29 80.52C223.863 80.6933 224.443 80.78 225.03 80.78C225.843 80.78 226.43 80.64 226.79 80.36C227.163 80.0667 227.35 79.68 227.35 79.2C227.35 78.9333 227.277 78.6933 227.13 78.48C226.997 78.2667 226.75 78.0533 226.39 77.84C226.043 77.6267 225.537 77.3867 224.87 77.12C224.23 76.8533 223.677 76.5867 223.21 76.32C222.757 76.0533 222.403 75.7333 222.15 75.36C221.91 74.9867 221.79 74.5067 221.79 73.92C221.79 73.0133 222.137 72.3133 222.83 71.82C223.537 71.3267 224.457 71.08 225.59 71.08C226.203 71.08 226.777 71.1467 227.31 71.28C227.843 71.4 228.35 71.5733 228.83 71.8L228.25 73.2C227.97 73.0667 227.677 72.9533 227.37 72.86C227.063 72.7533 226.75 72.6733 226.43 72.62C226.123 72.5533 225.81 72.52 225.49 72.52C224.837 72.52 224.337 72.64 223.99 72.88C223.643 73.1067 223.47 73.42 223.47 73.82C223.47 74.1133 223.55 74.3667 223.71 74.58C223.87 74.7933 224.13 75 224.49 75.2C224.863 75.3867 225.37 75.6067 226.01 75.86C226.65 76.1133 227.197 76.3733 227.65 76.64C228.103 76.9067 228.443 77.2333 228.67 77.62C228.91 77.9933 229.03 78.4667 229.03 79.04ZM241.196 71.08C242.436 71.08 243.429 71.54 244.176 72.46C244.936 73.38 245.316 74.7667 245.316 76.62C245.316 77.8333 245.142 78.86 244.796 79.7C244.449 80.5267 243.962 81.1533 243.336 81.58C242.722 81.9933 242.002 82.2 241.176 82.2C240.656 82.2 240.196 82.1267 239.796 81.98C239.409 81.8333 239.076 81.6467 238.796 81.42C238.516 81.18 238.276 80.92 238.076 80.64H237.956C237.982 80.8667 238.009 81.1533 238.036 81.5C238.062 81.8467 238.076 82.1467 238.076 82.4V86.8H236.336V71.28H237.756L237.996 72.74H238.076C238.276 72.4333 238.516 72.1533 238.796 71.9C239.076 71.6467 239.409 71.4467 239.796 71.3C240.196 71.1533 240.662 71.08 241.196 71.08ZM240.856 72.56C240.189 72.56 239.649 72.7 239.236 72.98C238.836 73.2467 238.542 73.6533 238.356 74.2C238.169 74.7467 238.076 75.44 238.076 76.28V76.62C238.076 77.5 238.156 78.2467 238.316 78.86C238.489 79.4733 238.782 79.94 239.196 80.26C239.609 80.58 240.176 80.74 240.896 80.74C241.496 80.74 241.989 80.56 242.376 80.2C242.762 79.84 243.049 79.3533 243.236 78.74C243.422 78.1133 243.516 77.4 243.516 76.6C243.516 75.3733 243.296 74.3933 242.856 73.66C242.429 72.9267 241.762 72.56 240.856 72.56ZM251.778 71.1C253.004 71.1 253.918 71.3867 254.518 71.96C255.131 72.5333 255.438 73.4467 255.438 74.7V82H254.178L253.838 80.48H253.758C253.464 80.8667 253.164 81.1933 252.858 81.46C252.564 81.7133 252.218 81.9 251.818 82.02C251.431 82.14 250.951 82.2 250.378 82.2C249.778 82.2 249.238 82.0867 248.758 81.86C248.278 81.6333 247.898 81.2867 247.618 80.82C247.338 80.34 247.198 79.74 247.198 79.02C247.198 77.9533 247.591 77.1333 248.378 76.56C249.164 75.9733 250.378 75.6533 252.018 75.6L253.718 75.54V74.9C253.718 74.0067 253.538 73.3867 253.178 73.04C252.831 72.6933 252.331 72.52 251.678 72.52C251.158 72.52 250.658 72.6067 250.178 72.78C249.711 72.94 249.264 73.1267 248.838 73.34L248.298 72.02C248.751 71.7667 249.278 71.5533 249.878 71.38C250.478 71.1933 251.111 71.1 251.778 71.1ZM252.258 76.82C251.031 76.8733 250.178 77.0867 249.698 77.46C249.231 77.8333 248.998 78.36 248.998 79.04C248.998 79.64 249.164 80.08 249.498 80.36C249.831 80.64 250.264 80.78 250.798 80.78C251.624 80.78 252.318 80.5333 252.878 80.04C253.438 79.5333 253.718 78.76 253.718 77.72V76.76L252.258 76.82ZM263.323 71.08C263.509 71.08 263.709 71.0933 263.923 71.12C264.136 71.1333 264.323 71.16 264.483 71.2L264.283 72.82C264.123 72.78 263.943 72.7467 263.743 72.72C263.556 72.6933 263.376 72.68 263.203 72.68C262.816 72.68 262.449 72.7667 262.103 72.94C261.756 73.1133 261.443 73.36 261.163 73.68C260.896 73.9867 260.683 74.36 260.523 74.8C260.363 75.24 260.283 75.7333 260.283 76.28V82H258.543V71.28H259.963L260.163 73.24H260.243C260.456 72.84 260.709 72.48 261.003 72.16C261.309 71.8267 261.656 71.5667 262.043 71.38C262.429 71.18 262.856 71.08 263.323 71.08ZM269.844 71.1C271.071 71.1 271.984 71.3867 272.584 71.96C273.197 72.5333 273.504 73.4467 273.504 74.7V82H272.244L271.904 80.48H271.824C271.531 80.8667 271.231 81.1933 270.924 81.46C270.631 81.7133 270.284 81.9 269.884 82.02C269.497 82.14 269.017 82.2 268.444 82.2C267.844 82.2 267.304 82.0867 266.824 81.86C266.344 81.6333 265.964 81.2867 265.684 80.82C265.404 80.34 265.264 79.74 265.264 79.02C265.264 77.9533 265.657 77.1333 266.444 76.56C267.231 75.9733 268.444 75.6533 270.084 75.6L271.784 75.54V74.9C271.784 74.0067 271.604 73.3867 271.244 73.04C270.897 72.6933 270.397 72.52 269.744 72.52C269.224 72.52 268.724 72.6067 268.244 72.78C267.777 72.94 267.331 73.1267 266.904 73.34L266.364 72.02C266.817 71.7667 267.344 71.5533 267.944 71.38C268.544 71.1933 269.177 71.1 269.844 71.1ZM270.324 76.82C269.097 76.8733 268.244 77.0867 267.764 77.46C267.297 77.8333 267.064 78.36 267.064 79.04C267.064 79.64 267.231 80.08 267.564 80.36C267.897 80.64 268.331 80.78 268.864 80.78C269.691 80.78 270.384 80.5333 270.944 80.04C271.504 79.5333 271.784 78.76 271.784 77.72V76.76L270.324 76.82ZM67.8247 100.08C68.0114 100.08 68.2114 100.093 68.4247 100.12C68.638 100.133 68.8247 100.16 68.9847 100.2L68.7847 101.82C68.6247 101.78 68.4447 101.747 68.2447 101.72C68.058 101.693 67.878 101.68 67.7047 101.68C67.318 101.68 66.9514 101.767 66.6047 101.94C66.258 102.113 65.9447 102.36 65.6647 102.68C65.398 102.987 65.1847 103.36 65.0247 103.8C64.8647 104.24 64.7847 104.733 64.7847 105.28V111H63.0447V100.28H64.4647L64.6647 102.24H64.7447C64.958 101.84 65.2114 101.48 65.5047 101.16C65.8114 100.827 66.158 100.567 66.5447 100.38C66.9314 100.18 67.358 100.08 67.8247 100.08ZM74.4061 100.08C75.2728 100.08 76.0194 100.28 76.6461 100.68C77.2728 101.08 77.7528 101.647 78.0861 102.38C78.4328 103.1 78.6061 103.947 78.6061 104.92V105.98H71.7261C71.7528 107.193 72.0394 108.12 72.5861 108.76C73.1328 109.387 73.8994 109.7 74.8861 109.7C75.5261 109.7 76.0928 109.64 76.5861 109.52C77.0928 109.387 77.6128 109.2 78.1461 108.96V110.5C77.6261 110.74 77.1128 110.913 76.6061 111.02C76.1128 111.14 75.5128 111.2 74.8061 111.2C73.8461 111.2 72.9994 110.993 72.2661 110.58C71.5328 110.167 70.9594 109.553 70.5461 108.74C70.1328 107.913 69.9261 106.907 69.9261 105.72C69.9261 104.547 70.1128 103.54 70.4861 102.7C70.8594 101.86 71.3794 101.213 72.0461 100.76C72.7261 100.307 73.5128 100.08 74.4061 100.08ZM74.4061 101.52C73.6328 101.52 73.0194 101.793 72.5661 102.34C72.1128 102.873 71.8461 103.62 71.7661 104.58H76.8061C76.8061 103.967 76.7194 103.433 76.5461 102.98C76.3728 102.527 76.1061 102.173 75.7461 101.92C75.3994 101.653 74.9528 101.52 74.4061 101.52ZM87.7506 108.04C87.7506 108.733 87.584 109.313 87.2506 109.78C86.9306 110.247 86.4706 110.6 85.8706 110.84C85.2706 111.08 84.5506 111.2 83.7106 111.2C83.004 111.2 82.3906 111.14 81.8706 111.02C81.364 110.9 80.9173 110.733 80.5306 110.52V108.92C80.944 109.133 81.4373 109.333 82.0106 109.52C82.584 109.693 83.164 109.78 83.7506 109.78C84.564 109.78 85.1506 109.64 85.5106 109.36C85.884 109.067 86.0706 108.68 86.0706 108.2C86.0706 107.933 85.9973 107.693 85.8506 107.48C85.7173 107.267 85.4706 107.053 85.1106 106.84C84.764 106.627 84.2573 106.387 83.5906 106.12C82.9506 105.853 82.3973 105.587 81.9306 105.32C81.4773 105.053 81.124 104.733 80.8706 104.36C80.6306 103.987 80.5106 103.507 80.5106 102.92C80.5106 102.013 80.8573 101.313 81.5506 100.82C82.2573 100.327 83.1773 100.08 84.3106 100.08C84.924 100.08 85.4973 100.147 86.0306 100.28C86.564 100.4 87.0706 100.573 87.5506 100.8L86.9706 102.2C86.6906 102.067 86.3973 101.953 86.0906 101.86C85.784 101.753 85.4706 101.673 85.1506 101.62C84.844 101.553 84.5306 101.52 84.2106 101.52C83.5573 101.52 83.0573 101.64 82.7106 101.88C82.364 102.107 82.1906 102.42 82.1906 102.82C82.1906 103.113 82.2706 103.367 82.4306 103.58C82.5906 103.793 82.8506 104 83.2106 104.2C83.584 104.387 84.0906 104.607 84.7306 104.86C85.3706 105.113 85.9173 105.373 86.3706 105.64C86.824 105.907 87.164 106.233 87.3906 106.62C87.6306 106.993 87.7506 107.467 87.7506 108.04ZM95.0336 100.08C96.2736 100.08 97.2669 100.54 98.0136 101.46C98.7736 102.38 99.1536 103.767 99.1536 105.62C99.1536 106.833 98.9803 107.86 98.6336 108.7C98.2869 109.527 97.8003 110.153 97.1736 110.58C96.5603 110.993 95.8403 111.2 95.0136 111.2C94.4936 111.2 94.0336 111.127 93.6336 110.98C93.2469 110.833 92.9136 110.647 92.6336 110.42C92.3536 110.18 92.1136 109.92 91.9136 109.64H91.7936C91.8203 109.867 91.8469 110.153 91.8736 110.5C91.9003 110.847 91.9136 111.147 91.9136 111.4V115.8H90.1736V100.28H91.5936L91.8336 101.74H91.9136C92.1136 101.433 92.3536 101.153 92.6336 100.9C92.9136 100.647 93.2469 100.447 93.6336 100.3C94.0336 100.153 94.5003 100.08 95.0336 100.08ZM94.6936 101.56C94.0269 101.56 93.4869 101.7 93.0736 101.98C92.6736 102.247 92.3803 102.653 92.1936 103.2C92.0069 103.747 91.9136 104.44 91.9136 105.28V105.62C91.9136 106.5 91.9936 107.247 92.1536 107.86C92.3269 108.473 92.6203 108.94 93.0336 109.26C93.4469 109.58 94.0136 109.74 94.7336 109.74C95.3336 109.74 95.8269 109.56 96.2136 109.2C96.6003 108.84 96.8869 108.353 97.0736 107.74C97.2603 107.113 97.3536 106.4 97.3536 105.6C97.3536 104.373 97.1336 103.393 96.6936 102.66C96.2669 101.927 95.6003 101.56 94.6936 101.56ZM110.576 105.62C110.576 106.513 110.462 107.307 110.236 108C110.022 108.68 109.709 109.26 109.296 109.74C108.882 110.22 108.382 110.587 107.796 110.84C107.209 111.08 106.556 111.2 105.836 111.2C105.169 111.2 104.549 111.08 103.976 110.84C103.416 110.587 102.922 110.22 102.496 109.74C102.082 109.26 101.762 108.68 101.536 108C101.309 107.307 101.196 106.513 101.196 105.62C101.196 104.433 101.382 103.433 101.756 102.62C102.142 101.793 102.689 101.167 103.396 100.74C104.102 100.3 104.936 100.08 105.896 100.08C106.816 100.08 107.622 100.3 108.316 100.74C109.022 101.167 109.576 101.793 109.976 102.62C110.376 103.433 110.576 104.433 110.576 105.62ZM102.996 105.62C102.996 106.46 103.096 107.193 103.296 107.82C103.496 108.433 103.809 108.907 104.236 109.24C104.662 109.573 105.209 109.74 105.876 109.74C106.542 109.74 107.089 109.573 107.516 109.24C107.942 108.907 108.256 108.433 108.456 107.82C108.669 107.193 108.776 106.46 108.776 105.62C108.776 104.767 108.669 104.04 108.456 103.44C108.256 102.84 107.942 102.38 107.516 102.06C107.089 101.727 106.536 101.56 105.856 101.56C104.856 101.56 104.129 101.92 103.676 102.64C103.222 103.36 102.996 104.353 102.996 105.62ZM118.082 100.08C119.282 100.08 120.189 100.393 120.802 101.02C121.429 101.633 121.742 102.633 121.742 104.02V111H120.002V104.14C120.002 103.273 119.822 102.627 119.462 102.2C119.102 101.773 118.549 101.56 117.802 101.56C116.709 101.56 115.949 101.893 115.522 102.56C115.109 103.227 114.902 104.187 114.902 105.44V111H113.162V100.28H114.562L114.822 101.74H114.922C115.135 101.367 115.409 101.06 115.742 100.82C116.075 100.567 116.442 100.38 116.842 100.26C117.242 100.14 117.655 100.08 118.082 100.08ZM128.402 111.2C127.162 111.2 126.162 110.74 125.402 109.82C124.655 108.887 124.282 107.5 124.282 105.66C124.282 103.82 124.662 102.433 125.422 101.5C126.182 100.553 127.182 100.08 128.422 100.08C128.942 100.08 129.395 100.153 129.782 100.3C130.168 100.433 130.502 100.62 130.782 100.86C131.075 101.1 131.322 101.367 131.522 101.66H131.642C131.628 101.487 131.602 101.233 131.562 100.9C131.535 100.553 131.522 100.28 131.522 100.08V95.8H133.262V111H131.862L131.602 109.56H131.522C131.322 109.867 131.075 110.147 130.782 110.4C130.502 110.64 130.162 110.833 129.762 110.98C129.375 111.127 128.922 111.2 128.402 111.2ZM128.722 109.74C129.762 109.74 130.488 109.433 130.902 108.82C131.328 108.193 131.542 107.253 131.542 106V105.68C131.542 104.347 131.342 103.327 130.942 102.62C130.542 101.9 129.795 101.54 128.702 101.54C127.822 101.54 127.162 101.92 126.722 102.68C126.295 103.427 126.082 104.433 126.082 105.7C126.082 106.98 126.295 107.973 126.722 108.68C127.162 109.387 127.828 109.74 128.722 109.74ZM140.344 100.08C141.21 100.08 141.957 100.28 142.584 100.68C143.21 101.08 143.69 101.647 144.024 102.38C144.37 103.1 144.544 103.947 144.544 104.92V105.98H137.664C137.69 107.193 137.977 108.12 138.524 108.76C139.07 109.387 139.837 109.7 140.824 109.7C141.464 109.7 142.03 109.64 142.524 109.52C143.03 109.387 143.55 109.2 144.084 108.96V110.5C143.564 110.74 143.05 110.913 142.544 111.02C142.05 111.14 141.45 111.2 140.744 111.2C139.784 111.2 138.937 110.993 138.204 110.58C137.47 110.167 136.897 109.553 136.484 108.74C136.07 107.913 135.864 106.907 135.864 105.72C135.864 104.547 136.05 103.54 136.424 102.7C136.797 101.86 137.317 101.213 137.984 100.76C138.664 100.307 139.45 100.08 140.344 100.08ZM140.344 101.52C139.57 101.52 138.957 101.793 138.504 102.34C138.05 102.873 137.784 103.62 137.704 104.58H142.744C142.744 103.967 142.657 103.433 142.484 102.98C142.31 102.527 142.044 102.173 141.684 101.92C141.337 101.653 140.89 101.52 140.344 101.52ZM151.848 100.08C152.035 100.08 152.235 100.093 152.448 100.12C152.661 100.133 152.848 100.16 153.008 100.2L152.808 101.82C152.648 101.78 152.468 101.747 152.268 101.72C152.081 101.693 151.901 101.68 151.728 101.68C151.341 101.68 150.975 101.767 150.628 101.94C150.281 102.113 149.968 102.36 149.688 102.68C149.421 102.987 149.208 103.36 149.048 103.8C148.888 104.24 148.808 104.733 148.808 105.28V111H147.068V100.28H148.488L148.688 102.24H148.768C148.981 101.84 149.235 101.48 149.528 101.16C149.835 100.827 150.181 100.567 150.568 100.38C150.955 100.18 151.381 100.08 151.848 100.08ZM163.623 100.1C164.85 100.1 165.763 100.387 166.363 100.96C166.977 101.533 167.283 102.447 167.283 103.7V111H166.023L165.683 109.48H165.603C165.31 109.867 165.01 110.193 164.703 110.46C164.41 110.713 164.063 110.9 163.663 111.02C163.277 111.14 162.797 111.2 162.223 111.2C161.623 111.2 161.083 111.087 160.603 110.86C160.123 110.633 159.743 110.287 159.463 109.82C159.183 109.34 159.043 108.74 159.043 108.02C159.043 106.953 159.437 106.133 160.223 105.56C161.01 104.973 162.223 104.653 163.863 104.6L165.563 104.54V103.9C165.563 103.007 165.383 102.387 165.023 102.04C164.677 101.693 164.177 101.52 163.523 101.52C163.003 101.52 162.503 101.607 162.023 101.78C161.557 101.94 161.11 102.127 160.683 102.34L160.143 101.02C160.597 100.767 161.123 100.553 161.723 100.38C162.323 100.193 162.957 100.1 163.623 100.1ZM164.103 105.82C162.877 105.873 162.023 106.087 161.543 106.46C161.077 106.833 160.843 107.36 160.843 108.04C160.843 108.64 161.01 109.08 161.343 109.36C161.677 109.64 162.11 109.78 162.643 109.78C163.47 109.78 164.163 109.533 164.723 109.04C165.283 108.533 165.563 107.76 165.563 106.72V105.76L164.103 105.82ZM162.723 95.68C162.87 95.9733 163.05 96.3067 163.263 96.68C163.477 97.04 163.697 97.3933 163.923 97.74C164.163 98.0867 164.377 98.3867 164.563 98.64V98.88H163.383C163.17 98.6933 162.93 98.4733 162.663 98.22C162.397 97.9533 162.13 97.68 161.863 97.4C161.61 97.1067 161.377 96.8267 161.163 96.56C160.95 96.2933 160.783 96.0667 160.663 95.88V95.68H162.723ZM180.131 100.08C181.371 100.08 182.365 100.54 183.111 101.46C183.871 102.38 184.251 103.767 184.251 105.62C184.251 106.833 184.078 107.86 183.731 108.7C183.385 109.527 182.898 110.153 182.271 110.58C181.658 110.993 180.938 111.2 180.111 111.2C179.591 111.2 179.131 111.127 178.731 110.98C178.345 110.833 178.011 110.647 177.731 110.42C177.451 110.18 177.211 109.92 177.011 109.64H176.891C176.918 109.867 176.945 110.153 176.971 110.5C176.998 110.847 177.011 111.147 177.011 111.4V115.8H175.271V100.28H176.691L176.931 101.74H177.011C177.211 101.433 177.451 101.153 177.731 100.9C178.011 100.647 178.345 100.447 178.731 100.3C179.131 100.153 179.598 100.08 180.131 100.08ZM179.791 101.56C179.125 101.56 178.585 101.7 178.171 101.98C177.771 102.247 177.478 102.653 177.291 103.2C177.105 103.747 177.011 104.44 177.011 105.28V105.62C177.011 106.5 177.091 107.247 177.251 107.86C177.425 108.473 177.718 108.94 178.131 109.26C178.545 109.58 179.111 109.74 179.831 109.74C180.431 109.74 180.925 109.56 181.311 109.2C181.698 108.84 181.985 108.353 182.171 107.74C182.358 107.113 182.451 106.4 182.451 105.6C182.451 104.373 182.231 103.393 181.791 102.66C181.365 101.927 180.698 101.56 179.791 101.56ZM190.773 100.08C191.64 100.08 192.387 100.28 193.013 100.68C193.64 101.08 194.12 101.647 194.453 102.38C194.8 103.1 194.973 103.947 194.973 104.92V105.98H188.093C188.12 107.193 188.407 108.12 188.953 108.76C189.5 109.387 190.267 109.7 191.253 109.7C191.893 109.7 192.46 109.64 192.953 109.52C193.46 109.387 193.98 109.2 194.513 108.96V110.5C193.993 110.74 193.48 110.913 192.973 111.02C192.48 111.14 191.88 111.2 191.173 111.2C190.213 111.2 189.367 110.993 188.633 110.58C187.9 110.167 187.327 109.553 186.913 108.74C186.5 107.913 186.293 106.907 186.293 105.72C186.293 104.547 186.48 103.54 186.853 102.7C187.227 101.86 187.747 101.213 188.413 100.76C189.093 100.307 189.88 100.08 190.773 100.08ZM190.773 101.52C190 101.52 189.387 101.793 188.933 102.34C188.48 102.873 188.213 103.62 188.133 104.58H193.173C193.173 103.967 193.087 103.433 192.913 102.98C192.74 102.527 192.473 102.173 192.113 101.92C191.767 101.653 191.32 101.52 190.773 101.52ZM202.278 100.08C202.464 100.08 202.664 100.093 202.878 100.12C203.091 100.133 203.278 100.16 203.438 100.2L203.238 101.82C203.078 101.78 202.898 101.747 202.698 101.72C202.511 101.693 202.331 101.68 202.158 101.68C201.771 101.68 201.404 101.767 201.058 101.94C200.711 102.113 200.398 102.36 200.118 102.68C199.851 102.987 199.638 103.36 199.478 103.8C199.318 104.24 199.238 104.733 199.238 105.28V111H197.498V100.28H198.918L199.118 102.24H199.198C199.411 101.84 199.664 101.48 199.958 101.16C200.264 100.827 200.611 100.567 200.998 100.38C201.384 100.18 201.811 100.08 202.278 100.08ZM211.93 108.04C211.93 108.733 211.764 109.313 211.43 109.78C211.11 110.247 210.65 110.6 210.05 110.84C209.45 111.08 208.73 111.2 207.89 111.2C207.184 111.2 206.57 111.14 206.05 111.02C205.544 110.9 205.097 110.733 204.71 110.52V108.92C205.124 109.133 205.617 109.333 206.19 109.52C206.764 109.693 207.344 109.78 207.93 109.78C208.744 109.78 209.33 109.64 209.69 109.36C210.064 109.067 210.25 108.68 210.25 108.2C210.25 107.933 210.177 107.693 210.03 107.48C209.897 107.267 209.65 107.053 209.29 106.84C208.944 106.627 208.437 106.387 207.77 106.12C207.13 105.853 206.577 105.587 206.11 105.32C205.657 105.053 205.304 104.733 205.05 104.36C204.81 103.987 204.69 103.507 204.69 102.92C204.69 102.013 205.037 101.313 205.73 100.82C206.437 100.327 207.357 100.08 208.49 100.08C209.104 100.08 209.677 100.147 210.21 100.28C210.744 100.4 211.25 100.573 211.73 100.8L211.15 102.2C210.87 102.067 210.577 101.953 210.27 101.86C209.964 101.753 209.65 101.673 209.33 101.62C209.024 101.553 208.71 101.52 208.39 101.52C207.737 101.52 207.237 101.64 206.89 101.88C206.544 102.107 206.37 102.42 206.37 102.82C206.37 103.113 206.45 103.367 206.61 103.58C206.77 103.793 207.03 104 207.39 104.2C207.764 104.387 208.27 104.607 208.91 104.86C209.55 105.113 210.097 105.373 210.55 105.64C211.004 105.907 211.344 106.233 211.57 106.62C211.81 106.993 211.93 107.467 211.93 108.04ZM218.273 100.08C219.14 100.08 219.887 100.28 220.513 100.68C221.14 101.08 221.62 101.647 221.953 102.38C222.3 103.1 222.473 103.947 222.473 104.92V105.98H215.593C215.62 107.193 215.907 108.12 216.453 108.76C217 109.387 217.767 109.7 218.753 109.7C219.393 109.7 219.96 109.64 220.453 109.52C220.96 109.387 221.48 109.2 222.013 108.96V110.5C221.493 110.74 220.98 110.913 220.473 111.02C219.98 111.14 219.38 111.2 218.673 111.2C217.713 111.2 216.867 110.993 216.133 110.58C215.4 110.167 214.827 109.553 214.413 108.74C214 107.913 213.793 106.907 213.793 105.72C213.793 104.547 213.98 103.54 214.353 102.7C214.727 101.86 215.247 101.213 215.913 100.76C216.593 100.307 217.38 100.08 218.273 100.08ZM218.273 101.52C217.5 101.52 216.887 101.793 216.433 102.34C215.98 102.873 215.713 103.62 215.633 104.58H220.673C220.673 103.967 220.587 103.433 220.413 102.98C220.24 102.527 219.973 102.173 219.613 101.92C219.267 101.653 218.82 101.52 218.273 101.52ZM228.558 100.08C229.224 100.08 229.818 100.213 230.338 100.48C230.871 100.747 231.324 101.153 231.698 101.7H231.798L232.018 100.28H233.418V111.18C233.418 112.193 233.251 113.04 232.918 113.72C232.598 114.413 232.098 114.933 231.418 115.28C230.751 115.627 229.898 115.8 228.858 115.8C228.124 115.8 227.458 115.74 226.858 115.62C226.258 115.513 225.711 115.347 225.218 115.12V113.5C225.551 113.673 225.911 113.82 226.298 113.94C226.698 114.073 227.118 114.173 227.558 114.24C228.011 114.307 228.478 114.34 228.958 114.34C229.811 114.34 230.478 114.067 230.958 113.52C231.451 112.987 231.698 112.253 231.698 111.32V110.9C231.698 110.74 231.704 110.513 231.718 110.22C231.731 109.913 231.744 109.7 231.758 109.58H231.678C231.331 110.127 230.898 110.533 230.378 110.8C229.858 111.067 229.258 111.2 228.578 111.2C227.284 111.2 226.271 110.713 225.538 109.74C224.804 108.767 224.438 107.407 224.438 105.66C224.438 104.513 224.598 103.527 224.918 102.7C225.251 101.86 225.724 101.213 226.338 100.76C226.964 100.307 227.704 100.08 228.558 100.08ZM228.838 101.56C228.291 101.56 227.818 101.72 227.418 102.04C227.031 102.36 226.738 102.827 226.538 103.44C226.338 104.053 226.238 104.8 226.238 105.68C226.238 107 226.458 108.013 226.898 108.72C227.351 109.413 228.011 109.76 228.878 109.76C229.371 109.76 229.798 109.693 230.158 109.56C230.518 109.413 230.811 109.193 231.038 108.9C231.264 108.593 231.431 108.207 231.538 107.74C231.658 107.273 231.718 106.72 231.718 106.08V105.66C231.718 104.687 231.611 103.9 231.398 103.3C231.198 102.7 230.884 102.26 230.458 101.98C230.044 101.7 229.504 101.56 228.838 101.56ZM245.08 100.28V111H243.68L243.42 109.58H243.34C243.127 109.953 242.847 110.26 242.5 110.5C242.167 110.74 241.8 110.913 241.4 111.02C241 111.14 240.58 111.2 240.14 111.2C239.34 111.2 238.667 111.067 238.12 110.8C237.573 110.52 237.16 110.093 236.88 109.52C236.613 108.947 236.48 108.207 236.48 107.3V100.28H238.24V107.18C238.24 108.033 238.42 108.673 238.78 109.1C239.14 109.527 239.693 109.74 240.44 109.74C241.173 109.74 241.747 109.593 242.16 109.3C242.587 108.993 242.887 108.553 243.06 107.98C243.247 107.393 243.34 106.687 243.34 105.86V100.28H245.08ZM250 100.28V111H248.26V100.28H250ZM249.14 96.26C249.407 96.26 249.64 96.3533 249.84 96.54C250.04 96.7133 250.14 96.9933 250.14 97.38C250.14 97.7533 250.04 98.0333 249.84 98.22C249.64 98.4067 249.407 98.5 249.14 98.5C248.86 98.5 248.62 98.4067 248.42 98.22C248.22 98.0333 248.12 97.7533 248.12 97.38C248.12 96.9933 248.22 96.7133 248.42 96.54C248.62 96.3533 248.86 96.26 249.14 96.26ZM257.222 111.2C256.315 111.2 255.515 111.007 254.822 110.62C254.129 110.233 253.582 109.633 253.182 108.82C252.795 108.007 252.602 106.967 252.602 105.7C252.602 104.38 252.809 103.307 253.222 102.48C253.635 101.653 254.195 101.047 254.902 100.66C255.622 100.273 256.435 100.08 257.342 100.08C257.862 100.08 258.362 100.14 258.842 100.26C259.335 100.367 259.735 100.5 260.042 100.66L259.502 102.12C259.195 102 258.835 101.887 258.422 101.78C258.022 101.673 257.649 101.62 257.302 101.62C256.649 101.62 256.109 101.773 255.682 102.08C255.255 102.387 254.935 102.84 254.722 103.44C254.509 104.04 254.402 104.787 254.402 105.68C254.402 106.533 254.509 107.26 254.722 107.86C254.935 108.46 255.249 108.913 255.662 109.22C256.089 109.527 256.609 109.68 257.222 109.68C257.769 109.68 258.255 109.62 258.682 109.5C259.109 109.38 259.502 109.233 259.862 109.06V110.62C259.515 110.807 259.135 110.947 258.722 111.04C258.309 111.147 257.809 111.2 257.222 111.2ZM258.962 113.78C258.962 114.207 258.855 114.567 258.642 114.86C258.442 115.167 258.135 115.4 257.722 115.56C257.322 115.72 256.809 115.8 256.182 115.8C255.982 115.8 255.795 115.787 255.622 115.76C255.449 115.747 255.309 115.727 255.202 115.7V114.6C255.322 114.627 255.475 114.647 255.662 114.66C255.862 114.687 256.049 114.7 256.222 114.7C256.649 114.7 256.975 114.633 257.202 114.5C257.442 114.38 257.562 114.153 257.562 113.82C257.562 113.473 257.402 113.22 257.082 113.06C256.762 112.9 256.355 112.787 255.862 112.72L256.662 111H257.802L257.342 112.06C257.635 112.127 257.902 112.227 258.142 112.36C258.395 112.507 258.595 112.693 258.742 112.92C258.889 113.147 258.962 113.433 258.962 113.78ZM266.104 100.1C267.331 100.1 268.244 100.387 268.844 100.96C269.457 101.533 269.764 102.447 269.764 103.7V111H268.504L268.164 109.48H268.084C267.791 109.867 267.491 110.193 267.184 110.46C266.891 110.713 266.544 110.9 266.144 111.02C265.757 111.14 265.277 111.2 264.704 111.2C264.104 111.2 263.564 111.087 263.084 110.86C262.604 110.633 262.224 110.287 261.944 109.82C261.664 109.34 261.524 108.74 261.524 108.02C261.524 106.953 261.917 106.133 262.704 105.56C263.491 104.973 264.704 104.653 266.344 104.6L268.044 104.54V103.9C268.044 103.007 267.864 102.387 267.504 102.04C267.157 101.693 266.657 101.52 266.004 101.52C265.484 101.52 264.984 101.607 264.504 101.78C264.037 101.94 263.591 102.127 263.164 102.34L262.624 101.02C263.077 100.767 263.604 100.553 264.204 100.38C264.804 100.193 265.437 100.1 266.104 100.1ZM266.584 105.82C265.357 105.873 264.504 106.087 264.024 106.46C263.557 106.833 263.324 107.36 263.324 108.04C263.324 108.64 263.491 109.08 263.824 109.36C264.157 109.64 264.591 109.78 265.124 109.78C265.951 109.78 266.644 109.533 267.204 109.04C267.764 108.533 268.044 107.76 268.044 106.72V105.76L266.584 105.82ZM262.504 98.88C262.544 98.48 262.617 98.1267 262.724 97.82C262.844 97.5 262.991 97.2333 263.164 97.02C263.337 96.7933 263.544 96.62 263.784 96.5C264.037 96.38 264.311 96.32 264.604 96.32C264.884 96.32 265.151 96.38 265.404 96.5C265.657 96.6067 265.904 96.74 266.144 96.9C266.384 97.0467 266.611 97.18 266.824 97.3C267.051 97.4067 267.264 97.46 267.464 97.46C267.744 97.46 267.957 97.3667 268.104 97.18C268.264 96.98 268.391 96.6867 268.484 96.3H269.464C269.384 97.0733 269.164 97.6933 268.804 98.16C268.444 98.6267 267.971 98.86 267.384 98.86C267.117 98.86 266.857 98.8067 266.604 98.7C266.351 98.58 266.104 98.4467 265.864 98.3C265.624 98.14 265.391 98.0067 265.164 97.9C264.937 97.78 264.724 97.72 264.524 97.72C264.231 97.72 264.004 97.82 263.844 98.02C263.697 98.2067 263.584 98.4933 263.504 98.88H262.504ZM281.689 105.62C281.689 106.513 281.576 107.307 281.349 108C281.136 108.68 280.822 109.26 280.409 109.74C279.996 110.22 279.496 110.587 278.909 110.84C278.322 111.08 277.669 111.2 276.949 111.2C276.282 111.2 275.662 111.08 275.089 110.84C274.529 110.587 274.036 110.22 273.609 109.74C273.196 109.26 272.876 108.68 272.649 108C272.422 107.307 272.309 106.513 272.309 105.62C272.309 104.433 272.496 103.433 272.869 102.62C273.256 101.793 273.802 101.167 274.509 100.74C275.216 100.3 276.049 100.08 277.009 100.08C277.929 100.08 278.736 100.3 279.429 100.74C280.136 101.167 280.689 101.793 281.089 102.62C281.489 103.433 281.689 104.433 281.689 105.62ZM274.109 105.62C274.109 106.46 274.209 107.193 274.409 107.82C274.609 108.433 274.922 108.907 275.349 109.24C275.776 109.573 276.322 109.74 276.989 109.74C277.656 109.74 278.202 109.573 278.629 109.24C279.056 108.907 279.369 108.433 279.569 107.82C279.782 107.193 279.889 106.46 279.889 105.62C279.889 104.767 279.782 104.04 279.569 103.44C279.369 102.84 279.056 102.38 278.629 102.06C278.202 101.727 277.649 101.56 276.969 101.56C275.969 101.56 275.242 101.92 274.789 102.64C274.336 103.36 274.109 104.353 274.109 105.62Z" fill="#667085"/>
</svg>
